<svg width="421" height="381" viewBox="0 0 421 381" fill="none" xmlns="http://www.w3.org/2000/svg">
<path d="M196.349 43.725C196.349 27.6954 193.706 18.877 177.459 11.3784C155.4 1.1975 122.963 0.67462 99.6973 7.75558C71.4943 16.3391 67.4558 53.4367 72.3968 78.1418C78.6388 109.352 110.16 122.807 133.597 139.212C160.554 158.082 178.463 182.303 177.717 216.585C176.788 259.34 118.217 281.93 83.3946 283.478C59.6306 284.534 19.9244 285.576 5.89217 260.318C-17.5404 218.139 108.579 230.041 126.48 230.041C155.044 230.041 193.258 236.494 220.156 225.383C246.021 214.7 275.523 191.568 292.871 169.489C306.855 151.691 320.199 134.035 333.757 117.087C342.99 105.546 335.429 103.934 323.406 104.278C279.863 105.522 252.842 160.465 234.389 193.554C216.747 225.187 204.027 258.05 201.524 294.476C199.589 322.644 204.824 357.819 233.871 370.814C262.996 383.844 307.962 377.789 335.31 363.568C366.191 347.51 389.077 321.254 417.6 302.239" stroke="black" stroke-width="4.96798" stroke-linecap="round"/>
</svg>
