<svg width="260" height="260" viewBox="0 0 260 260" fill="none" xmlns="http://www.w3.org/2000/svg">
<path d="M2.80957 214.673C2.80957 248.996 50.6973 256.594 76.0423 256.594C129.925 256.594 157.528 191.654 156.521 145.322C155.904 116.975 116.281 100.098 98.2967 125.655C85.0525 144.476 86.907 183.992 111.753 193.195C133.54 201.264 163.312 213.635 186.797 202.51C217.771 187.838 232.707 155.155 245.021 123.843C251.237 108.037 252.322 91.6229 255.372 75.0648C257.268 64.7713 258.695 50.351 255.501 40.1305C252.244 29.7089 249.694 24.7491 242.174 17.2291C232.658 7.71283 218.265 7.99169 207.758 2.73779" stroke="black" stroke-width="4.96798" stroke-linecap="round"/>
</svg>
