<svg width="195" height="114" viewBox="0 0 195 114" fill="none" xmlns="http://www.w3.org/2000/svg">
<path d="M21.0745 4C21.0745 4 14.7866 10.6161 10.5666 18.3997C4.74306 29.1409 3.1721 39.0264 5.89646 53.037C8.92353 68.6043 19.6601 86.4121 33.1644 96.7389C44.847 105.673 57.587 108.097 72.3168 109.858C79.7312 110.766 97.428 109.702 108.9 98.1821C112.817 92.7213 121.379 81.0581 119.408 67.0475C116.342 45.2533 99.9847 32.066 92.1891 28.1966C86.2521 26.0857 73.1157 22.2916 67.2575 32.4103C63.0192 39.7309 67.1077 50.4403 74.4016 56.3813C87.0819 66.7096 109.056 70.6416 123.24 61.5517C128.591 58.1223 132.12 53.3379 135.364 47.9776C138.981 42.0023 141.712 31.0217 145.872 25.405C151.061 18.3997 161.181 19.9721 168.903 23.9816C178.043 28.7273 186.071 38.5597 188.882 48.4008C192.019 59.3781 190.495 69.62 182.785 78.1871C179.071 82.3133 174.509 85.3246 168.875 85.3246" stroke="#111111" stroke-width="7.78365" stroke-linecap="round"/>
</svg>
