<svg width="227" height="70" viewBox="0 0 227 70" fill="none" xmlns="http://www.w3.org/2000/svg">
<rect width="227" height="54" rx="9" fill="#111111"/>
<path d="M17.9868 36L24.6428 17.8H28.6208L35.2508 36H31.5328L26.6188 21.804L21.6788 36H17.9868ZM20.9248 31.866L21.8608 29.136H31.1168L32.0268 31.866H20.9248ZM36.8884 36V17.8H40.3984V36H36.8884ZM62.2855 36L52.4055 26.172C51.6082 25.3747 51.0448 24.6553 50.7155 24.014C50.3862 23.3553 50.2215 22.662 50.2215 21.934C50.2215 21.102 50.4295 20.348 50.8455 19.672C51.2615 18.996 51.8682 18.4673 52.6655 18.086C53.4802 17.6873 54.4508 17.488 55.5775 17.488C56.7042 17.488 57.6488 17.696 58.4115 18.112C59.1915 18.528 59.7808 19.074 60.1795 19.75C60.5955 20.426 60.7948 21.1887 60.7775 22.038H57.4235C57.4235 21.414 57.2415 20.946 56.8775 20.634C56.5135 20.322 56.0628 20.166 55.5255 20.166C54.9362 20.166 54.4595 20.3307 54.0955 20.66C53.7488 20.972 53.5755 21.388 53.5755 21.908C53.5755 22.324 53.7055 22.7573 53.9655 23.208C54.2255 23.6587 54.6242 24.1613 55.1615 24.716L66.4715 36H62.2855ZM54.3815 36.286C53.0468 36.286 51.8855 36.0607 50.8975 35.61C49.9268 35.142 49.1728 34.492 48.6355 33.66C48.0982 32.828 47.8295 31.8487 47.8295 30.722C47.8295 29.8553 48.0115 29.0493 48.3755 28.304C48.7395 27.5413 49.2855 26.874 50.0135 26.302C50.7415 25.7127 51.6428 25.2447 52.7175 24.898L54.0435 24.482L55.5775 26.666L54.3815 27.056C53.3242 27.4027 52.5355 27.8707 52.0155 28.46C51.5128 29.0493 51.2615 29.734 51.2615 30.514C51.2615 31.0513 51.3915 31.5453 51.6515 31.996C51.9115 32.4293 52.2928 32.776 52.7955 33.036C53.2982 33.296 53.8875 33.426 54.5635 33.426C55.4995 33.426 56.3402 33.218 57.0855 32.802C57.8308 32.386 58.5502 31.7187 59.2435 30.8C59.5555 30.384 59.8675 29.916 60.1795 29.396C60.4915 28.876 60.8035 28.2953 61.1155 27.654L61.6615 26.536H65.2235L64.3395 28.33C63.9062 29.2313 63.4642 30.0547 63.0135 30.8C62.5628 31.5453 62.0948 32.204 61.6095 32.776C60.6215 34.0067 59.5382 34.8993 58.3595 35.454C57.1982 36.0087 55.8722 36.286 54.3815 36.286ZM73.5071 36V17.8H77.6931L83.2571 29.162L88.7691 17.8H92.9551V36H89.4451V23.78L84.6351 33.452H81.8531L77.0171 23.78V36H73.5071ZM101.892 36.312C100.644 36.312 99.5178 36.026 98.5124 35.454C97.5244 34.8647 96.7358 34.0587 96.1464 33.036C95.5744 31.996 95.2884 30.8087 95.2884 29.474C95.2884 28.1047 95.5744 26.9087 96.1464 25.886C96.7358 24.846 97.5331 24.04 98.5384 23.468C99.5438 22.8787 100.67 22.584 101.918 22.584C103.184 22.584 104.31 22.8787 105.298 23.468C106.304 24.04 107.092 24.846 107.664 25.886C108.254 26.9087 108.548 28.096 108.548 29.448C108.548 30.8 108.254 31.996 107.664 33.036C107.092 34.0587 106.304 34.8647 105.298 35.454C104.293 36.026 103.158 36.312 101.892 36.312ZM101.892 33.27C102.482 33.27 103.002 33.1313 103.452 32.854C103.92 32.5767 104.284 32.152 104.544 31.58C104.822 31.008 104.96 30.2973 104.96 29.448C104.96 28.5987 104.822 27.8967 104.544 27.342C104.284 26.77 103.92 26.3453 103.452 26.068C103.002 25.7733 102.49 25.626 101.918 25.626C101.364 25.626 100.852 25.7733 100.384 26.068C99.9164 26.3453 99.5438 26.77 99.2664 27.342C99.0064 27.8967 98.8764 28.5987 98.8764 29.448C98.8764 30.2973 99.0064 31.008 99.2664 31.58C99.5438 32.152 99.9078 32.5767 100.358 32.854C100.826 33.1313 101.338 33.27 101.892 33.27ZM118.568 36.312C117.892 36.312 117.285 36.2253 116.748 36.052C116.228 35.8787 115.76 35.6447 115.344 35.35C114.945 35.038 114.607 34.6913 114.33 34.31L113.94 36H110.82V17.28H114.33V24.716C114.746 24.1093 115.292 23.6067 115.968 23.208C116.661 22.792 117.519 22.584 118.542 22.584C119.755 22.584 120.83 22.8873 121.766 23.494C122.719 24.0833 123.464 24.898 124.002 25.938C124.556 26.9607 124.834 28.1393 124.834 29.474C124.834 30.774 124.556 31.944 124.002 32.984C123.464 34.024 122.728 34.8387 121.792 35.428C120.856 36.0173 119.781 36.312 118.568 36.312ZM117.736 33.244C118.429 33.244 119.036 33.088 119.556 32.776C120.093 32.4467 120.509 32.0047 120.804 31.45C121.098 30.878 121.246 30.2193 121.246 29.474C121.246 28.7287 121.098 28.07 120.804 27.498C120.509 26.9087 120.093 26.458 119.556 26.146C119.036 25.8167 118.429 25.652 117.736 25.652C117.06 25.652 116.453 25.8167 115.916 26.146C115.396 26.458 114.98 26.9 114.668 27.472C114.373 28.044 114.226 28.7027 114.226 29.448C114.226 30.1933 114.373 30.8607 114.668 31.45C114.98 32.022 115.396 32.464 115.916 32.776C116.453 33.088 117.06 33.244 117.736 33.244ZM127.181 36V22.896H130.691V36H127.181ZM128.949 21.102C128.325 21.102 127.805 20.92 127.389 20.556C126.99 20.1747 126.791 19.698 126.791 19.126C126.791 18.554 126.99 18.086 127.389 17.722C127.805 17.3407 128.325 17.15 128.949 17.15C129.59 17.15 130.11 17.3407 130.509 17.722C130.925 18.086 131.133 18.554 131.133 19.126C131.133 19.698 130.925 20.1747 130.509 20.556C130.11 20.92 129.59 21.102 128.949 21.102ZM133.483 36V17.28H136.993V36H133.483ZM139.739 36V22.896H143.249V36H139.739ZM141.507 21.102C140.883 21.102 140.363 20.92 139.947 20.556C139.548 20.1747 139.349 19.698 139.349 19.126C139.349 18.554 139.548 18.086 139.947 17.722C140.363 17.3407 140.883 17.15 141.507 17.15C142.148 17.15 142.668 17.3407 143.067 17.722C143.483 18.086 143.691 18.554 143.691 19.126C143.691 19.698 143.483 20.1747 143.067 20.556C142.668 20.92 142.148 21.102 141.507 21.102ZM151.944 36C151.025 36 150.219 35.8613 149.526 35.584C148.85 35.2893 148.321 34.8127 147.94 34.154C147.559 33.478 147.368 32.5593 147.368 31.398V25.834H145.132V22.896H147.368L147.758 19.334H150.878V22.896H154.336V25.834H150.878V31.45C150.878 32.0393 151.008 32.4467 151.268 32.672C151.528 32.8973 151.97 33.01 152.594 33.01H154.31V36H151.944ZM158.2 41.72L161.372 34.544H160.592L155.34 22.896H159.162L162.906 31.346L166.286 22.896H170.004L161.918 41.72H158.2ZM183.962 36.312C182.628 36.312 181.414 36.0433 180.322 35.506C179.23 34.9687 178.364 34.1627 177.722 33.088C177.081 32.0133 176.76 30.644 176.76 28.98V17.8H180.27V29.006C180.27 29.9073 180.418 30.67 180.712 31.294C181.007 31.9007 181.432 32.3513 181.986 32.646C182.558 32.9407 183.234 33.088 184.014 33.088C184.812 33.088 185.488 32.9407 186.042 32.646C186.614 32.3513 187.048 31.9007 187.342 31.294C187.637 30.67 187.784 29.9073 187.784 29.006V17.8H191.294V28.98C191.294 30.644 190.965 32.0133 190.306 33.088C189.648 34.1627 188.755 34.9687 187.628 35.506C186.519 36.0433 185.297 36.312 183.962 36.312ZM193.025 36L198.771 26.77L192.947 17.8H197.003L201.007 24.014L204.673 17.8H208.625L202.931 26.926L208.781 36H204.725L200.695 29.682L197.003 36H193.025Z" fill="#F4F1EC"/>
<path d="M206.248 65.6222C206.248 67.3357 204.234 68.2558 202.939 67.1341L186.055 52.5119C184.655 51.2996 185.512 49 187.364 49L204.249 49C205.353 49 206.249 49.8954 206.249 51L206.248 65.6222Z" fill="#111111"/>
</svg>
