<svg width="177" height="56" viewBox="0 0 177 56" fill="none" xmlns="http://www.w3.org/2000/svg">
<rect y="13.0898" width="176.689" height="42.0317" rx="7.00528" fill="#111111"/>
<path d="M14.0004 41.1055L19.1812 26.9392H22.2775L27.438 41.1055H24.5441L20.7192 30.0558L16.8741 41.1055H14.0004ZM16.2872 37.8877L17.0157 35.7628H24.2203L24.9286 37.8877H16.2872ZM28.7127 41.1055V26.9392H31.4447V41.1055H28.7127ZM48.4809 41.1055L40.7907 33.4557C40.1701 32.8351 39.7316 32.2752 39.4752 31.776C39.2189 31.2633 39.0907 30.7236 39.0907 30.157C39.0907 29.5094 39.2526 28.9225 39.5764 28.3963C39.9002 27.8702 40.3724 27.4587 40.993 27.1618C41.6272 26.8515 42.3827 26.6964 43.2596 26.6964C44.1366 26.6964 44.8719 26.8583 45.4655 27.1821C46.0727 27.5059 46.5314 27.9309 46.8417 28.457C47.1655 28.9832 47.3206 29.5768 47.3071 30.2379H44.6965C44.6965 29.7522 44.5548 29.388 44.2715 29.1451C43.9882 28.9023 43.6374 28.7808 43.2192 28.7808C42.7605 28.7808 42.3894 28.909 42.1061 29.1654C41.8363 29.4082 41.7014 29.732 41.7014 30.1368C41.7014 30.4606 41.8025 30.7978 42.0049 31.1486C42.2073 31.4994 42.5176 31.8907 42.9358 32.3224L51.7391 41.1055H48.4809ZM42.3287 41.3281C41.2899 41.3281 40.3859 41.1527 39.6169 40.8019C38.8614 40.4376 38.2745 39.9317 37.8562 39.2841C37.438 38.6365 37.2289 37.8742 37.2289 36.9973C37.2289 36.3227 37.3705 35.6953 37.6539 35.1152C37.9372 34.5215 38.3622 34.0021 38.9288 33.5569C39.4955 33.0982 40.197 32.7339 41.0335 32.4641L42.0656 32.1403L43.2596 33.8402L42.3287 34.1438C41.5057 34.4136 40.8919 34.7779 40.4871 35.2366C40.0959 35.6953 39.9002 36.2282 39.9002 36.8354C39.9002 37.2536 40.0014 37.6381 40.2038 37.9889C40.4062 38.3262 40.703 38.596 41.0942 38.7984C41.4855 39.0008 41.9442 39.102 42.4704 39.102C43.1989 39.102 43.8533 38.9401 44.4334 38.6163C45.0136 38.2925 45.5735 37.773 46.1131 37.058C46.356 36.7342 46.5988 36.3699 46.8417 35.9651C47.0845 35.5604 47.3274 35.1084 47.5702 34.6092L47.9952 33.739H50.7678L50.0797 35.1354C49.7424 35.837 49.3983 36.4778 49.0476 37.058C48.6968 37.6381 48.3325 38.1508 47.9547 38.596C47.1857 39.5539 46.3425 40.2487 45.4251 40.6805C44.5211 41.1122 43.489 41.3281 42.3287 41.3281ZM57.2154 41.1055V26.9392H60.4737L64.8045 35.783L69.0948 26.9392H72.3531V41.1055H69.621V31.5939L65.8771 39.1222H63.7117L59.9475 31.5939V41.1055H57.2154ZM79.3096 41.3483C78.3382 41.3483 77.4612 41.1257 76.6787 40.6805C75.9097 40.2218 75.2958 39.5944 74.8371 38.7984C74.3918 37.9889 74.1692 37.0647 74.1692 36.0259C74.1692 34.96 74.3918 34.0291 74.8371 33.2331C75.2958 32.4236 75.9164 31.7962 76.6989 31.351C77.4814 30.8923 78.3584 30.6629 79.3298 30.6629C80.3147 30.6629 81.1916 30.8923 81.9607 31.351C82.7432 31.7962 83.3571 32.4236 83.8023 33.2331C84.261 34.0291 84.4904 34.9533 84.4904 36.0056C84.4904 37.058 84.261 37.9889 83.8023 38.7984C83.3571 39.5944 82.7432 40.2218 81.9607 40.6805C81.1781 41.1257 80.2944 41.3483 79.3096 41.3483ZM79.3096 38.9805C79.7683 38.9805 80.173 38.8726 80.5238 38.6567C80.8881 38.4409 81.1714 38.1103 81.3738 37.6651C81.5896 37.2199 81.6976 36.6667 81.6976 36.0056C81.6976 35.3445 81.5896 34.7981 81.3738 34.3664C81.1714 33.9212 80.8881 33.5906 80.5238 33.3748C80.173 33.1454 79.775 33.0307 79.3298 33.0307C78.8981 33.0307 78.5001 33.1454 78.1358 33.3748C77.7715 33.5906 77.4814 33.9212 77.2656 34.3664C77.0632 34.7981 76.962 35.3445 76.962 36.0056C76.962 36.6667 77.0632 37.2199 77.2656 37.6651C77.4814 38.1103 77.7648 38.4409 78.1155 38.6567C78.4798 38.8726 78.8778 38.9805 79.3096 38.9805ZM92.2889 41.3483C91.7627 41.3483 91.2905 41.2809 90.8723 41.1459C90.4675 41.011 90.1033 40.8289 89.7795 40.5995C89.4691 40.3567 89.2061 40.0868 88.9902 39.79L88.6866 41.1055H86.2581V26.5345H88.9902V32.3224C89.314 31.8502 89.739 31.4589 90.2652 31.1486C90.8048 30.8248 91.4727 30.6629 92.2687 30.6629C93.2131 30.6629 94.0496 30.899 94.7781 31.3712C95.5202 31.83 96.1003 32.4641 96.5185 33.2736C96.9503 34.0696 97.1661 34.987 97.1661 36.0259C97.1661 37.0377 96.9503 37.9484 96.5185 38.7579C96.1003 39.5674 95.5269 40.2015 94.7983 40.6602C94.0698 41.119 93.2333 41.3483 92.2889 41.3483ZM91.6413 38.9603C92.181 38.9603 92.6532 38.8389 93.0579 38.596C93.4762 38.3397 93.8 37.9956 94.0293 37.5639C94.2587 37.1187 94.3734 36.606 94.3734 36.0259C94.3734 35.4457 94.2587 34.933 94.0293 34.4878C93.8 34.0291 93.4762 33.6783 93.0579 33.4355C92.6532 33.1791 92.181 33.051 91.6413 33.051C91.1151 33.051 90.6429 33.1791 90.2247 33.4355C89.8199 33.6783 89.4961 34.0223 89.2533 34.4676C89.0239 34.9128 88.9092 35.4255 88.9092 36.0056C88.9092 36.5858 89.0239 37.1052 89.2533 37.5639C89.4961 38.0091 89.8199 38.3532 90.2247 38.596C90.6429 38.8389 91.1151 38.9603 91.6413 38.9603ZM98.993 41.1055V30.9058H101.725V41.1055H98.993ZM100.369 29.5094C99.8835 29.5094 99.4787 29.3677 99.1549 29.0844C98.8446 28.7876 98.6895 28.4166 98.6895 27.9713C98.6895 27.5261 98.8446 27.1618 99.1549 26.8785C99.4787 26.5817 99.8835 26.4333 100.369 26.4333C100.868 26.4333 101.273 26.5817 101.583 26.8785C101.907 27.1618 102.069 27.5261 102.069 27.9713C102.069 28.4166 101.907 28.7876 101.583 29.0844C101.273 29.3677 100.868 29.5094 100.369 29.5094ZM103.899 41.1055V26.5345H106.631V41.1055H103.899ZM108.768 41.1055V30.9058H111.5V41.1055H108.768ZM110.144 29.5094C109.659 29.5094 109.254 29.3677 108.93 29.0844C108.62 28.7876 108.464 28.4166 108.464 27.9713C108.464 27.5261 108.62 27.1618 108.93 26.8785C109.254 26.5817 109.659 26.4333 110.144 26.4333C110.643 26.4333 111.048 26.5817 111.358 26.8785C111.682 27.1618 111.844 27.5261 111.844 27.9713C111.844 28.4166 111.682 28.7876 111.358 29.0844C111.048 29.3677 110.643 29.5094 110.144 29.5094ZM118.268 41.1055C117.553 41.1055 116.925 40.9975 116.386 40.7817C115.86 40.5523 115.448 40.1813 115.151 39.6686C114.854 39.1424 114.706 38.4274 114.706 37.5234V33.1926H112.966V30.9058H114.706L115.01 28.1332H117.438V30.9058H120.13V33.1926H117.438V37.5639C117.438 38.0226 117.539 38.3397 117.742 38.5151C117.944 38.6905 118.288 38.7782 118.774 38.7782H120.109V41.1055H118.268ZM123.137 45.5577L125.606 39.9722H124.999L120.911 30.9058H123.886L126.8 37.483L129.431 30.9058H132.325L126.031 45.5577H123.137ZM143.19 41.3483C142.151 41.3483 141.207 41.1392 140.357 40.721C139.507 40.3027 138.832 39.6754 138.333 38.8389C137.834 38.0024 137.584 36.9365 137.584 35.6413V26.9392H140.316V35.6616C140.316 36.3632 140.431 36.9568 140.66 37.4425C140.89 37.9147 141.22 38.2655 141.652 38.4948C142.097 38.7242 142.623 38.8389 143.23 38.8389C143.851 38.8389 144.377 38.7242 144.809 38.4948C145.254 38.2655 145.591 37.9147 145.821 37.4425C146.05 36.9568 146.165 36.3632 146.165 35.6616V26.9392H148.897V35.6413C148.897 36.9365 148.641 38.0024 148.128 38.8389C147.615 39.6754 146.92 40.3027 146.043 40.721C145.18 41.1392 144.229 41.3483 143.19 41.3483ZM150.244 41.1055L154.717 33.9212L150.183 26.9392H153.34L156.457 31.776L159.311 26.9392H162.387L157.955 34.0426L162.508 41.1055H159.351L156.214 36.1878L153.34 41.1055H150.244Z" fill="#F4F1EC"/>
<path d="M82.7001 4.04325C82.7001 2.70952 81.1325 1.99335 80.1242 2.86649L66.9822 14.2479C65.8927 15.1915 66.56 16.9814 68.0013 16.9814L81.1435 16.9814C82.0032 16.9814 82.7002 16.2844 82.7002 15.4247L82.7001 4.04325Z" fill="#111111"/>
</svg>
