<svg width="197" height="316" viewBox="0 0 197 316" fill="none" xmlns="http://www.w3.org/2000/svg">
<path d="M4.46033 242.576C4.46033 242.576 15.383 248.224 22.9035 248.653C36.6671 249.439 46.535 246.958 57.6599 236.622C63.5534 229.07 70.8152 218.028 64.2925 208.941C52.8048 195.543 38.8293 208.945 35.3389 219.035C30.6851 232.488 32.0863 242.755 36.1185 252.981C47.5186 281.944 87.3315 332.394 155.382 302.494C175.062 293.847 198.024 273.292 189.462 248.653C171.56 208.941 149.376 228.147 99.9502 200.904C74.5085 186.881 61.6246 158.324 60.4007 147.975C52.7793 107.92 91.3104 37.0584 192.186 4.36712" stroke="black" stroke-width="7.78365" stroke-linecap="round"/>
</svg>
