<svg width="123" height="55" viewBox="0 0 123 55" fill="none" xmlns="http://www.w3.org/2000/svg">
<rect x="0.772095" y="0.181152" width="121.425" height="42.0317" rx="7.00528" fill="#111111"/>
<path d="M18.9304 28.4396C18.0804 28.4396 17.3788 28.3047 16.8257 28.0349C16.2725 27.7516 15.861 27.3805 15.5912 26.9218C15.3348 26.4496 15.2067 25.9302 15.2067 25.3635C15.2067 24.7429 15.3618 24.1965 15.6721 23.7243C15.9959 23.2521 16.4749 22.8811 17.109 22.6112C17.7566 22.3414 18.5661 22.2065 19.5375 22.2065H22.0672C22.0672 21.7073 21.9997 21.2958 21.8648 20.972C21.7299 20.6347 21.5208 20.3851 21.2374 20.2232C20.9541 20.0613 20.5764 19.9804 20.1041 19.9804C19.5915 19.9804 19.153 20.095 18.7887 20.3244C18.4379 20.5403 18.2221 20.8776 18.1411 21.3363H15.49C15.5575 20.6077 15.7936 19.9804 16.1983 19.4542C16.6166 18.9145 17.163 18.4963 17.8375 18.1995C18.5256 17.9026 19.2879 17.7542 20.1244 17.7542C21.0823 17.7542 21.912 17.9161 22.6136 18.2399C23.3152 18.5637 23.8548 19.0292 24.2326 19.6363C24.6104 20.2434 24.7992 20.9922 24.7992 21.8827V28.1968H22.4922L22.1886 26.6385C22.0402 26.9083 21.8648 27.1512 21.6624 27.367C21.4601 27.5829 21.224 27.7718 20.9541 27.9337C20.6843 28.0956 20.3807 28.217 20.0434 28.298C19.7061 28.3924 19.3351 28.4396 18.9304 28.4396ZM19.578 26.3349C19.9288 26.3349 20.2391 26.2742 20.5089 26.1528C20.7922 26.0179 21.0351 25.8425 21.2374 25.6266C21.4398 25.3973 21.595 25.1409 21.7029 24.8576C21.8243 24.5608 21.9053 24.2437 21.9458 23.9064V23.8862H19.8613C19.4431 23.8862 19.099 23.9402 18.8292 24.0481C18.5728 24.1425 18.384 24.2842 18.2625 24.4731C18.1411 24.662 18.0804 24.8778 18.0804 25.1207C18.0804 25.3905 18.1411 25.6131 18.2625 25.7885C18.384 25.9639 18.5593 26.0988 18.7887 26.1933C19.0181 26.2877 19.2812 26.3349 19.578 26.3349ZM26.761 28.1968V17.9971H29.1895L29.4526 19.8792C29.6954 19.4339 29.999 19.0562 30.3633 18.7459C30.741 18.4356 31.166 18.1927 31.6382 18.0173C32.1239 17.8419 32.6569 17.7542 33.237 17.7542V20.6482H32.3061C31.9013 20.6482 31.5236 20.6954 31.1728 20.7899C30.8355 20.8843 30.5387 21.0395 30.2823 21.2553C30.026 21.4577 29.8304 21.741 29.6954 22.1053C29.5605 22.4696 29.4931 22.9283 29.4931 23.4814V28.1968H26.761ZM39.0488 28.1968C38.3337 28.1968 37.7064 28.0888 37.1667 27.873C36.6405 27.6436 36.229 27.2726 35.9322 26.7599C35.6354 26.2337 35.487 25.5187 35.487 24.6147V20.2839H33.7466V17.9971H35.487L35.7906 15.2246H38.2191V17.9971H40.9106V20.2839H38.2191V24.6552C38.2191 25.1139 38.3202 25.431 38.5226 25.6064C38.725 25.7818 39.069 25.8695 39.5547 25.8695H40.8904V28.1968H39.0488ZM51.393 28.1968C50.678 28.1968 50.0506 28.0888 49.5109 27.873C48.9848 27.6436 48.5733 27.2726 48.2765 26.7599C47.9796 26.2337 47.8312 25.5187 47.8312 24.6147V20.2839H46.0908V17.9971H47.8312L48.1348 15.2246H50.5633V17.9971H53.2549V20.2839H50.5633V24.6552C50.5633 25.1139 50.6645 25.431 50.8669 25.6064C51.0692 25.7818 51.4133 25.8695 51.899 25.8695H53.2346V28.1968H51.393ZM54.9673 28.1968V13.6258H57.6994V19.5149C58.0367 18.9752 58.4819 18.5502 59.035 18.2399C59.6017 17.9161 60.256 17.7542 60.9981 17.7542C61.8481 17.7542 62.5631 17.9364 63.1433 18.3006C63.7234 18.6514 64.1619 19.1641 64.4587 19.8387C64.7555 20.5133 64.9039 21.3498 64.9039 22.3481V28.1968H62.1921V22.591C62.1921 21.7815 62.0235 21.1609 61.6862 20.7291C61.3489 20.2839 60.8159 20.0613 60.0874 20.0613C59.6422 20.0613 59.2374 20.1692 58.8731 20.3851C58.5089 20.601 58.2188 20.918 58.0029 21.3363C57.8006 21.741 57.6994 22.2267 57.6994 22.7934V28.1968H54.9673ZM71.788 28.4396C70.7626 28.4396 69.8519 28.2238 69.0559 27.792C68.2734 27.3468 67.6595 26.7329 67.2143 25.9504C66.7826 25.1544 66.5667 24.237 66.5667 23.1981C66.5667 22.1323 66.7826 21.1946 67.2143 20.3851C67.6595 19.5621 68.2734 18.9213 69.0559 18.4625C69.8384 17.9903 70.7491 17.7542 71.788 17.7542C72.7999 17.7542 73.6836 17.9768 74.4391 18.4221C75.1946 18.8673 75.7815 19.4677 76.1998 20.2232C76.618 20.9787 76.8271 21.8355 76.8271 22.7934C76.8271 22.9283 76.8271 23.0834 76.8271 23.2588C76.8271 23.4207 76.8136 23.5894 76.7866 23.7648H68.5095V22.1053H74.0748C74.0343 21.4442 73.7982 20.9248 73.3665 20.547C72.9483 20.1692 72.4221 19.9804 71.788 19.9804C71.3293 19.9804 70.9043 20.0883 70.513 20.3042C70.1218 20.5065 69.8115 20.8236 69.5821 21.2553C69.3662 21.6871 69.2583 22.2335 69.2583 22.8946V23.4814C69.2583 24.0346 69.3595 24.5203 69.5619 24.9385C69.7777 25.3433 70.0745 25.6603 70.4523 25.8897C70.8301 26.1056 71.2686 26.2135 71.7677 26.2135C72.2669 26.2135 72.6784 26.1056 73.0022 25.8897C73.3395 25.6738 73.5891 25.3973 73.751 25.06H76.5438C76.3549 25.6941 76.0379 26.2675 75.5926 26.7802C75.1474 27.2928 74.601 27.6976 73.9534 27.9944C73.3058 28.2912 72.584 28.4396 71.788 28.4396ZM83.2943 28.4396C82.3229 28.4396 81.4459 28.217 80.6634 27.7718C79.8944 27.3131 79.2805 26.6857 78.8218 25.8897C78.3765 25.0802 78.1539 24.156 78.1539 23.1172C78.1539 22.0513 78.3765 21.1204 78.8218 20.3244C79.2805 19.5149 79.9011 18.8875 80.6836 18.4423C81.4661 17.9836 82.3431 17.7542 83.3145 17.7542C84.2994 17.7542 85.1763 17.9836 85.9454 18.4423C86.7279 18.8875 87.3418 19.5149 87.787 20.3244C88.2457 21.1204 88.4751 22.0446 88.4751 23.0969C88.4751 24.1493 88.2457 25.0802 87.787 25.8897C87.3418 26.6857 86.7279 27.3131 85.9454 27.7718C85.1629 28.217 84.2791 28.4396 83.2943 28.4396ZM83.2943 26.0718C83.753 26.0718 84.1577 25.9639 84.5085 25.748C84.8728 25.5322 85.1561 25.2016 85.3585 24.7564C85.5743 24.3112 85.6823 23.758 85.6823 23.0969C85.6823 22.4358 85.5743 21.8894 85.3585 21.4577C85.1561 21.0125 84.8728 20.6819 84.5085 20.4661C84.1577 20.2367 83.7597 20.122 83.3145 20.122C82.8828 20.122 82.4848 20.2367 82.1205 20.4661C81.7562 20.6819 81.4661 21.0125 81.2503 21.4577C81.0479 21.8894 80.9467 22.4358 80.9467 23.0969C80.9467 23.758 81.0479 24.3112 81.2503 24.7564C81.4661 25.2016 81.7495 25.5322 82.1002 25.748C82.4645 25.9639 82.8625 26.0718 83.2943 26.0718ZM90.2428 28.1968V17.9971H92.6713L92.9344 19.8792C93.1773 19.4339 93.4808 19.0562 93.8451 18.7459C94.2229 18.4356 94.6478 18.1927 95.1201 18.0173C95.6058 17.8419 96.1387 17.7542 96.7188 17.7542V20.6482H95.7879C95.3831 20.6482 95.0054 20.6954 94.6546 20.7899C94.3173 20.8843 94.0205 21.0395 93.7641 21.2553C93.5078 21.4577 93.3122 21.741 93.1773 22.1053C93.0423 22.4696 92.9749 22.9283 92.9749 23.4814V28.1968H90.2428ZM99.2319 32.649L101.701 27.0635H101.094L97.0058 17.9971H99.9807L102.895 24.5743L105.526 17.9971H108.42L102.126 32.649H99.2319Z" fill="#F4F1EC"/>
<path d="M17.8961 51.259C17.8961 52.5927 19.4637 53.3089 20.4719 52.4358L33.614 41.0544C34.7035 40.1108 34.0362 38.3208 32.5949 38.3208L19.4527 38.3209C18.593 38.3209 17.896 39.0178 17.896 39.8776L17.8961 51.259Z" fill="#111111"/>
</svg>
