<svg width="236" height="370" viewBox="0 0 236 370" fill="none" xmlns="http://www.w3.org/2000/svg">
<path d="M229.777 304.27C205.149 332.337 179.739 355.645 141.629 363.266C112.643 369.062 87.5085 366.472 62.7444 350.124C37.6118 333.532 25.5694 308.7 22.0114 277.392C21.5202 258.603 23.2768 238.854 28.5648 220.758C35.5651 196.802 49.4941 174.936 63.9794 154.874C82.4367 129.312 107.185 110.395 139.83 109.892C159.165 109.594 185.092 116.336 197.739 132.295C201.828 137.456 203.672 148.052 201.34 153.827C195.605 168.03 183.232 173.046 168.212 176.737C136.108 184.628 98.8929 164.009 80.3994 137.789C67.2371 119.129 62.0201 98.5232 63.2407 76.0564C64.4256 54.2478 73.1261 20.6626 50.063 6.61752C33.6852 -3.3563 9.31847 17.3538 5.25504 32.8405" stroke="black" stroke-width="7.78365" stroke-linecap="square"/>
</svg>
