<svg width="95" height="59" viewBox="0 0 95 59" fill="none" xmlns="http://www.w3.org/2000/svg">
<rect x="0.693848" y="16.9604" width="93.4038" height="42.0317" rx="7.00528" fill="#111111"/>
<path d="M20.1119 45.2189C19.181 45.2189 18.3445 44.9896 17.6025 44.5308C16.8739 44.0721 16.3005 43.438 15.8823 42.6285C15.464 41.819 15.2549 40.9083 15.2549 39.8965C15.2549 38.8576 15.464 37.9402 15.8823 37.1442C16.314 36.3347 16.9009 35.7006 17.6429 35.2418C18.3985 34.7696 19.2417 34.5335 20.1726 34.5335C20.9012 34.5335 21.542 34.6684 22.0952 34.9383C22.6483 35.2081 23.0936 35.5926 23.4309 36.0918V30.4051H26.1629V44.9761H23.7344L23.4309 43.5797C23.2285 43.863 22.9721 44.1328 22.6618 44.3892C22.365 44.6455 22.0075 44.8479 21.5892 44.9963C21.171 45.1447 20.6786 45.2189 20.1119 45.2189ZM20.7595 42.8309C21.2992 42.8309 21.7714 42.7095 22.1761 42.4666C22.5944 42.2103 22.9182 41.8595 23.1475 41.4143C23.3769 40.9691 23.4916 40.4564 23.4916 39.8762C23.4916 39.2961 23.3769 38.7834 23.1475 38.3382C22.9182 37.893 22.5944 37.5489 22.1761 37.3061C21.7714 37.0497 21.2992 36.9216 20.7595 36.9216C20.2468 36.9216 19.7814 37.0497 19.3631 37.3061C18.9449 37.5489 18.6143 37.893 18.3715 38.3382C18.1421 38.7834 18.0275 39.2893 18.0275 39.856C18.0275 40.4496 18.1421 40.9691 18.3715 41.4143C18.6143 41.8595 18.9381 42.2103 19.3429 42.4666C19.7611 42.7095 20.2333 42.8309 20.7595 42.8309ZM33.7373 45.2189C32.7119 45.2189 31.8012 45.0031 31.0052 44.5713C30.2227 44.1261 29.6088 43.5122 29.1636 42.7297C28.7319 41.9337 28.516 41.0163 28.516 39.9774C28.516 38.9116 28.7319 37.9739 29.1636 37.1644C29.6088 36.3414 30.2227 35.7006 31.0052 35.2418C31.7877 34.7696 32.6984 34.5335 33.7373 34.5335C34.7491 34.5335 35.6328 34.7561 36.3884 35.2014C37.1439 35.6466 37.7308 36.247 38.149 37.0025C38.5673 37.758 38.7764 38.6148 38.7764 39.5727C38.7764 39.7076 38.7764 39.8627 38.7764 40.0381C38.7764 40.2 38.7629 40.3687 38.7359 40.5441H30.4588V38.8846H36.0241C35.9836 38.2235 35.7475 37.7041 35.3158 37.3263C34.8976 36.9485 34.3714 36.7597 33.7373 36.7597C33.2786 36.7597 32.8536 36.8676 32.4623 37.0835C32.0711 37.2858 31.7607 37.6029 31.5314 38.0346C31.3155 38.4664 31.2076 39.0128 31.2076 39.6739V40.2607C31.2076 40.8139 31.3088 41.2996 31.5111 41.7178C31.727 42.1226 32.0238 42.4396 32.4016 42.669C32.7794 42.8849 33.2178 42.9928 33.717 42.9928C34.2162 42.9928 34.6277 42.8849 34.9515 42.669C35.2888 42.4531 35.5384 42.1766 35.7003 41.8393H38.4931C38.3042 42.4734 37.9871 43.0468 37.5419 43.5595C37.0967 44.0721 36.5503 44.4769 35.9027 44.7737C35.2551 45.0705 34.5333 45.2189 33.7373 45.2189ZM45.1828 45.2189C44.2519 45.2189 43.4424 45.0705 42.7543 44.7737C42.0663 44.4769 41.5266 44.0654 41.1353 43.5392C40.7441 43.013 40.5215 42.4194 40.4675 41.7583H43.1793C43.2468 42.0147 43.3615 42.2508 43.5234 42.4666C43.6853 42.669 43.9011 42.8309 44.171 42.9523C44.4408 43.0738 44.7646 43.1345 45.1424 43.1345C45.5066 43.1345 45.8034 43.0872 46.0328 42.9928C46.2622 42.8849 46.4308 42.7432 46.5387 42.5678C46.6602 42.3924 46.7209 42.2103 46.7209 42.0214C46.7209 41.7381 46.6399 41.5222 46.478 41.3738C46.3161 41.2119 46.08 41.0837 45.7697 40.9893C45.4594 40.8948 45.0816 40.8004 44.6364 40.706C44.1507 40.6115 43.6718 40.4968 43.1996 40.3619C42.7408 40.2135 42.3293 40.0314 41.9651 39.8155C41.6008 39.5996 41.3107 39.3231 41.0949 38.9858C40.879 38.6485 40.7711 38.2302 40.7711 37.7311C40.7711 37.1239 40.933 36.5843 41.2568 36.1121C41.5806 35.6264 42.0528 35.2418 42.6734 34.9585C43.294 34.6752 44.0428 34.5335 44.9197 34.5335C46.1475 34.5335 47.1189 34.8101 47.8339 35.3633C48.549 35.9164 48.974 36.6787 49.1089 37.6501H46.5387C46.4578 37.3398 46.2757 37.0969 45.9923 36.9216C45.7225 36.7327 45.3582 36.6382 44.8995 36.6382C44.4138 36.6382 44.0428 36.7259 43.7864 36.9013C43.5301 37.0767 43.4019 37.3061 43.4019 37.5894C43.4019 37.7783 43.4829 37.9469 43.6448 38.0953C43.8202 38.2437 44.063 38.3719 44.3733 38.4798C44.6836 38.5743 45.0614 38.6687 45.5066 38.7632C46.2891 38.9251 46.9772 39.1139 47.5709 39.3298C48.1645 39.5322 48.63 39.829 48.9672 40.2203C49.3045 40.598 49.4732 41.1512 49.4732 41.8797C49.4732 42.5273 49.2978 43.1075 48.947 43.6202C48.5962 44.1194 48.097 44.5106 47.4494 44.7939C46.8153 45.0773 46.0598 45.2189 45.1828 45.2189ZM51.8455 44.9761V34.7764H54.5776V44.9761H51.8455ZM53.2217 33.38C52.736 33.38 52.3312 33.2383 52.0074 32.955C51.6971 32.6582 51.542 32.2872 51.542 31.8419C51.542 31.3967 51.6971 31.0324 52.0074 30.7491C52.3312 30.4523 52.736 30.3039 53.2217 30.3039C53.7209 30.3039 54.1256 30.4523 54.4359 30.7491C54.7597 31.0324 54.9216 31.3967 54.9216 31.8419C54.9216 32.2872 54.7597 32.6582 54.4359 32.955C54.1256 33.2383 53.7209 33.38 53.2217 33.38ZM61.7298 49.6712C60.7584 49.6712 59.9084 49.5497 59.1799 49.3069C58.4513 49.0775 57.8847 48.72 57.4799 48.2343C57.0887 47.7621 56.8931 47.1752 56.8931 46.4736C56.8931 46.0014 57.0145 45.5562 57.2573 45.138C57.5002 44.7197 57.851 44.342 58.3097 44.0047C58.7819 43.6539 59.3688 43.3571 60.0703 43.1142L61.1025 44.4499C60.4818 44.6523 60.0299 44.9019 59.7465 45.1987C59.4767 45.509 59.3418 45.8395 59.3418 46.1903C59.3418 46.5006 59.443 46.7637 59.6454 46.9796C59.8612 47.1955 60.1446 47.3506 60.4953 47.445C60.8596 47.553 61.2644 47.6069 61.7096 47.6069C62.1413 47.6069 62.5123 47.553 62.8226 47.445C63.1464 47.3371 63.396 47.1752 63.5714 46.9593C63.7603 46.757 63.8548 46.5141 63.8548 46.2308C63.8548 45.8665 63.7266 45.5697 63.4702 45.3403C63.2139 45.111 62.7012 44.9693 61.9322 44.9154C61.2441 44.8614 60.6303 44.7872 60.0906 44.6927C59.5644 44.5848 59.0989 44.4634 58.6942 44.3285C58.2894 44.1801 57.9454 44.0182 57.6621 43.8428C57.3923 43.6674 57.1696 43.492 56.9942 43.3166V42.8511L59.1597 40.5238L61.1227 41.1512L58.5728 43.6606L59.3418 42.325C59.4902 42.4059 59.6319 42.4869 59.7668 42.5678C59.9152 42.6353 60.0973 42.7027 60.3132 42.7702C60.5291 42.8242 60.8124 42.8781 61.1632 42.9321C61.514 42.9861 61.9592 43.0333 62.4988 43.0738C63.3893 43.1547 64.1178 43.3233 64.6845 43.5797C65.2646 43.836 65.6896 44.1801 65.9595 44.6118C66.2293 45.03 66.3642 45.5495 66.3642 46.1701C66.3642 46.7772 66.1956 47.3439 65.8583 47.87C65.5345 48.4097 65.0285 48.8414 64.3405 49.1652C63.6524 49.5025 62.7822 49.6712 61.7298 49.6712ZM61.7298 41.9607C60.8798 41.9607 60.1446 41.7988 59.5239 41.475C58.9168 41.1377 58.4446 40.6925 58.1073 40.1393C57.7835 39.5727 57.6216 38.9453 57.6216 38.2572C57.6216 37.5692 57.7835 36.9485 58.1073 36.3954C58.4446 35.8287 58.9168 35.3768 59.5239 35.0395C60.1446 34.7022 60.8798 34.5335 61.7298 34.5335C62.5933 34.5335 63.3286 34.7022 63.9357 35.0395C64.5563 35.3768 65.0285 35.8287 65.3523 36.3954C65.6761 36.9485 65.838 37.5692 65.838 38.2572C65.838 38.9453 65.6761 39.5727 65.3523 40.1393C65.0285 40.6925 64.5563 41.1377 63.9357 41.475C63.3286 41.7988 62.5933 41.9607 61.7298 41.9607ZM61.7298 39.8762C62.256 39.8762 62.681 39.7413 63.0048 39.4715C63.3286 39.2016 63.4905 38.8036 63.4905 38.2775C63.4905 37.7513 63.3286 37.3533 63.0048 37.0835C62.681 36.8001 62.256 36.6585 61.7298 36.6585C61.2171 36.6585 60.7922 36.8001 60.4549 37.0835C60.1311 37.3533 59.9692 37.7513 59.9692 38.2775C59.9692 38.8036 60.1311 39.2016 60.4549 39.4715C60.7922 39.7413 61.2171 39.8762 61.7298 39.8762ZM63.4298 36.7192L62.9845 34.7764H67.1737V36.3954L63.4298 36.7192ZM69.3938 44.9761V34.7764H71.8021L72.0045 36.4359C72.3148 35.8692 72.7532 35.4105 73.3199 35.0597C73.9 34.7089 74.5881 34.5335 75.3841 34.5335C76.2341 34.5335 76.9491 34.7089 77.5293 35.0597C78.1094 35.4105 78.5479 35.9232 78.8447 36.5978C79.155 37.2723 79.3102 38.1021 79.3102 39.087V44.9761H76.5984V39.3501C76.5984 38.5406 76.423 37.9199 76.0722 37.4882C75.7349 37.0565 75.2087 36.8406 74.4937 36.8406C74.0349 36.8406 73.6235 36.9485 73.2592 37.1644C72.9084 37.3803 72.6318 37.6906 72.4294 38.0953C72.2271 38.4866 72.1259 38.9655 72.1259 39.5322V44.9761H69.3938Z" fill="#F4F1EC"/>
<path d="M65.2998 19.7807C63.9661 19.7807 63.2499 18.213 64.1231 17.2048L75.5045 4.06278C76.4481 2.97322 78.238 3.64055 78.238 5.0819L78.238 18.224C78.238 19.0838 77.541 19.7808 76.6812 19.7807L65.2998 19.7807Z" fill="#111111"/>
</svg>
