<svg width="220" height="54" viewBox="0 0 220 54" fill="none" xmlns="http://www.w3.org/2000/svg">
<rect x="0.257812" width="219.499" height="42.0317" rx="7.00528" fill="#111111"/>
<path d="M14.9843 28.0156V17.8159H17.7164V28.0156H14.9843ZM16.3605 16.4195C15.8748 16.4195 15.47 16.2779 15.1462 15.9946C14.8359 15.6977 14.6808 15.3267 14.6808 14.8815C14.6808 14.4363 14.8359 14.072 15.1462 13.7887C15.47 13.4919 15.8748 13.3435 16.3605 13.3435C16.8597 13.3435 17.2644 13.4919 17.5747 13.7887C17.8985 14.072 18.0604 14.4363 18.0604 14.8815C18.0604 15.3267 17.8985 15.6977 17.5747 15.9946C17.2644 16.2779 16.8597 16.4195 16.3605 16.4195ZM19.8902 28.0156V17.8159H22.2984L22.5008 19.4754C22.8111 18.9088 23.2496 18.45 23.8162 18.0993C24.3964 17.7485 25.0845 17.5731 25.8805 17.5731C26.7304 17.5731 27.4455 17.7485 28.0256 18.0993C28.6058 18.45 29.0443 18.9627 29.3411 19.6373C29.6514 20.3119 29.8065 21.1416 29.8065 22.1265V28.0156H27.0947V22.3896C27.0947 21.5801 26.9193 20.9595 26.5685 20.5278C26.2312 20.096 25.7051 19.8802 24.99 19.8802C24.5313 19.8802 24.1198 19.9881 23.7555 20.204C23.4047 20.4198 23.1282 20.7301 22.9258 21.1349C22.7234 21.5261 22.6222 22.0051 22.6222 22.5717V28.0156H19.8902ZM32.2591 28.0156V16.9052C32.2591 16.0553 32.4007 15.3807 32.684 14.8815C32.9674 14.3823 33.3721 14.018 33.8983 13.7887C34.438 13.5593 35.0653 13.4446 35.7804 13.4446H37.0351V15.7719H36.1851C35.7534 15.7719 35.4431 15.8596 35.2542 16.035C35.0788 16.1969 34.9911 16.487 34.9911 16.9052V28.0156H32.2591ZM30.8627 20.1028V17.8159H37.197V20.1028H30.8627ZM43.138 28.2585C42.1666 28.2585 41.2896 28.0359 40.5071 27.5906C39.7381 27.1319 39.1242 26.5046 38.6655 25.7086C38.2203 24.8991 37.9977 23.9749 37.9977 22.936C37.9977 21.8702 38.2203 20.9393 38.6655 20.1432C39.1242 19.3337 39.7448 18.7064 40.5273 18.2612C41.3099 17.8024 42.1868 17.5731 43.1582 17.5731C44.1431 17.5731 45.0201 17.8024 45.7891 18.2612C46.5716 18.7064 47.1855 19.3337 47.6307 20.1432C48.0894 20.9393 48.3188 21.8634 48.3188 22.9158C48.3188 23.9681 48.0894 24.8991 47.6307 25.7086C47.1855 26.5046 46.5716 27.1319 45.7891 27.5906C45.0066 28.0359 44.1229 28.2585 43.138 28.2585ZM43.138 25.8907C43.5967 25.8907 44.0014 25.7828 44.3522 25.5669C44.7165 25.351 44.9998 25.0205 45.2022 24.5753C45.4181 24.13 45.526 23.5769 45.526 22.9158C45.526 22.2547 45.4181 21.7083 45.2022 21.2765C44.9998 20.8313 44.7165 20.5008 44.3522 20.2849C44.0014 20.0555 43.6034 19.9409 43.1582 19.9409C42.7265 19.9409 42.3285 20.0555 41.9642 20.2849C41.5999 20.5008 41.3099 20.8313 41.094 21.2765C40.8916 21.7083 40.7904 22.2547 40.7904 22.9158C40.7904 23.5769 40.8916 24.13 41.094 24.5753C41.3099 25.0205 41.5932 25.351 41.944 25.5669C42.3082 25.7828 42.7062 25.8907 43.138 25.8907ZM50.0865 28.0156V17.8159H52.515L52.7781 19.698C53.021 19.2528 53.3245 18.875 53.6888 18.5647C54.0666 18.2544 54.4916 18.0116 54.9638 17.8362C55.4495 17.6608 55.9824 17.5731 56.5625 17.5731V20.467H55.6316C55.2269 20.467 54.8491 20.5143 54.4983 20.6087C54.161 20.7031 53.8642 20.8583 53.6079 21.0742C53.3515 21.2765 53.1559 21.5599 53.021 21.9241C52.8861 22.2884 52.8186 22.7471 52.8186 23.3003V28.0156H50.0865ZM57.7804 28.0156V17.8159H60.1887L60.4113 19.1718C60.7351 18.6861 61.1601 18.3016 61.6863 18.0183C62.2259 17.7215 62.8398 17.5731 63.5279 17.5731C64.0406 17.5731 64.4993 17.6405 64.904 17.7755C65.3088 17.9104 65.6663 18.106 65.9766 18.3623C66.3004 18.6187 66.5635 18.9425 66.7659 19.3337C67.1436 18.7806 67.6361 18.3489 68.2432 18.0385C68.8503 17.7282 69.5114 17.5731 70.2265 17.5731C71.1169 17.5731 71.859 17.7552 72.4526 18.1195C73.0462 18.4703 73.4915 18.983 73.7883 19.6575C74.0986 20.3321 74.2537 21.1619 74.2537 22.1468V28.0156H71.5419V22.3896C71.5419 21.5801 71.38 20.9595 71.0562 20.5278C70.7459 20.096 70.2602 19.8802 69.5991 19.8802C69.1674 19.8802 68.7829 19.9881 68.4456 20.204C68.1083 20.4198 67.8452 20.7301 67.6563 21.1349C67.4809 21.5396 67.3932 22.0253 67.3932 22.592V28.0156H64.6612V22.3896C64.6612 21.5801 64.4993 20.9595 64.1755 20.5278C63.8517 20.096 63.3525 19.8802 62.6779 19.8802C62.2597 19.8802 61.8819 19.9881 61.5446 20.204C61.2208 20.4198 60.9645 20.7301 60.7756 21.1349C60.6002 21.5396 60.5125 22.0253 60.5125 22.592V28.0156H57.7804ZM79.6856 28.2585C78.8356 28.2585 78.1341 28.1236 77.5809 27.8537C77.0277 27.5704 76.6163 27.1994 76.3464 26.7407C76.0901 26.2685 75.9619 25.749 75.9619 25.1824C75.9619 24.5618 76.1171 24.0153 76.4274 23.5431C76.7512 23.0709 77.2301 22.6999 77.8642 22.4301C78.5118 22.1602 79.3213 22.0253 80.2927 22.0253H82.8224C82.8224 21.5261 82.755 21.1146 82.62 20.7908C82.4851 20.4536 82.276 20.204 81.9927 20.0421C81.7094 19.8802 81.3316 19.7992 80.8594 19.7992C80.3467 19.7992 79.9082 19.9139 79.5439 20.1432C79.1932 20.3591 78.9773 20.6964 78.8963 21.1551H76.2452C76.3127 20.4266 76.5488 19.7992 76.9535 19.273C77.3718 18.7334 77.9182 18.3151 78.5928 18.0183C79.2809 17.7215 80.0431 17.5731 80.8796 17.5731C81.8375 17.5731 82.6673 17.735 83.3688 18.0588C84.0704 18.3826 84.6101 18.848 84.9878 19.4552C85.3656 20.0623 85.5545 20.8111 85.5545 21.7015V28.0156H83.2474L82.9438 26.4573C82.7954 26.7272 82.62 26.97 82.4177 27.1859C82.2153 27.4018 81.9792 27.5906 81.7094 27.7525C81.4395 27.9144 81.136 28.0359 80.7987 28.1168C80.4614 28.2113 80.0904 28.2585 79.6856 28.2585ZM80.3332 26.1538C80.684 26.1538 80.9943 26.0931 81.2641 25.9716C81.5475 25.8367 81.7903 25.6613 81.9927 25.4455C82.1951 25.2161 82.3502 24.9598 82.4581 24.6764C82.5796 24.3796 82.6605 24.0626 82.701 23.7253V23.705H80.6165C80.1983 23.705 79.8542 23.759 79.5844 23.8669C79.3281 23.9614 79.1392 24.103 79.0178 24.2919C78.8963 24.4808 78.8356 24.6967 78.8356 24.9395C78.8356 25.2094 78.8963 25.432 79.0178 25.6074C79.1392 25.7828 79.3146 25.9177 79.5439 26.0121C79.7733 26.1066 80.0364 26.1538 80.3332 26.1538ZM91.9916 28.0156C91.2765 28.0156 90.6492 27.9077 90.1095 27.6918C89.5833 27.4625 89.1718 27.0914 88.875 26.5788C88.5782 26.0526 88.4298 25.3375 88.4298 24.4336V20.1028H86.6894V17.8159H88.4298L88.7333 15.0434H91.1618V17.8159H93.8534V20.1028H91.1618V24.4741C91.1618 24.9328 91.263 25.2498 91.4654 25.4252C91.6678 25.6006 92.0118 25.6883 92.4975 25.6883H93.8332V28.0156H91.9916ZM95.6266 28.0156V17.8159H98.3586V28.0156H95.6266ZM97.0027 16.4195C96.517 16.4195 96.1123 16.2779 95.7885 15.9946C95.4782 15.6977 95.323 15.3267 95.323 14.8815C95.323 14.4363 95.4782 14.072 95.7885 13.7887C96.1123 13.4919 96.517 13.3435 97.0027 13.3435C97.5019 13.3435 97.9067 13.4919 98.217 13.7887C98.5408 14.072 98.7027 14.4363 98.7027 14.8815C98.7027 15.3267 98.5408 15.6977 98.217 15.9946C97.9067 16.2779 97.5019 16.4195 97.0027 16.4195ZM105.349 28.2585C104.378 28.2585 103.501 28.0359 102.718 27.5906C101.949 27.1319 101.335 26.5046 100.876 25.7086C100.431 24.8991 100.209 23.9749 100.209 22.936C100.209 21.8702 100.431 20.9393 100.876 20.1432C101.335 19.3337 101.956 18.7064 102.738 18.2612C103.521 17.8024 104.398 17.5731 105.369 17.5731C106.354 17.5731 107.231 17.8024 108 18.2612C108.783 18.7064 109.396 19.3337 109.842 20.1432C110.3 20.9393 110.53 21.8634 110.53 22.9158C110.53 23.9681 110.3 24.8991 109.842 25.7086C109.396 26.5046 108.783 27.1319 108 27.5906C107.218 28.0359 106.334 28.2585 105.349 28.2585ZM105.349 25.8907C105.808 25.8907 106.212 25.7828 106.563 25.5669C106.927 25.351 107.211 25.0205 107.413 24.5753C107.629 24.13 107.737 23.5769 107.737 22.9158C107.737 22.2547 107.629 21.7083 107.413 21.2765C107.211 20.8313 106.927 20.5008 106.563 20.2849C106.212 20.0555 105.814 19.9409 105.369 19.9409C104.937 19.9409 104.539 20.0555 104.175 20.2849C103.811 20.5008 103.521 20.8313 103.305 21.2765C103.103 21.7083 103.001 22.2547 103.001 22.9158C103.001 23.5769 103.103 24.13 103.305 24.5753C103.521 25.0205 103.804 25.351 104.155 25.5669C104.519 25.7828 104.917 25.8907 105.349 25.8907ZM112.298 28.0156V17.8159H114.706L114.908 19.4754C115.218 18.9088 115.657 18.45 116.224 18.0993C116.804 17.7485 117.492 17.5731 118.288 17.5731C119.138 17.5731 119.853 17.7485 120.433 18.0993C121.013 18.45 121.452 18.9627 121.748 19.6373C122.059 20.3119 122.214 21.1416 122.214 22.1265V28.0156H119.502V22.3896C119.502 21.5801 119.327 20.9595 118.976 20.5278C118.639 20.096 118.112 19.8802 117.397 19.8802C116.939 19.8802 116.527 19.9881 116.163 20.204C115.812 20.4198 115.536 20.7301 115.333 21.1349C115.131 21.5261 115.03 22.0051 115.03 22.5717V28.0156H112.298ZM132.546 28.2585C131.615 28.2585 130.805 28.1101 130.117 27.8133C129.429 27.5164 128.89 27.1049 128.498 26.5788C128.107 26.0526 127.885 25.459 127.831 24.7979H130.542C130.61 25.0542 130.725 25.2903 130.886 25.5062C131.048 25.7086 131.264 25.8705 131.534 25.9919C131.804 26.1133 132.128 26.174 132.505 26.174C132.87 26.174 133.167 26.1268 133.396 26.0324C133.625 25.9244 133.794 25.7828 133.902 25.6074C134.023 25.432 134.084 25.2498 134.084 25.061C134.084 24.7776 134.003 24.5618 133.841 24.4134C133.679 24.2515 133.443 24.1233 133.133 24.0288C132.822 23.9344 132.445 23.84 131.999 23.7455C131.514 23.6511 131.035 23.5364 130.563 23.4015C130.104 23.2531 129.692 23.0709 129.328 22.8551C128.964 22.6392 128.674 22.3626 128.458 22.0253C128.242 21.688 128.134 21.2698 128.134 20.7706C128.134 20.1635 128.296 19.6238 128.62 19.1516C128.944 18.6659 129.416 18.2814 130.036 17.9981C130.657 17.7147 131.406 17.5731 132.283 17.5731C133.511 17.5731 134.482 17.8497 135.197 18.4028C135.912 18.956 136.337 19.7183 136.472 20.6897H133.902C133.821 20.3793 133.639 20.1365 133.355 19.9611C133.086 19.7722 132.721 19.6778 132.263 19.6778C131.777 19.6778 131.406 19.7655 131.15 19.9409C130.893 20.1163 130.765 20.3456 130.765 20.6289C130.765 20.8178 130.846 20.9865 131.008 21.1349C131.183 21.2833 131.426 21.4115 131.736 21.5194C132.047 21.6138 132.424 21.7083 132.87 21.8027C133.652 21.9646 134.34 22.1535 134.934 22.3694C135.528 22.5717 135.993 22.8686 136.33 23.2598C136.668 23.6376 136.836 24.1907 136.836 24.9193C136.836 25.5669 136.661 26.147 136.31 26.6597C135.959 27.1589 135.46 27.5502 134.813 27.8335C134.178 28.1168 133.423 28.2585 132.546 28.2585ZM139.323 32.4679L141.792 26.8823H141.184L137.096 17.8159H140.071L142.986 24.3931L145.616 17.8159H148.51L142.217 32.4679H139.323ZM153.329 28.2585C152.398 28.2585 151.589 28.1101 150.9 27.8133C150.212 27.5164 149.673 27.1049 149.282 26.5788C148.89 26.0526 148.668 25.459 148.614 24.7979H151.325C151.393 25.0542 151.508 25.2903 151.67 25.5062C151.831 25.7086 152.047 25.8705 152.317 25.9919C152.587 26.1133 152.911 26.174 153.289 26.174C153.653 26.174 153.95 26.1268 154.179 26.0324C154.408 25.9244 154.577 25.7828 154.685 25.6074C154.806 25.432 154.867 25.2498 154.867 25.061C154.867 24.7776 154.786 24.5618 154.624 24.4134C154.462 24.2515 154.226 24.1233 153.916 24.0288C153.606 23.9344 153.228 23.84 152.783 23.7455C152.297 23.6511 151.818 23.5364 151.346 23.4015C150.887 23.2531 150.476 23.0709 150.111 22.8551C149.747 22.6392 149.457 22.3626 149.241 22.0253C149.025 21.688 148.917 21.2698 148.917 20.7706C148.917 20.1635 149.079 19.6238 149.403 19.1516C149.727 18.6659 150.199 18.2814 150.82 17.9981C151.44 17.7147 152.189 17.5731 153.066 17.5731C154.294 17.5731 155.265 17.8497 155.98 18.4028C156.695 18.956 157.12 19.7183 157.255 20.6897H154.685C154.604 20.3793 154.422 20.1365 154.138 19.9611C153.869 19.7722 153.504 19.6778 153.046 19.6778C152.56 19.6778 152.189 19.7655 151.933 19.9409C151.676 20.1163 151.548 20.3456 151.548 20.6289C151.548 20.8178 151.629 20.9865 151.791 21.1349C151.966 21.2833 152.209 21.4115 152.519 21.5194C152.83 21.6138 153.208 21.7083 153.653 21.8027C154.435 21.9646 155.123 22.1535 155.717 22.3694C156.311 22.5717 156.776 22.8686 157.113 23.2598C157.451 23.6376 157.619 24.1907 157.619 24.9193C157.619 25.5669 157.444 26.147 157.093 26.6597C156.742 27.1589 156.243 27.5502 155.596 27.8335C154.961 28.1168 154.206 28.2585 153.329 28.2585ZM163.622 28.0156C162.907 28.0156 162.279 27.9077 161.74 27.6918C161.214 27.4625 160.802 27.0914 160.505 26.5788C160.208 26.0526 160.06 25.3375 160.06 24.4336V20.1028H158.32V17.8159H160.06L160.364 15.0434H162.792V17.8159H165.484V20.1028H162.792V24.4741C162.792 24.9328 162.893 25.2498 163.096 25.4252C163.298 25.6006 163.642 25.6883 164.128 25.6883H165.463V28.0156H163.622ZM171.837 28.2585C170.811 28.2585 169.901 28.0426 169.105 27.6109C168.322 27.1657 167.708 26.5518 167.263 25.7693C166.831 24.9733 166.615 24.0558 166.615 23.017C166.615 21.9511 166.831 21.0135 167.263 20.204C167.708 19.381 168.322 18.7401 169.105 18.2814C169.887 17.8092 170.798 17.5731 171.837 17.5731C172.849 17.5731 173.732 17.7957 174.488 18.2409C175.243 18.6861 175.83 19.2865 176.248 20.0421C176.667 20.7976 176.876 21.6543 176.876 22.6122C176.876 22.7471 176.876 22.9023 176.876 23.0777C176.876 23.2396 176.862 23.4082 176.835 23.5836H168.558V21.9241H174.123C174.083 21.2631 173.847 20.7436 173.415 20.3659C172.997 19.9881 172.471 19.7992 171.837 19.7992C171.378 19.7992 170.953 19.9071 170.562 20.123C170.17 20.3254 169.86 20.6424 169.631 21.0742C169.415 21.5059 169.307 22.0523 169.307 22.7134V23.3003C169.307 23.8534 169.408 24.3391 169.611 24.7574C169.826 25.1621 170.123 25.4792 170.501 25.7086C170.879 25.9244 171.317 26.0324 171.816 26.0324C172.316 26.0324 172.727 25.9244 173.051 25.7086C173.388 25.4927 173.638 25.2161 173.8 24.8788H176.592C176.404 25.5129 176.087 26.0863 175.641 26.599C175.196 27.1117 174.65 27.5164 174.002 27.8133C173.354 28.1101 172.633 28.2585 171.837 28.2585ZM178.526 28.0156V17.8159H180.935L181.157 19.1718C181.481 18.6861 181.906 18.3016 182.432 18.0183C182.972 17.7215 183.586 17.5731 184.274 17.5731C184.787 17.5731 185.245 17.6405 185.65 17.7755C186.055 17.9104 186.412 18.106 186.723 18.3623C187.046 18.6187 187.309 18.9425 187.512 19.3337C187.89 18.7806 188.382 18.3489 188.989 18.0385C189.596 17.7282 190.257 17.5731 190.972 17.5731C191.863 17.5731 192.605 17.7552 193.199 18.1195C193.792 18.4703 194.237 18.983 194.534 19.6575C194.845 20.3321 195 21.1619 195 22.1468V28.0156H192.288V22.3896C192.288 21.5801 192.126 20.9595 191.802 20.5278C191.492 20.096 191.006 19.8802 190.345 19.8802C189.913 19.8802 189.529 19.9881 189.192 20.204C188.854 20.4198 188.591 20.7301 188.402 21.1349C188.227 21.5396 188.139 22.0253 188.139 22.592V28.0156H185.407V22.3896C185.407 21.5801 185.245 20.9595 184.921 20.5278C184.598 20.096 184.098 19.8802 183.424 19.8802C183.006 19.8802 182.628 19.9881 182.291 20.204C181.967 20.4198 181.71 20.7301 181.522 21.1349C181.346 21.5396 181.258 22.0253 181.258 22.592V28.0156H178.526ZM201.16 28.2585C200.229 28.2585 199.42 28.1101 198.732 27.8133C198.044 27.5164 197.504 27.1049 197.113 26.5788C196.721 26.0526 196.499 25.459 196.445 24.7979H199.157C199.224 25.0542 199.339 25.2903 199.501 25.5062C199.663 25.7086 199.878 25.8705 200.148 25.9919C200.418 26.1133 200.742 26.174 201.12 26.174C201.484 26.174 201.781 26.1268 202.01 26.0324C202.239 25.9244 202.408 25.7828 202.516 25.6074C202.637 25.432 202.698 25.2498 202.698 25.061C202.698 24.7776 202.617 24.5618 202.455 24.4134C202.293 24.2515 202.057 24.1233 201.747 24.0288C201.437 23.9344 201.059 23.84 200.614 23.7455C200.128 23.6511 199.649 23.5364 199.177 23.4015C198.718 23.2531 198.307 23.0709 197.942 22.8551C197.578 22.6392 197.288 22.3626 197.072 22.0253C196.856 21.688 196.748 21.2698 196.748 20.7706C196.748 20.1635 196.91 19.6238 197.234 19.1516C197.558 18.6659 198.03 18.2814 198.651 17.9981C199.271 17.7147 200.02 17.5731 200.897 17.5731C202.125 17.5731 203.096 17.8497 203.811 18.4028C204.526 18.956 204.951 19.7183 205.086 20.6897H202.516C202.435 20.3793 202.253 20.1365 201.97 19.9611C201.7 19.7722 201.336 19.6778 200.877 19.6778C200.391 19.6778 200.02 19.7655 199.764 19.9409C199.507 20.1163 199.379 20.3456 199.379 20.6289C199.379 20.8178 199.46 20.9865 199.622 21.1349C199.797 21.2833 200.04 21.4115 200.351 21.5194C200.661 21.6138 201.039 21.7083 201.484 21.8027C202.266 21.9646 202.955 22.1535 203.548 22.3694C204.142 22.5717 204.607 22.8686 204.945 23.2598C205.282 23.6376 205.45 24.1907 205.45 24.9193C205.45 25.5669 205.275 26.147 204.924 26.6597C204.574 27.1589 204.074 27.5502 203.427 27.8335C202.793 28.1168 202.037 28.2585 201.16 28.2585Z" fill="#F4F1EC"/>
<path d="M75.1742 50.2995C75.1742 51.6332 73.6066 52.3494 72.5984 51.4763L59.4563 40.0949C58.3668 39.1513 59.0341 37.3614 60.4755 37.3614L73.6176 37.3614C74.4773 37.3614 75.1743 38.0584 75.1743 38.9181L75.1742 50.2995Z" fill="#111111"/>
</svg>
