<svg width="167" height="201" viewBox="0 0 167 201" fill="none" xmlns="http://www.w3.org/2000/svg">
<path d="M31.0343 127.937C13.1232 136.088 6.8994 147.598 4.95035 160.607C1.17038 185.836 27.2053 206.122 52.7615 191.429C63.9549 184.994 74.6646 173.583 79.8069 161.847C84.8722 150.288 83.721 142.374 82.3976 130.251C81.4306 121.392 79.807 117.018 76.9491 104.565C75.1648 98.8389 75.5515 88.0188 78.5144 82.6098C85.5834 69.705 95.7096 66.0891 108.833 61.6346C119.348 58.0652 121.733 48.7802 120.533 38.4544C119.517 29.7041 121.624 18.937 126.765 12.3284C132.213 5.32354 140.676 3.92875 148.948 5.32336C154.583 6.27347 159.067 8.82602 162.629 15.7549" stroke="#111111" stroke-width="7.78365" stroke-linecap="round"/>
</svg>
