<svg width="439" height="406" viewBox="0 0 439 406" fill="none" xmlns="http://www.w3.org/2000/svg">
<path d="M179.5 28.0591C157.833 0.225742 103.999 -8.00178 79.8721 28.0575C58.5 59.9986 59.7721 110.358 139.372 159.558C160.372 174.224 192.072 209.858 150.872 259.058C140.539 270.224 108.972 291.858 65.372 289.058C10.872 285.558 1.87199 258.558 4.37199 245.058C6.87199 231.558 30.8721 218.558 90.8721 235.558C150.872 252.558 180.372 261.058 251.872 221.058C286.372 197.558 319.872 137.058 304.372 105.558C298.872 98.0576 280.672 93.8577 251.872 137.058C215.872 191.058 178 307.5 225.5 364C259.5 404.442 355.272 438.458 434.872 316.058" stroke="#111111" stroke-width="8" stroke-linecap="round"/>
</svg>
