<svg width="322" height="222" viewBox="0 0 322 222" fill="none" xmlns="http://www.w3.org/2000/svg">
<path d="M72.0126 83.6153C63.6275 86.4615 54.0395 91.2224 46.0126 97.0601C24.6076 112.627 10.6234 128.813 5.58047 148.41C1.19208 165.464 6.70236 184.95 18.7699 197.08C30.3745 208.745 44.2515 215.15 63.1366 217.707C90.7686 217.707 103.226 214.819 122.682 208.755C152.881 199.343 175.863 179.517 191.036 155.84C200.483 141.099 208.897 126.005 217.456 111C222.611 101.961 227.438 92.649 235.52 84.7919C244.719 75.8502 256.949 70.9894 269.971 68.0908C282.025 65.4072 296.909 63.5095 306.961 55.9446C318.532 47.2366 318.533 33.9449 316.448 23.5895C312.882 5.88214 292.23 -0.350049 271.116 8.74908C262.466 12.4765 254.776 18.1669 247.578 23.6581C243.868 26.4884 239.371 30.0858 234.737 31.6586C219.613 36.7924 207.479 24.0867 198.124 17.8649" stroke="#111111" stroke-width="7.78365" stroke-linecap="round"/>
</svg>
