<svg width="197" height="58" viewBox="0 0 197 58" fill="none" xmlns="http://www.w3.org/2000/svg">
<rect y="15.5869" width="196.148" height="42.0317" rx="7.00528" fill="#111111"/>
<path d="M19.2401 43.8454C18.3092 43.8454 17.4727 43.616 16.7307 43.1573C16.0021 42.6986 15.4287 42.0645 15.0105 41.255C14.5922 40.4455 14.3831 39.5348 14.3831 38.5229C14.3831 37.4841 14.5922 36.5666 15.0105 35.7706C15.4422 34.9611 16.0291 34.327 16.7711 33.8683C17.5267 33.3961 18.3699 33.16 19.3008 33.16C20.0294 33.16 20.6702 33.2949 21.2234 33.5647C21.7765 33.8346 22.2218 34.2191 22.559 34.7183V29.0316H25.2911V43.6025H22.8626L22.559 42.2062C22.3567 42.4895 22.1003 42.7593 21.79 43.0157C21.4932 43.272 21.1357 43.4744 20.7174 43.6228C20.2992 43.7712 19.8068 43.8454 19.2401 43.8454ZM19.8877 41.4574C20.4274 41.4574 20.8996 41.3359 21.3043 41.0931C21.7226 40.8367 22.0464 40.486 22.2757 40.0407C22.5051 39.5955 22.6198 39.0828 22.6198 38.5027C22.6198 37.9226 22.5051 37.4099 22.2757 36.9646C22.0464 36.5194 21.7226 36.1754 21.3043 35.9325C20.8996 35.6762 20.4274 35.548 19.8877 35.548C19.375 35.548 18.9096 35.6762 18.4913 35.9325C18.0731 36.1754 17.7425 36.5194 17.4997 36.9646C17.2703 37.4099 17.1556 37.9158 17.1556 38.4825C17.1556 39.0761 17.2703 39.5955 17.4997 40.0407C17.7425 40.486 18.0663 40.8367 18.4711 41.0931C18.8893 41.3359 19.3615 41.4574 19.8877 41.4574ZM27.4418 43.6025V33.4028H30.1739V43.6025H27.4418ZM28.818 32.0065C28.3323 32.0065 27.9275 31.8648 27.6037 31.5815C27.2934 31.2847 27.1383 30.9136 27.1383 30.4684C27.1383 30.0232 27.2934 29.6589 27.6037 29.3756C27.9275 29.0788 28.3323 28.9304 28.818 28.9304C29.3172 28.9304 29.7219 29.0788 30.0322 29.3756C30.356 29.6589 30.5179 30.0232 30.5179 30.4684C30.5179 30.9136 30.356 31.2847 30.0322 31.5815C29.7219 31.8648 29.3172 32.0065 28.818 32.0065ZM36.7392 48.2976C35.7678 48.2976 34.9178 48.1762 34.1893 47.9334C33.4607 47.704 32.8941 47.3465 32.4893 46.8608C32.0981 46.3886 31.9024 45.8017 31.9024 45.1001C31.9024 44.6279 32.0239 44.1827 32.2667 43.7644C32.5096 43.3462 32.8603 42.9684 33.3191 42.6311C33.7913 42.2804 34.3782 41.9835 35.0797 41.7407L36.1118 43.0764C35.4912 43.2787 35.0393 43.5283 34.7559 43.8252C34.4861 44.1355 34.3512 44.466 34.3512 44.8168C34.3512 45.1271 34.4524 45.3902 34.6547 45.606C34.8706 45.8219 35.1539 45.9771 35.5047 46.0715C35.869 46.1794 36.2737 46.2334 36.719 46.2334C37.1507 46.2334 37.5217 46.1794 37.832 46.0715C38.1558 45.9636 38.4054 45.8017 38.5808 45.5858C38.7697 45.3834 38.8641 45.1406 38.8641 44.8573C38.8641 44.493 38.736 44.1962 38.4796 43.9668C38.2233 43.7375 37.7106 43.5958 36.9416 43.5418C36.2535 43.4879 35.6396 43.4137 35.1 43.3192C34.5738 43.2113 34.1083 43.0899 33.7036 42.9549C33.2988 42.8065 32.9548 42.6446 32.6715 42.4692C32.4016 42.2938 32.179 42.1185 32.0036 41.9431V41.4776L34.169 39.1503L36.1321 39.7777L33.5822 42.2871L34.3512 40.9514C34.4996 41.0324 34.6412 41.1133 34.7762 41.1943C34.9246 41.2617 35.1067 41.3292 35.3226 41.3967C35.5384 41.4506 35.8218 41.5046 36.1725 41.5586C36.5233 41.6125 36.9686 41.6597 37.5082 41.7002C38.3987 41.7812 39.1272 41.9498 39.6939 42.2062C40.274 42.4625 40.699 42.8065 40.9688 43.2383C41.2387 43.6565 41.3736 44.1759 41.3736 44.7966C41.3736 45.4037 41.2049 45.9703 40.8676 46.4965C40.5438 47.0362 40.0379 47.4679 39.3498 47.7917C38.6618 48.129 37.7915 48.2976 36.7392 48.2976ZM36.7392 40.5872C35.8892 40.5872 35.1539 40.4253 34.5333 40.1015C33.9262 39.7642 33.454 39.3189 33.1167 38.7658C32.7929 38.1991 32.631 37.5718 32.631 36.8837C32.631 36.1956 32.7929 35.575 33.1167 35.0218C33.454 34.4552 33.9262 34.0032 34.5333 33.6659C35.1539 33.3286 35.8892 33.16 36.7392 33.16C37.6027 33.16 38.338 33.3286 38.9451 33.6659C39.5657 34.0032 40.0379 34.4552 40.3617 35.0218C40.6855 35.575 40.8474 36.1956 40.8474 36.8837C40.8474 37.5718 40.6855 38.1991 40.3617 38.7658C40.0379 39.3189 39.5657 39.7642 38.9451 40.1015C38.338 40.4253 37.6027 40.5872 36.7392 40.5872ZM36.7392 38.5027C37.2654 38.5027 37.6904 38.3678 38.0142 38.0979C38.338 37.8281 38.4999 37.4301 38.4999 36.9039C38.4999 36.3778 38.338 35.9798 38.0142 35.7099C37.6904 35.4266 37.2654 35.2849 36.7392 35.2849C36.2265 35.2849 35.8015 35.4266 35.4642 35.7099C35.1404 35.9798 34.9785 36.3778 34.9785 36.9039C34.9785 37.4301 35.1404 37.8281 35.4642 38.0979C35.8015 38.3678 36.2265 38.5027 36.7392 38.5027ZM38.4391 35.3456L37.9939 33.4028H42.1831V35.0218L38.4391 35.3456ZM43.877 43.6025V33.4028H46.6091V43.6025H43.877ZM45.2532 32.0065C44.7675 32.0065 44.3627 31.8648 44.0389 31.5815C43.7286 31.2847 43.5735 30.9136 43.5735 30.4684C43.5735 30.0232 43.7286 29.6589 44.0389 29.3756C44.3627 29.0788 44.7675 28.9304 45.2532 28.9304C45.7524 28.9304 46.1571 29.0788 46.4674 29.3756C46.7912 29.6589 46.9531 30.0232 46.9531 30.4684C46.9531 30.9136 46.7912 31.2847 46.4674 31.5815C46.1571 31.8648 45.7524 32.0065 45.2532 32.0065ZM53.3768 43.6025C52.6617 43.6025 52.0344 43.4946 51.4947 43.2787C50.9685 43.0494 50.557 42.6784 50.2602 42.1657C49.9634 41.6395 49.815 40.9244 49.815 40.0205V35.6897H48.0746V33.4028H49.815L50.1185 30.6303H52.547V33.4028H55.2386V35.6897H52.547V40.061C52.547 40.5197 52.6482 40.8367 52.8506 41.0121C53.053 41.1875 53.397 41.2752 53.8827 41.2752H55.2184V43.6025H53.3768ZM60.3914 43.8454C59.5415 43.8454 58.8399 43.7105 58.2867 43.4406C57.7336 43.1573 57.3221 42.7863 57.0523 42.3276C56.7959 41.8554 56.6677 41.3359 56.6677 40.7693C56.6677 40.1487 56.8229 39.6023 57.1332 39.1301C57.457 38.6578 57.936 38.2868 58.5701 38.017C59.2177 37.7472 60.0272 37.6122 60.9986 37.6122H63.5283C63.5283 37.1131 63.4608 36.7016 63.3259 36.3778C63.191 36.0405 62.9818 35.7909 62.6985 35.629C62.4152 35.4671 62.0374 35.3861 61.5652 35.3861C61.0525 35.3861 60.6141 35.5008 60.2498 35.7302C59.899 35.946 59.6831 36.2833 59.6022 36.742H56.9511C57.0185 36.0135 57.2546 35.3861 57.6594 34.8599C58.0776 34.3203 58.624 33.902 59.2986 33.6052C59.9867 33.3084 60.749 33.16 61.5855 33.16C62.5434 33.16 63.3731 33.3219 64.0747 33.6457C64.7762 33.9695 65.3159 34.435 65.6937 35.0421C66.0714 35.6492 66.2603 36.398 66.2603 37.2884V43.6025H63.9532L63.6497 42.0443C63.5013 42.3141 63.3259 42.5569 63.1235 42.7728C62.9211 42.9887 62.685 43.1776 62.4152 43.3395C62.1454 43.5014 61.8418 43.6228 61.5045 43.7037C61.1672 43.7982 60.7962 43.8454 60.3914 43.8454ZM61.039 41.7407C61.3898 41.7407 61.7001 41.68 61.97 41.5586C62.2533 41.4236 62.4961 41.2482 62.6985 41.0324C62.9009 40.803 63.056 40.5467 63.164 40.2634C63.2854 39.9665 63.3664 39.6495 63.4068 39.3122V39.292H61.3224C60.9041 39.292 60.5601 39.3459 60.2903 39.4539C60.0339 39.5483 59.845 39.69 59.7236 39.8788C59.6022 40.0677 59.5415 40.2836 59.5415 40.5264C59.5415 40.7963 59.6022 41.0189 59.7236 41.1943C59.845 41.3697 60.0204 41.5046 60.2498 41.599C60.4791 41.6935 60.7422 41.7407 61.039 41.7407ZM68.2221 43.6025V29.0316H70.9541V43.6025H68.2221ZM81.3755 43.8454C80.4446 43.8454 79.6351 43.697 78.947 43.4002C78.2589 43.1033 77.7193 42.6919 77.328 42.1657C76.9367 41.6395 76.7141 41.0459 76.6602 40.3848H79.372C79.4394 40.6411 79.5541 40.8772 79.716 41.0931C79.8779 41.2955 80.0938 41.4574 80.3636 41.5788C80.6335 41.7002 80.9573 41.7609 81.335 41.7609C81.6993 41.7609 81.9961 41.7137 82.2255 41.6193C82.4548 41.5113 82.6235 41.3697 82.7314 41.1943C82.8528 41.0189 82.9135 40.8367 82.9135 40.6479C82.9135 40.3645 82.8326 40.1487 82.6707 40.0003C82.5088 39.8384 82.2727 39.7102 81.9624 39.6158C81.6521 39.5213 81.2743 39.4269 80.8291 39.3324C80.3434 39.238 79.8644 39.1233 79.3922 38.9884C78.9335 38.84 78.522 38.6578 78.1577 38.442C77.7935 38.2261 77.5034 37.9495 77.2875 37.6122C77.0717 37.275 76.9637 36.8567 76.9637 36.3575C76.9637 35.7504 77.1256 35.2107 77.4494 34.7385C77.7732 34.2528 78.2454 33.8683 78.866 33.585C79.4867 33.3017 80.2354 33.16 81.1124 33.16C82.3401 33.16 83.3115 33.4366 84.0266 33.9897C84.7417 34.5429 85.1666 35.3052 85.3016 36.2766H82.7314C82.6505 35.9663 82.4683 35.7234 82.185 35.548C81.9152 35.3591 81.5509 35.2647 81.0922 35.2647C80.6065 35.2647 80.2354 35.3524 79.9791 35.5278C79.7228 35.7032 79.5946 35.9325 79.5946 36.2159C79.5946 36.4047 79.6755 36.5734 79.8374 36.7218C80.0128 36.8702 80.2557 36.9984 80.566 37.1063C80.8763 37.2007 81.2541 37.2952 81.6993 37.3896C82.4818 37.5515 83.1699 37.7404 83.7635 37.9563C84.3572 38.1587 84.8226 38.4555 85.1599 38.8467C85.4972 39.2245 85.6658 39.7777 85.6658 40.5062C85.6658 41.1538 85.4904 41.7339 85.1397 42.2466C84.7889 42.7458 84.2897 43.1371 83.6421 43.4204C83.008 43.7037 82.2525 43.8454 81.3755 43.8454ZM91.6683 43.6025C90.9532 43.6025 90.3259 43.4946 89.7862 43.2787C89.26 43.0494 88.8486 42.6784 88.5517 42.1657C88.2549 41.6395 88.1065 40.9244 88.1065 40.0205V35.6897H86.3661V33.4028H88.1065L88.4101 30.6303H90.8386V33.4028H93.5302V35.6897H90.8386V40.061C90.8386 40.5197 90.9398 40.8367 91.1421 41.0121C91.3445 41.1875 91.6885 41.2752 92.1742 41.2752H93.5099V43.6025H91.6683ZM99.8022 43.8454C98.8308 43.8454 97.9538 43.6228 97.1713 43.1776C96.4023 42.7188 95.7884 42.0915 95.3297 41.2955C94.8845 40.486 94.6619 39.5618 94.6619 38.5229C94.6619 37.4571 94.8845 36.5262 95.3297 35.7302C95.7884 34.9207 96.409 34.2933 97.1916 33.8481C97.9741 33.3894 98.851 33.16 99.8224 33.16C100.807 33.16 101.684 33.3894 102.453 33.8481C103.236 34.2933 103.85 34.9207 104.295 35.7302C104.754 36.5262 104.983 37.4503 104.983 38.5027C104.983 39.555 104.754 40.486 104.295 41.2955C103.85 42.0915 103.236 42.7188 102.453 43.1776C101.671 43.6228 100.787 43.8454 99.8022 43.8454ZM99.8022 41.4776C100.261 41.4776 100.666 41.3697 101.016 41.1538C101.381 40.9379 101.664 40.6074 101.866 40.1622C102.082 39.7169 102.19 39.1638 102.19 38.5027C102.19 37.8416 102.082 37.2952 101.866 36.8635C101.664 36.4182 101.381 36.0877 101.016 35.8718C100.666 35.6425 100.268 35.5278 99.8224 35.5278C99.3907 35.5278 98.9927 35.6425 98.6284 35.8718C98.2641 36.0877 97.9741 36.4182 97.7582 36.8635C97.5558 37.2952 97.4546 37.8416 97.4546 38.5027C97.4546 39.1638 97.5558 39.7169 97.7582 40.1622C97.9741 40.6074 98.2574 40.9379 98.6082 41.1538C98.9725 41.3697 99.3705 41.4776 99.8022 41.4776ZM106.751 43.6025V33.4028H109.179L109.442 35.2849C109.685 34.8397 109.989 34.4619 110.353 34.1516C110.731 33.8413 111.156 33.5985 111.628 33.4231C112.114 33.2477 112.647 33.16 113.227 33.16V36.054H112.296C111.891 36.054 111.513 36.1012 111.163 36.1956C110.825 36.2901 110.528 36.4452 110.272 36.6611C110.016 36.8635 109.82 37.1468 109.685 37.5111C109.55 37.8753 109.483 38.334 109.483 38.8872V43.6025H106.751ZM115.74 48.0548L118.209 42.4692H117.602L113.514 33.4028H116.489L119.403 39.98L122.034 33.4028H124.928L118.634 48.0548H115.74ZM130.665 43.6025C129.95 43.6025 129.323 43.4946 128.783 43.2787C128.257 43.0494 127.846 42.6784 127.549 42.1657C127.252 41.6395 127.104 40.9244 127.104 40.0205V35.6897H125.363V33.4028H127.104L127.407 30.6303H129.836V33.4028H132.527V35.6897H129.836V40.061C129.836 40.5197 129.937 40.8367 130.139 41.0121C130.342 41.1875 130.686 41.2752 131.171 41.2752H132.507V43.6025H130.665ZM138.88 43.8454C137.855 43.8454 136.944 43.6295 136.148 43.1978C135.366 42.7526 134.752 42.1387 134.306 41.3562C133.875 40.5602 133.659 39.6427 133.659 38.6039C133.659 37.538 133.875 36.6004 134.306 35.7909C134.752 34.9679 135.366 34.327 136.148 33.8683C136.931 33.3961 137.841 33.16 138.88 33.16C139.892 33.16 140.776 33.3826 141.531 33.8278C142.287 34.2731 142.874 34.8734 143.292 35.629C143.71 36.3845 143.919 37.2412 143.919 38.1991C143.919 38.334 143.919 38.4892 143.919 38.6646C143.919 38.8265 143.906 38.9951 143.879 39.1705H135.602V37.5111H141.167C141.127 36.85 140.89 36.3305 140.459 35.9528C140.04 35.575 139.514 35.3861 138.88 35.3861C138.421 35.3861 137.996 35.4941 137.605 35.7099C137.214 35.9123 136.904 36.2293 136.674 36.6611C136.458 37.0928 136.35 37.6392 136.35 38.3003V38.8872C136.35 39.4404 136.452 39.9261 136.654 40.3443C136.87 40.7491 137.167 41.0661 137.544 41.2955C137.922 41.5113 138.361 41.6193 138.86 41.6193C139.359 41.6193 139.771 41.5113 140.094 41.2955C140.432 41.0796 140.681 40.803 140.843 40.4657H143.636C143.447 41.0998 143.13 41.6732 142.685 42.1859C142.24 42.6986 141.693 43.1033 141.046 43.4002C140.398 43.697 139.676 43.8454 138.88 43.8454ZM145.57 43.6025V29.0316H148.302V43.6025H145.57ZM150.378 43.6025V29.0316H153.11V43.6025H150.378ZM155.248 43.6025V33.4028H157.98V43.6025H155.248ZM156.624 32.0065C156.138 32.0065 155.733 31.8648 155.409 31.5815C155.099 31.2847 154.944 30.9136 154.944 30.4684C154.944 30.0232 155.099 29.6589 155.409 29.3756C155.733 29.0788 156.138 28.9304 156.624 28.9304C157.123 28.9304 157.528 29.0788 157.838 29.3756C158.162 29.6589 158.324 30.0232 158.324 30.4684C158.324 30.9136 158.162 31.2847 157.838 31.5815C157.528 31.8648 157.123 32.0065 156.624 32.0065ZM160.153 43.6025V33.4028H162.562L162.764 35.0623C163.074 34.4957 163.513 34.037 164.079 33.6862C164.66 33.3354 165.348 33.16 166.144 33.16C166.994 33.16 167.709 33.3354 168.289 33.6862C168.869 34.037 169.307 34.5496 169.604 35.2242C169.915 35.8988 170.07 36.7285 170.07 37.7134V43.6025H167.358V37.9765C167.358 37.167 167.183 36.5464 166.832 36.1147C166.494 35.6829 165.968 35.4671 165.253 35.4671C164.795 35.4671 164.383 35.575 164.019 35.7909C163.668 36.0067 163.391 36.317 163.189 36.7218C162.987 37.1131 162.885 37.592 162.885 38.1587V43.6025H160.153ZM176.448 48.2976C175.477 48.2976 174.627 48.1762 173.898 47.9334C173.17 47.704 172.603 47.3465 172.198 46.8608C171.807 46.3886 171.612 45.8017 171.612 45.1001C171.612 44.6279 171.733 44.1827 171.976 43.7644C172.219 43.3462 172.569 42.9684 173.028 42.6311C173.5 42.2804 174.087 41.9835 174.789 41.7407L175.821 43.0764C175.2 43.2787 174.748 43.5283 174.465 43.8252C174.195 44.1355 174.06 44.466 174.06 44.8168C174.06 45.1271 174.162 45.3902 174.364 45.606C174.58 45.8219 174.863 45.9771 175.214 46.0715C175.578 46.1794 175.983 46.2334 176.428 46.2334C176.86 46.2334 177.231 46.1794 177.541 46.0715C177.865 45.9636 178.115 45.8017 178.29 45.5858C178.479 45.3834 178.573 45.1406 178.573 44.8573C178.573 44.493 178.445 44.1962 178.189 43.9668C177.932 43.7375 177.42 43.5958 176.651 43.5418C175.963 43.4879 175.349 43.4137 174.809 43.3192C174.283 43.2113 173.817 43.0899 173.413 42.9549C173.008 42.8065 172.664 42.6446 172.381 42.4692C172.111 42.2938 171.888 42.1185 171.713 41.9431V41.4776L173.878 39.1503L175.841 39.7777L173.291 42.2871L174.06 40.9514C174.209 41.0324 174.35 41.1133 174.485 41.1943C174.634 41.2617 174.816 41.3292 175.032 41.3967C175.248 41.4506 175.531 41.5046 175.882 41.5586C176.232 41.6125 176.678 41.6597 177.217 41.7002C178.108 41.7812 178.836 41.9498 179.403 42.2062C179.983 42.4625 180.408 42.8065 180.678 43.2383C180.948 43.6565 181.083 44.1759 181.083 44.7966C181.083 45.4037 180.914 45.9703 180.577 46.4965C180.253 47.0362 179.747 47.4679 179.059 47.7917C178.371 48.129 177.501 48.2976 176.448 48.2976ZM176.448 40.5872C175.598 40.5872 174.863 40.4253 174.242 40.1015C173.635 39.7642 173.163 39.3189 172.826 38.7658C172.502 38.1991 172.34 37.5718 172.34 36.8837C172.34 36.1956 172.502 35.575 172.826 35.0218C173.163 34.4552 173.635 34.0032 174.242 33.6659C174.863 33.3286 175.598 33.16 176.448 33.16C177.312 33.16 178.047 33.3286 178.654 33.6659C179.275 34.0032 179.747 34.4552 180.071 35.0218C180.395 35.575 180.557 36.1956 180.557 36.8837C180.557 37.5718 180.395 38.1991 180.071 38.7658C179.747 39.3189 179.275 39.7642 178.654 40.1015C178.047 40.4253 177.312 40.5872 176.448 40.5872ZM176.448 38.5027C176.975 38.5027 177.399 38.3678 177.723 38.0979C178.047 37.8281 178.209 37.4301 178.209 36.9039C178.209 36.3778 178.047 35.9798 177.723 35.7099C177.399 35.4266 176.975 35.2849 176.448 35.2849C175.936 35.2849 175.511 35.4266 175.173 35.7099C174.85 35.9798 174.688 36.3778 174.688 36.9039C174.688 37.4301 174.85 37.8281 175.173 38.0979C175.511 38.3678 175.936 38.5027 176.448 38.5027ZM178.148 35.3456L177.703 33.4028H181.892V35.0218L178.148 35.3456Z" fill="#F4F1EC"/>
<path d="M113.883 18.8754C112.549 18.8754 111.833 17.3077 112.706 16.2995L124.088 3.15751C125.031 2.06795 126.821 2.73528 126.821 4.17663L126.821 17.3187C126.821 18.1785 126.124 18.8755 125.264 18.8755L113.883 18.8754Z" fill="#111111"/>
</svg>
