<svg width="211" height="43" viewBox="0 0 211 43" fill="none" xmlns="http://www.w3.org/2000/svg">
<rect x="14.3542" width="196.148" height="42.0317" rx="7.00528" fill="#111111"/>
<path d="M33.5944 28.2585C32.6635 28.2585 31.827 28.0291 31.0849 27.5704C30.3564 27.1117 29.783 26.4776 29.3647 25.6681C28.9465 24.8586 28.7374 23.9479 28.7374 22.936C28.7374 21.8972 28.9465 20.9797 29.3647 20.1837C29.7965 19.3742 30.3834 18.7401 31.1254 18.2814C31.8809 17.8092 32.7242 17.5731 33.6551 17.5731C34.3836 17.5731 35.0245 17.708 35.5777 17.9778C36.1308 18.2477 36.576 18.6322 36.9133 19.1314V13.4446H39.6454V28.0156H37.2169L36.9133 26.6192C36.711 26.9026 36.4546 27.1724 36.1443 27.4287C35.8475 27.6851 35.49 27.8875 35.0717 28.0359C34.6535 28.1843 34.161 28.2585 33.5944 28.2585ZM34.242 25.8705C34.7816 25.8705 35.2539 25.749 35.6586 25.5062C36.0768 25.2498 36.4006 24.8991 36.63 24.4538C36.8594 24.0086 36.974 23.4959 36.974 22.9158C36.974 22.3356 36.8594 21.823 36.63 21.3777C36.4006 20.9325 36.0768 20.5885 35.6586 20.3456C35.2539 20.0893 34.7816 19.9611 34.242 19.9611C33.7293 19.9611 33.2638 20.0893 32.8456 20.3456C32.4274 20.5885 32.0968 20.9325 31.854 21.3777C31.6246 21.823 31.5099 22.3289 31.5099 22.8955C31.5099 23.4892 31.6246 24.0086 31.854 24.4538C32.0968 24.8991 32.4206 25.2498 32.8254 25.5062C33.2436 25.749 33.7158 25.8705 34.242 25.8705ZM41.7961 28.0156V17.8159H44.5282V28.0156H41.7961ZM43.1722 16.4195C42.6865 16.4195 42.2818 16.2779 41.958 15.9946C41.6477 15.6977 41.4925 15.3267 41.4925 14.8815C41.4925 14.4363 41.6477 14.072 41.958 13.7887C42.2818 13.4919 42.6865 13.3435 43.1722 13.3435C43.6714 13.3435 44.0762 13.4919 44.3865 13.7887C44.7103 14.072 44.8722 14.4363 44.8722 14.8815C44.8722 15.3267 44.7103 15.6977 44.3865 15.9946C44.0762 16.2779 43.6714 16.4195 43.1722 16.4195ZM51.0935 32.7107C50.1221 32.7107 49.2721 32.5893 48.5436 32.3464C47.815 32.1171 47.2484 31.7596 46.8436 31.2739C46.4523 30.8017 46.2567 30.2148 46.2567 29.5132C46.2567 29.041 46.3781 28.5958 46.621 28.1775C46.8638 27.7593 47.2146 27.3815 47.6733 27.0442C48.1456 26.6934 48.7324 26.3966 49.434 26.1538L50.4661 27.4895C49.8455 27.6918 49.3935 27.9414 49.1102 28.2382C48.8404 28.5485 48.7055 28.8791 48.7055 29.2299C48.7055 29.5402 48.8066 29.8033 49.009 30.0191C49.2249 30.235 49.5082 30.3902 49.859 30.4846C50.2233 30.5925 50.628 30.6465 51.0732 30.6465C51.505 30.6465 51.876 30.5925 52.1863 30.4846C52.5101 30.3767 52.7597 30.2148 52.9351 29.9989C53.124 29.7965 53.2184 29.5537 53.2184 29.2703C53.2184 28.9061 53.0902 28.6093 52.8339 28.3799C52.5776 28.1505 52.0649 28.0089 51.2959 27.9549C50.6078 27.9009 49.9939 27.8267 49.4542 27.7323C48.9281 27.6244 48.4626 27.5029 48.0579 27.368C47.6531 27.2196 47.3091 27.0577 47.0257 26.8823C46.7559 26.7069 46.5333 26.5315 46.3579 26.3562V25.8907L48.5233 23.5634L50.4864 24.1907L47.9364 26.7002L48.7055 25.3645C48.8539 25.4455 48.9955 25.5264 49.1304 25.6074C49.2789 25.6748 49.461 25.7423 49.6769 25.8097C49.8927 25.8637 50.176 25.9177 50.5268 25.9716C50.8776 26.0256 51.3228 26.0728 51.8625 26.1133C52.753 26.1943 53.4815 26.3629 54.0482 26.6192C54.6283 26.8756 55.0533 27.2196 55.3231 27.6514C55.5929 28.0696 55.7279 28.589 55.7279 29.2096C55.7279 29.8168 55.5592 30.3834 55.2219 30.9096C54.8981 31.4493 54.3922 31.881 53.7041 32.2048C53.016 32.5421 52.1458 32.7107 51.0935 32.7107ZM51.0935 25.0002C50.2435 25.0002 49.5082 24.8383 48.8876 24.5145C48.2805 24.1772 47.8083 23.732 47.471 23.1789C47.1472 22.6122 46.9853 21.9849 46.9853 21.2968C46.9853 20.6087 47.1472 19.9881 47.471 19.4349C47.8083 18.8683 48.2805 18.4163 48.8876 18.079C49.5082 17.7417 50.2435 17.5731 51.0935 17.5731C51.9569 17.5731 52.6922 17.7417 53.2994 18.079C53.92 18.4163 54.3922 18.8683 54.716 19.4349C55.0398 19.9881 55.2017 20.6087 55.2017 21.2968C55.2017 21.9849 55.0398 22.6122 54.716 23.1789C54.3922 23.732 53.92 24.1772 53.2994 24.5145C52.6922 24.8383 51.9569 25.0002 51.0935 25.0002ZM51.0935 22.9158C51.6197 22.9158 52.0446 22.7809 52.3684 22.511C52.6922 22.2412 52.8541 21.8432 52.8541 21.317C52.8541 20.7908 52.6922 20.3928 52.3684 20.123C52.0446 19.8397 51.6197 19.698 51.0935 19.698C50.5808 19.698 50.1558 19.8397 49.8185 20.123C49.4947 20.3928 49.3328 20.7908 49.3328 21.317C49.3328 21.8432 49.4947 22.2412 49.8185 22.511C50.1558 22.7809 50.5808 22.9158 51.0935 22.9158ZM52.7934 19.7587L52.3482 17.8159H56.5374V19.4349L52.7934 19.7587ZM58.2313 28.0156V17.8159H60.9634V28.0156H58.2313ZM59.6075 16.4195C59.1218 16.4195 58.717 16.2779 58.3932 15.9946C58.0829 15.6977 57.9277 15.3267 57.9277 14.8815C57.9277 14.4363 58.0829 14.072 58.3932 13.7887C58.717 13.4919 59.1218 13.3435 59.6075 13.3435C60.1066 13.3435 60.5114 13.4919 60.8217 13.7887C61.1455 14.072 61.3074 14.4363 61.3074 14.8815C61.3074 15.3267 61.1455 15.6977 60.8217 15.9946C60.5114 16.2779 60.1066 16.4195 59.6075 16.4195ZM67.7311 28.0156C67.016 28.0156 66.3886 27.9077 65.849 27.6918C65.3228 27.4625 64.9113 27.0914 64.6145 26.5788C64.3177 26.0526 64.1693 25.3375 64.1693 24.4336V20.1028H62.4288V17.8159H64.1693L64.4728 15.0434H66.9013V17.8159H69.5929V20.1028H66.9013V24.4741C66.9013 24.9328 67.0025 25.2498 67.2049 25.4252C67.4073 25.6006 67.7513 25.6883 68.237 25.6883H69.5727V28.0156H67.7311ZM74.7457 28.2585C73.8957 28.2585 73.1942 28.1236 72.641 27.8537C72.0879 27.5704 71.6764 27.1994 71.4065 26.7407C71.1502 26.2685 71.022 25.749 71.022 25.1824C71.022 24.5618 71.1772 24.0153 71.4875 23.5431C71.8113 23.0709 72.2902 22.6999 72.9243 22.4301C73.5719 22.1602 74.3814 22.0253 75.3528 22.0253H77.8825C77.8825 21.5261 77.8151 21.1146 77.6802 20.7908C77.5452 20.4536 77.3361 20.204 77.0528 20.0421C76.7695 19.8802 76.3917 19.7992 75.9195 19.7992C75.4068 19.7992 74.9683 19.9139 74.6041 20.1432C74.2533 20.3591 74.0374 20.6964 73.9565 21.1551H71.3053C71.3728 20.4266 71.6089 19.7992 72.0137 19.273C72.4319 18.7334 72.9783 18.3151 73.6529 18.0183C74.341 17.7215 75.1032 17.5731 75.9397 17.5731C76.8976 17.5731 77.7274 17.735 78.4289 18.0588C79.1305 18.3826 79.6702 18.848 80.0479 19.4552C80.4257 20.0623 80.6146 20.8111 80.6146 21.7015V28.0156H78.3075L78.004 26.4573C77.8555 26.7272 77.6802 26.97 77.4778 27.1859C77.2754 27.4018 77.0393 27.5906 76.7695 27.7525C76.4996 27.9144 76.1961 28.0359 75.8588 28.1168C75.5215 28.2113 75.1505 28.2585 74.7457 28.2585ZM75.3933 26.1538C75.7441 26.1538 76.0544 26.0931 76.3242 25.9716C76.6076 25.8367 76.8504 25.6613 77.0528 25.4455C77.2552 25.2161 77.4103 24.9598 77.5183 24.6764C77.6397 24.3796 77.7206 24.0626 77.7611 23.7253V23.705H75.6766C75.2584 23.705 74.9144 23.759 74.6445 23.8669C74.3882 23.9614 74.1993 24.103 74.0779 24.2919C73.9565 24.4808 73.8957 24.6967 73.8957 24.9395C73.8957 25.2094 73.9565 25.432 74.0779 25.6074C74.1993 25.7828 74.3747 25.9177 74.6041 26.0121C74.8334 26.1066 75.0965 26.1538 75.3933 26.1538ZM82.5764 28.0156V13.4446H85.3084V28.0156H82.5764ZM95.7298 28.2585C94.7988 28.2585 93.9893 28.1101 93.3013 27.8133C92.6132 27.5164 92.0735 27.1049 91.6823 26.5788C91.291 26.0526 91.0684 25.459 91.0144 24.7979H93.7263C93.7937 25.0542 93.9084 25.2903 94.0703 25.5062C94.2322 25.7086 94.4481 25.8705 94.7179 25.9919C94.9877 26.1133 95.3115 26.174 95.6893 26.174C96.0536 26.174 96.3504 26.1268 96.5797 26.0324C96.8091 25.9244 96.9778 25.7828 97.0857 25.6074C97.2071 25.432 97.2678 25.2498 97.2678 25.061C97.2678 24.7776 97.1869 24.5618 97.025 24.4134C96.8631 24.2515 96.627 24.1233 96.3167 24.0288C96.0064 23.9344 95.6286 23.84 95.1834 23.7455C94.6977 23.6511 94.2187 23.5364 93.7465 23.4015C93.2878 23.2531 92.8763 23.0709 92.512 22.8551C92.1477 22.6392 91.8577 22.3626 91.6418 22.0253C91.4259 21.688 91.318 21.2698 91.318 20.7706C91.318 20.1635 91.4799 19.6238 91.8037 19.1516C92.1275 18.6659 92.5997 18.2814 93.2203 17.9981C93.8409 17.7147 94.5897 17.5731 95.4667 17.5731C96.6944 17.5731 97.6658 17.8497 98.3809 18.4028C99.0959 18.956 99.5209 19.7183 99.6558 20.6897H97.0857C97.0047 20.3793 96.8226 20.1365 96.5393 19.9611C96.2694 19.7722 95.9052 19.6778 95.4464 19.6778C94.9607 19.6778 94.5897 19.7655 94.3334 19.9409C94.077 20.1163 93.9489 20.3456 93.9489 20.6289C93.9489 20.8178 94.0298 20.9865 94.1917 21.1349C94.3671 21.2833 94.61 21.4115 94.9203 21.5194C95.2306 21.6138 95.6083 21.7083 96.0536 21.8027C96.8361 21.9646 97.5242 22.1535 98.1178 22.3694C98.7114 22.5717 99.1769 22.8686 99.5142 23.2598C99.8515 23.6376 100.02 24.1907 100.02 24.9193C100.02 25.5669 99.8447 26.147 99.4939 26.6597C99.1432 27.1589 98.644 27.5502 97.9964 27.8335C97.3623 28.1168 96.6067 28.2585 95.7298 28.2585ZM106.023 28.0156C105.308 28.0156 104.68 27.9077 104.14 27.6918C103.614 27.4625 103.203 27.0914 102.906 26.5788C102.609 26.0526 102.461 25.3375 102.461 24.4336V20.1028H100.72V17.8159H102.461L102.764 15.0434H105.193V17.8159H107.884V20.1028H105.193V24.4741C105.193 24.9328 105.294 25.2498 105.496 25.4252C105.699 25.6006 106.043 25.6883 106.529 25.6883H107.864V28.0156H106.023ZM114.156 28.2585C113.185 28.2585 112.308 28.0359 111.526 27.5906C110.757 27.1319 110.143 26.5046 109.684 25.7086C109.239 24.8991 109.016 23.9749 109.016 22.936C109.016 21.8702 109.239 20.9393 109.684 20.1432C110.143 19.3337 110.763 18.7064 111.546 18.2612C112.328 17.8024 113.205 17.5731 114.177 17.5731C115.162 17.5731 116.039 17.8024 116.808 18.2612C117.59 18.7064 118.204 19.3337 118.649 20.1432C119.108 20.9393 119.337 21.8634 119.337 22.9158C119.337 23.9681 119.108 24.8991 118.649 25.7086C118.204 26.5046 117.59 27.1319 116.808 27.5906C116.025 28.0359 115.141 28.2585 114.156 28.2585ZM114.156 25.8907C114.615 25.8907 115.02 25.7828 115.371 25.5669C115.735 25.351 116.018 25.0205 116.221 24.5753C116.437 24.13 116.544 23.5769 116.544 22.9158C116.544 22.2547 116.437 21.7083 116.221 21.2765C116.018 20.8313 115.735 20.5008 115.371 20.2849C115.02 20.0555 114.622 19.9409 114.177 19.9409C113.745 19.9409 113.347 20.0555 112.983 20.2849C112.618 20.5008 112.328 20.8313 112.112 21.2765C111.91 21.7083 111.809 22.2547 111.809 22.9158C111.809 23.5769 111.91 24.13 112.112 24.5753C112.328 25.0205 112.612 25.351 112.962 25.5669C113.327 25.7828 113.725 25.8907 114.156 25.8907ZM121.105 28.0156V17.8159H123.534L123.797 19.698C124.039 19.2528 124.343 18.875 124.707 18.5647C125.085 18.2544 125.51 18.0116 125.982 17.8362C126.468 17.6608 127.001 17.5731 127.581 17.5731V20.467H126.65C126.245 20.467 125.868 20.5143 125.517 20.6087C125.18 20.7031 124.883 20.8583 124.626 21.0742C124.37 21.2765 124.174 21.5599 124.039 21.9241C123.905 22.2884 123.837 22.7471 123.837 23.3003V28.0156H121.105ZM130.094 32.4679L132.563 26.8823H131.956L127.868 17.8159H130.843L133.757 24.3931L136.388 17.8159H139.282L132.988 32.4679H130.094ZM145.02 28.0156C144.305 28.0156 143.677 27.9077 143.138 27.6918C142.611 27.4625 142.2 27.0914 141.903 26.5788C141.606 26.0526 141.458 25.3375 141.458 24.4336V20.1028H139.717V17.8159H141.458L141.761 15.0434H144.19V17.8159H146.881V20.1028H144.19V24.4741C144.19 24.9328 144.291 25.2498 144.493 25.4252C144.696 25.6006 145.04 25.6883 145.526 25.6883H146.861V28.0156H145.02ZM153.234 28.2585C152.209 28.2585 151.298 28.0426 150.502 27.6109C149.72 27.1657 149.106 26.5518 148.661 25.7693C148.229 24.9733 148.013 24.0558 148.013 23.017C148.013 21.9511 148.229 21.0135 148.661 20.204C149.106 19.381 149.72 18.7401 150.502 18.2814C151.285 17.8092 152.196 17.5731 153.234 17.5731C154.246 17.5731 155.13 17.7957 155.886 18.2409C156.641 18.6861 157.228 19.2865 157.646 20.0421C158.064 20.7976 158.274 21.6543 158.274 22.6122C158.274 22.7471 158.274 22.9023 158.274 23.0777C158.274 23.2396 158.26 23.4082 158.233 23.5836H149.956V21.9241H155.521C155.481 21.2631 155.245 20.7436 154.813 20.3659C154.395 19.9881 153.869 19.7992 153.234 19.7992C152.776 19.7992 152.351 19.9071 151.959 20.123C151.568 20.3254 151.258 20.6424 151.029 21.0742C150.813 21.5059 150.705 22.0523 150.705 22.7134V23.3003C150.705 23.8534 150.806 24.3391 151.008 24.7574C151.224 25.1621 151.521 25.4792 151.899 25.7086C152.277 25.9244 152.715 26.0324 153.214 26.0324C153.713 26.0324 154.125 25.9244 154.449 25.7086C154.786 25.4927 155.036 25.2161 155.197 24.8788H157.99C157.801 25.5129 157.484 26.0863 157.039 26.599C156.594 27.1117 156.047 27.5164 155.4 27.8133C154.752 28.1101 154.03 28.2585 153.234 28.2585ZM159.924 28.0156V13.4446H162.656V28.0156H159.924ZM164.733 28.0156V13.4446H167.465V28.0156H164.733ZM169.602 28.0156V17.8159H172.334V28.0156H169.602ZM170.978 16.4195C170.492 16.4195 170.087 16.2779 169.764 15.9946C169.453 15.6977 169.298 15.3267 169.298 14.8815C169.298 14.4363 169.453 14.072 169.764 13.7887C170.087 13.4919 170.492 13.3435 170.978 13.3435C171.477 13.3435 171.882 13.4919 172.192 13.7887C172.516 14.072 172.678 14.4363 172.678 14.8815C172.678 15.3267 172.516 15.6977 172.192 15.9946C171.882 16.2779 171.477 16.4195 170.978 16.4195ZM174.508 28.0156V17.8159H176.916L177.118 19.4754C177.429 18.9088 177.867 18.45 178.434 18.0993C179.014 17.7485 179.702 17.5731 180.498 17.5731C181.348 17.5731 182.063 17.7485 182.643 18.0993C183.223 18.45 183.662 18.9627 183.959 19.6373C184.269 20.3119 184.424 21.1416 184.424 22.1265V28.0156H181.712V22.3896C181.712 21.5801 181.537 20.9595 181.186 20.5278C180.849 20.096 180.323 19.8802 179.608 19.8802C179.149 19.8802 178.737 19.9881 178.373 20.204C178.022 20.4198 177.746 20.7301 177.543 21.1349C177.341 21.5261 177.24 22.0051 177.24 22.5717V28.0156H174.508ZM190.803 32.7107C189.831 32.7107 188.981 32.5893 188.253 32.3464C187.524 32.1171 186.957 31.7596 186.553 31.2739C186.161 30.8017 185.966 30.2148 185.966 29.5132C185.966 29.041 186.087 28.5958 186.33 28.1775C186.573 27.7593 186.924 27.3815 187.382 27.0442C187.855 26.6934 188.442 26.3966 189.143 26.1538L190.175 27.4895C189.555 27.6918 189.103 27.9414 188.819 28.2382C188.55 28.5485 188.415 28.8791 188.415 29.2299C188.415 29.5402 188.516 29.8033 188.718 30.0191C188.934 30.235 189.217 30.3902 189.568 30.4846C189.932 30.5925 190.337 30.6465 190.782 30.6465C191.214 30.6465 191.585 30.5925 191.895 30.4846C192.219 30.3767 192.469 30.2148 192.644 29.9989C192.833 29.7965 192.928 29.5537 192.928 29.2703C192.928 28.9061 192.799 28.6093 192.543 28.3799C192.287 28.1505 191.774 28.0089 191.005 27.9549C190.317 27.9009 189.703 27.8267 189.163 27.7323C188.637 27.6244 188.172 27.5029 187.767 27.368C187.362 27.2196 187.018 27.0577 186.735 26.8823C186.465 26.7069 186.242 26.5315 186.067 26.3562V25.8907L188.232 23.5634L190.195 24.1907L187.646 26.7002L188.415 25.3645C188.563 25.4455 188.705 25.5264 188.84 25.6074C188.988 25.6748 189.17 25.7423 189.386 25.8097C189.602 25.8637 189.885 25.9177 190.236 25.9716C190.587 26.0256 191.032 26.0728 191.572 26.1133C192.462 26.1943 193.191 26.3629 193.757 26.6192C194.337 26.8756 194.762 27.2196 195.032 27.6514C195.302 28.0696 195.437 28.589 195.437 29.2096C195.437 29.8168 195.268 30.3834 194.931 30.9096C194.607 31.4493 194.101 31.881 193.413 32.2048C192.725 32.5421 191.855 32.7107 190.803 32.7107ZM190.803 25.0002C189.953 25.0002 189.217 24.8383 188.597 24.5145C187.99 24.1772 187.517 23.732 187.18 23.1789C186.856 22.6122 186.694 21.9849 186.694 21.2968C186.694 20.6087 186.856 19.9881 187.18 19.4349C187.517 18.8683 187.99 18.4163 188.597 18.079C189.217 17.7417 189.953 17.5731 190.803 17.5731C191.666 17.5731 192.401 17.7417 193.009 18.079C193.629 18.4163 194.101 18.8683 194.425 19.4349C194.749 19.9881 194.911 20.6087 194.911 21.2968C194.911 21.9849 194.749 22.6122 194.425 23.1789C194.101 23.732 193.629 24.1772 193.009 24.5145C192.401 24.8383 191.666 25.0002 190.803 25.0002ZM190.803 22.9158C191.329 22.9158 191.754 22.7809 192.078 22.511C192.401 22.2412 192.563 21.8432 192.563 21.317C192.563 20.7908 192.401 20.3928 192.078 20.123C191.754 19.8397 191.329 19.698 190.803 19.698C190.29 19.698 189.865 19.8397 189.528 20.123C189.204 20.3928 189.042 20.7908 189.042 21.317C189.042 21.8432 189.204 22.2412 189.528 22.511C189.865 22.7809 190.29 22.9158 190.803 22.9158ZM192.503 19.7587L192.057 17.8159H196.246V19.4349L192.503 19.7587Z" fill="#F4F1EC"/>
<path d="M4.2371 29.2855C2.90337 29.2855 2.1872 27.7179 3.06034 26.7097L14.4417 13.5677C15.3853 12.4781 17.1752 13.1454 17.1752 14.5868L17.1752 27.7289C17.1752 28.5887 16.4783 29.2856 15.6185 29.2856L4.2371 29.2855Z" fill="#111111"/>
</svg>
