<svg width="139" height="57" viewBox="0 0 139 57" fill="none" xmlns="http://www.w3.org/2000/svg">
<path d="M67.9367 53.7009C68.5312 54.7413 70.0292 54.748 70.633 53.7128L77.4429 42.0374C78.0483 40.9996 77.2997 39.6963 76.0982 39.6963L62.6166 39.6963C61.4213 39.6963 60.672 40.9876 61.265 42.0254L67.9367 53.7009Z" fill="#111111"/>
<path fill-rule="evenodd" clip-rule="evenodd" d="M0 7C0 3.134 3.13401 0 7 0H131.55C135.416 0 138.55 3.134 138.55 7V35.03C138.55 38.896 135.416 42.03 131.55 42.03H7.00001C3.13402 42.03 0 38.896 0 35.03V7ZM115.416 33.0145L117.885 27.4289H117.278L113.19 18.3625H116.165L119.079 24.9397L121.71 18.3625H124.604L118.31 33.0145H115.416ZM103.907 32.893C104.636 33.1359 105.486 33.2573 106.457 33.2573C107.51 33.2573 108.38 33.0887 109.068 32.7514C109.756 32.4276 110.262 31.9958 110.586 31.4562C110.923 30.93 111.092 30.3633 111.092 29.7562C111.092 29.1356 110.957 28.6162 110.687 28.1979C110.417 27.7662 109.992 27.4221 109.412 27.1658C108.845 26.9095 108.117 26.7408 107.226 26.6599C106.687 26.6194 106.241 26.5722 105.891 26.5182C105.54 26.4642 105.256 26.4103 105.041 26.3563C104.825 26.2888 104.643 26.2214 104.494 26.1539L104.442 26.1229L105.173 25.4034C105.567 25.499 105.995 25.5468 106.457 25.5468C107.321 25.5468 108.056 25.3849 108.663 25.0611C109.284 24.7238 109.756 24.2786 110.08 23.7254C110.403 23.1588 110.565 22.5314 110.565 21.8434C110.565 21.2169 110.431 20.6464 110.163 20.1318L111.901 19.9815V18.3625H108.067C107.592 18.2006 107.055 18.1197 106.457 18.1197C105.607 18.1197 104.872 18.2883 104.251 18.6256C103.644 18.9629 103.172 19.4149 102.835 19.9815C102.511 20.5347 102.349 21.1553 102.349 21.8434C102.349 22.5314 102.511 23.1588 102.835 23.7254C103.017 24.0241 103.238 24.2913 103.499 24.527L101.722 26.4373V26.9027C101.897 27.0781 102.12 27.2535 102.389 27.4289C102.541 27.5227 102.71 27.6126 102.896 27.6986C102.506 28.008 102.202 28.3499 101.985 28.7241C101.742 29.1423 101.62 29.5876 101.62 30.0598C101.62 30.7613 101.816 31.3482 102.207 31.8204C102.612 32.3061 103.179 32.6637 103.907 32.893ZM105.114 28.3276C105.579 28.3992 106.094 28.4572 106.66 28.5015C107.429 28.5555 107.941 28.6971 108.198 28.9265C108.454 29.1558 108.582 29.4527 108.582 29.8169C108.582 30.1003 108.488 30.3431 108.299 30.5455C108.123 30.7613 107.874 30.9232 107.55 31.0312C107.24 31.1391 106.869 31.1931 106.437 31.1931C105.992 31.1931 105.587 31.1391 105.223 31.0312C104.872 30.9367 104.589 30.7816 104.373 30.5657C104.17 30.3498 104.069 30.0868 104.069 29.7764C104.069 29.4257 104.204 29.0951 104.474 28.7848C104.634 28.6174 104.847 28.465 105.114 28.3276ZM107.732 23.0576C107.408 23.3274 106.983 23.4624 106.457 23.4624C105.944 23.4624 105.519 23.3274 105.182 23.0576C104.858 22.7878 104.696 22.3898 104.696 21.8636C104.696 21.3374 104.858 20.9394 105.182 20.6696C105.519 20.3863 105.944 20.2446 106.457 20.2446C106.983 20.2446 107.408 20.3863 107.732 20.6696C108.056 20.9394 108.218 21.3374 108.218 21.8636C108.218 22.3898 108.056 22.7878 107.732 23.0576ZM95.1823 28.8051C94.2109 28.8051 93.334 28.5824 92.5515 28.1372C91.7825 27.6785 91.1686 27.0511 90.7099 26.2551C90.2646 25.4456 90.042 24.5215 90.042 23.4826C90.042 22.4167 90.2646 21.4858 90.7099 20.6898C91.1686 19.8803 91.7892 19.253 92.5717 18.8077C93.3542 18.349 94.2312 18.1197 95.2026 18.1197C96.1875 18.1197 97.0644 18.349 97.8335 18.8077C98.616 19.253 99.2298 19.8803 99.6751 20.6898C100.134 21.4858 100.363 22.41 100.363 23.4624C100.363 24.5147 100.134 25.4456 99.6751 26.2551C99.2298 27.0511 98.616 27.6785 97.8335 28.1372C97.0509 28.5824 96.1672 28.8051 95.1823 28.8051ZM95.1823 26.4373C95.6411 26.4373 96.0458 26.3293 96.3966 26.1135C96.7609 25.8976 97.0442 25.567 97.2466 25.1218C97.4624 24.6766 97.5704 24.1234 97.5704 23.4624C97.5704 22.8013 97.4624 22.2549 97.2466 21.8231C97.0442 21.3779 96.7609 21.0473 96.3966 20.8315C96.0458 20.6021 95.6478 20.4874 95.2026 20.4874C94.7708 20.4874 94.3728 20.6021 94.0086 20.8315C93.6443 21.0473 93.3542 21.3779 93.1384 21.8231C92.936 22.2549 92.8348 22.8013 92.8348 23.4624C92.8348 24.1234 92.936 24.6766 93.1384 25.1218C93.3542 25.567 93.6376 25.8976 93.9883 26.1135C94.3526 26.3293 94.7506 26.4373 95.1823 26.4373ZM84.9705 13.9912V28.5622H87.7025V13.9912H84.9705ZM77.435 28.8051C76.4636 28.8051 75.5867 28.5824 74.8042 28.1372C74.0351 27.6785 73.4212 27.0511 72.9625 26.2551C72.5173 25.4456 72.2947 24.5215 72.2947 23.4826C72.2947 22.4167 72.5173 21.4858 72.9625 20.6898C73.4212 19.8803 74.0419 19.253 74.8244 18.8077C75.6069 18.349 76.4839 18.1197 77.4553 18.1197C78.4402 18.1197 79.3171 18.349 80.0861 18.8077C80.8687 19.253 81.4825 19.8803 81.9277 20.6898C82.3865 21.4858 82.6158 22.41 82.6158 23.4624C82.6158 24.5147 82.3865 25.4456 81.9277 26.2551C81.4825 27.0511 80.8687 27.6785 80.0861 28.1372C79.3036 28.5824 78.4199 28.8051 77.435 28.8051ZM77.435 26.4373C77.8937 26.4373 78.2985 26.3293 78.6493 26.1135C79.0135 25.8976 79.2969 25.567 79.4993 25.1218C79.7151 24.6766 79.823 24.1234 79.823 23.4624C79.823 22.8013 79.7151 22.2549 79.4993 21.8231C79.2969 21.3779 79.0135 21.0473 78.6493 20.8315C78.2985 20.6021 77.9005 20.4874 77.4553 20.4874C77.0235 20.4874 76.6255 20.6021 76.2612 20.8315C75.897 21.0473 75.6069 21.3779 75.391 21.8231C75.1887 22.2549 75.0875 22.8013 75.0875 23.4624C75.0875 24.1234 75.1887 24.6766 75.391 25.1218C75.6069 25.567 75.8902 25.8976 76.241 26.1135C76.6053 26.3293 77.0033 26.4373 77.435 26.4373ZM60.1282 18.3625V28.5622H62.8602V23.1183C62.8602 22.5517 62.9614 22.0727 63.1638 21.6815C63.3662 21.2767 63.6428 20.9664 63.9935 20.7505C64.3578 20.5347 64.7693 20.4267 65.228 20.4267C65.9431 20.4267 66.4693 20.6426 66.8065 21.0743C67.1573 21.5061 67.3327 22.1267 67.3327 22.9362V28.5622H70.0446V22.6731C70.0446 21.6882 69.8894 20.8585 69.5791 20.1839C69.2823 19.5093 68.8438 18.9966 68.2636 18.6458C67.6835 18.295 66.9684 18.1197 66.1185 18.1197C65.3225 18.1197 64.6344 18.295 64.0543 18.6458C63.4876 18.9966 63.0491 19.4553 62.7388 20.022L62.5364 18.3625H60.1282ZM47.6181 28.5622V13.9912H50.3502V19.8803C50.6875 19.3407 51.1327 18.9157 51.6858 18.6054C52.2525 18.2816 52.9068 18.1197 53.6489 18.1197C54.4988 18.1197 55.2139 18.3018 55.794 18.6661C56.3742 19.0168 56.8127 19.5295 57.1095 20.2041C57.4063 20.8787 57.5547 21.7152 57.5547 22.7136V28.5622H54.8429V22.9564C54.8429 22.1469 54.6742 21.5263 54.3369 21.0946C53.9996 20.6493 53.4667 20.4267 52.7382 20.4267C52.293 20.4267 51.8882 20.5347 51.5239 20.7505C51.1597 20.9664 50.8696 21.2834 50.6537 21.7017C50.4513 22.1064 50.3502 22.5921 50.3502 23.1588V28.5622H47.6181ZM37.5313 28.117C38.3273 28.5757 39.238 28.8051 40.2634 28.8051C41.5585 28.8051 42.6514 28.461 43.5418 27.7729C44.4458 27.0714 45.0192 26.1337 45.262 24.9599H42.368C42.2871 25.2837 42.1454 25.5603 41.9431 25.7897C41.7407 26.0055 41.4911 26.1742 41.1943 26.2956C40.9109 26.417 40.5939 26.4777 40.2431 26.4777C39.8923 26.4777 39.5618 26.4103 39.2515 26.2754C38.9547 26.1404 38.6983 25.9448 38.4825 25.6885C38.2666 25.4186 38.0979 25.1016 37.9765 24.7373C37.8551 24.3595 37.7944 23.9346 37.7944 23.4624C37.7944 22.8417 37.8956 22.3088 38.0979 21.8636C38.3138 21.4049 38.6039 21.0608 38.9682 20.8315C39.3459 20.5886 39.7709 20.4672 40.2431 20.4672C40.7693 20.4672 41.2213 20.6021 41.599 20.8719C41.9903 21.1418 42.2466 21.5128 42.368 21.985H45.262C45.0192 20.7843 44.4525 19.8398 43.5621 19.1518C42.6716 18.4637 41.572 18.1197 40.2634 18.1197C39.238 18.1197 38.3273 18.3558 37.5313 18.828C36.7353 19.2867 36.1147 19.9208 35.6694 20.7303C35.2242 21.5263 35.0016 22.4505 35.0016 23.5028C35.0016 24.5282 35.2242 25.4389 35.6694 26.2349C36.1147 27.0309 36.7353 27.6583 37.5313 28.117ZM28.0488 28.8051C27.0234 28.8051 26.1127 28.5892 25.3167 28.1575C24.5342 27.7122 23.9203 27.0984 23.4751 26.3158C23.0434 25.5198 22.8275 24.6024 22.8275 23.5635C22.8275 22.4977 23.0434 21.56 23.4751 20.7505C23.9203 19.9275 24.5342 19.2867 25.3167 18.828C26.0992 18.3558 27.0099 18.1197 28.0488 18.1197C29.0606 18.1197 29.9443 18.3423 30.6999 18.7875C31.4554 19.2327 32.0423 19.8331 32.4605 20.5886C32.8788 21.3442 33.0879 22.2009 33.0879 23.1588V23.6243C33.0879 23.7861 33.0744 23.9548 33.0474 24.1302H25.5283C25.5575 24.5674 25.6556 24.9587 25.8226 25.304C26.0385 25.7087 26.3353 26.0258 26.7131 26.2551C27.0909 26.471 27.5293 26.5789 28.0285 26.5789C28.5277 26.5789 28.9392 26.471 29.263 26.2551C29.6003 26.0393 29.8499 25.7627 30.0118 25.4254H32.8046C32.6157 26.0595 32.2986 26.6329 31.8534 27.1456C31.4082 27.6583 30.8618 28.063 30.2142 28.3598C29.5666 28.6566 28.8448 28.8051 28.0488 28.8051ZM25.8429 21.6207C25.7198 21.8668 25.6319 22.1501 25.579 22.4707H30.3356C30.2951 21.8096 30.059 21.2902 29.6273 20.9124C29.2091 20.5347 28.6829 20.3458 28.0488 20.3458C27.59 20.3458 27.1651 20.4537 26.7738 20.6696C26.3826 20.8719 26.0722 21.189 25.8429 21.6207ZM17.365 28.2384C17.9046 28.4543 18.532 28.5622 19.247 28.5622H21.0887V26.2349H19.753C19.2673 26.2349 18.9232 26.1472 18.7209 25.9718C18.5185 25.7964 18.4173 25.4794 18.4173 25.0206V20.6493H21.1089V18.3625H18.4173V15.59H15.9888L15.6852 18.3625H13.9448V20.6493H15.6852V24.9802C15.6852 25.8841 15.8337 26.5992 16.1305 27.1253C16.4273 27.638 16.8388 28.009 17.365 28.2384Z" fill="#111111"/>
</svg>
