<svg width="139" height="57" viewBox="0 0 139 57" fill="none" xmlns="http://www.w3.org/2000/svg">
<rect width="138.549" height="42.0317" rx="7.00528" fill="#111111"/>
<path d="M19.3632 28.0156C18.6481 28.0156 18.0207 27.9077 17.4811 27.6918C16.9549 27.4625 16.5434 27.0914 16.2466 26.5788C15.9498 26.0526 15.8014 25.3375 15.8014 24.4336V20.1028H14.0609V17.8159H15.8014L16.1049 15.0434H18.5334V17.8159H21.225V20.1028H18.5334V24.4741C18.5334 24.9328 18.6346 25.2498 18.837 25.4252C19.0394 25.6006 19.3834 25.6883 19.8691 25.6883H21.2048V28.0156H19.3632ZM28.1649 28.2585C27.1395 28.2585 26.2288 28.0426 25.4328 27.6109C24.6503 27.1657 24.0364 26.5518 23.5912 25.7693C23.1595 24.9733 22.9436 24.0558 22.9436 23.017C22.9436 21.9511 23.1595 21.0135 23.5912 20.204C24.0364 19.381 24.6503 18.7401 25.4328 18.2814C26.2153 17.8092 27.126 17.5731 28.1649 17.5731C29.1768 17.5731 30.0605 17.7957 30.816 18.2409C31.5715 18.6861 32.1584 19.2865 32.5767 20.0421C32.9949 20.7976 33.204 21.6543 33.204 22.6122C33.204 22.7471 33.204 22.9023 33.204 23.0777C33.204 23.2396 33.1905 23.4082 33.1636 23.5836H24.8864V21.9241H30.4517C30.4113 21.2631 30.1751 20.7436 29.7434 20.3659C29.3252 19.9881 28.799 19.7992 28.1649 19.7992C27.7062 19.7992 27.2812 19.9071 26.8899 20.123C26.4987 20.3254 26.1884 20.6424 25.959 21.0742C25.7431 21.5059 25.6352 22.0523 25.6352 22.7134V23.3003C25.6352 23.8534 25.7364 24.3391 25.9388 24.7574C26.1546 25.1621 26.4515 25.4792 26.8292 25.7086C27.207 25.9244 27.6455 26.0324 28.1447 26.0324C28.6438 26.0324 29.0553 25.9244 29.3791 25.7086C29.7164 25.4927 29.966 25.2161 30.1279 24.8788H32.9207C32.7318 25.5129 32.4148 26.0863 31.9695 26.599C31.5243 27.1117 30.9779 27.5164 30.3303 27.8133C29.6827 28.1101 28.9609 28.2585 28.1649 28.2585ZM40.3795 28.2585C39.3541 28.2585 38.4434 28.0291 37.6474 27.5704C36.8514 27.1117 36.2308 26.4843 35.7856 25.6883C35.3403 24.8923 35.1177 23.9816 35.1177 22.9563C35.1177 21.9039 35.3403 20.9797 35.7856 20.1837C36.2308 19.3742 36.8514 18.7401 37.6474 18.2814C38.4434 17.8092 39.3541 17.5731 40.3795 17.5731C41.6882 17.5731 42.7877 17.9171 43.6782 18.6052C44.5686 19.2933 45.1353 20.2377 45.3781 21.4384H42.4842C42.3628 20.9662 42.1064 20.5952 41.7152 20.3254C41.3374 20.0555 40.8854 19.9206 40.3592 19.9206C39.887 19.9206 39.462 20.0421 39.0843 20.2849C38.72 20.5143 38.4299 20.8583 38.2141 21.317C38.0117 21.7622 37.9105 22.2952 37.9105 22.9158C37.9105 23.388 37.9712 23.813 38.0926 24.1907C38.2141 24.555 38.3827 24.8721 38.5986 25.1419C38.8144 25.3982 39.0708 25.5939 39.3676 25.7288C39.6779 25.8637 40.0085 25.9312 40.3592 25.9312C40.71 25.9312 41.0271 25.8705 41.3104 25.749C41.6072 25.6276 41.8568 25.459 42.0592 25.2431C42.2616 25.0137 42.4032 24.7372 42.4842 24.4134H45.3781C45.1353 25.5871 44.5619 26.5248 43.658 27.2264C42.7675 27.9144 41.6747 28.2585 40.3795 28.2585ZM47.7342 28.0156V13.4446H50.4663V19.3337C50.8036 18.7941 51.2488 18.3691 51.802 18.0588C52.3686 17.735 53.023 17.5731 53.765 17.5731C54.615 17.5731 55.33 17.7552 55.9102 18.1195C56.4903 18.4703 56.9288 18.983 57.2256 19.6575C57.5224 20.3321 57.6708 21.1686 57.6708 22.167V28.0156H54.959V22.4098C54.959 21.6003 54.7904 20.9797 54.4531 20.548C54.1158 20.1028 53.5829 19.8802 52.8543 19.8802C52.4091 19.8802 52.0043 19.9881 51.6401 20.204C51.2758 20.4198 50.9857 20.7369 50.7698 21.1551C50.5675 21.5599 50.4663 22.0456 50.4663 22.6122V28.0156H47.7342ZM60.2443 28.0156V17.8159H62.6526L62.8549 19.4754C63.1652 18.9088 63.6037 18.45 64.1704 18.0993C64.7505 17.7485 65.4386 17.5731 66.2346 17.5731C67.0846 17.5731 67.7996 17.7485 68.3798 18.0993C68.9599 18.45 69.3984 18.9627 69.6952 19.6373C70.0055 20.3119 70.1607 21.1416 70.1607 22.1265V28.0156H67.4488V22.3896C67.4488 21.5801 67.2735 20.9595 66.9227 20.5278C66.5854 20.096 66.0592 19.8802 65.3442 19.8802C64.8854 19.8802 64.4739 19.9881 64.1097 20.204C63.7589 20.4198 63.4823 20.7301 63.2799 21.1349C63.0776 21.5261 62.9764 22.0051 62.9764 22.5717V28.0156H60.2443ZM77.5511 28.2585C76.5797 28.2585 75.7028 28.0359 74.9203 27.5906C74.1513 27.1319 73.5374 26.5046 73.0787 25.7086C72.6334 24.8991 72.4108 23.9749 72.4108 22.936C72.4108 21.8702 72.6334 20.9393 73.0787 20.1432C73.5374 19.3337 74.158 18.7064 74.9405 18.2612C75.723 17.8024 76.6 17.5731 77.5714 17.5731C78.5563 17.5731 79.4332 17.8024 80.2023 18.2612C80.9848 18.7064 81.5986 19.3337 82.0439 20.1432C82.5026 20.9393 82.7319 21.8634 82.7319 22.9158C82.7319 23.9681 82.5026 24.8991 82.0439 25.7086C81.5986 26.5046 80.9848 27.1319 80.2023 27.5906C79.4197 28.0359 78.536 28.2585 77.5511 28.2585ZM77.5511 25.8907C78.0099 25.8907 78.4146 25.7828 78.7654 25.5669C79.1297 25.351 79.413 25.0205 79.6154 24.5753C79.8312 24.13 79.9392 23.5769 79.9392 22.9158C79.9392 22.2547 79.8312 21.7083 79.6154 21.2765C79.413 20.8313 79.1297 20.5008 78.7654 20.2849C78.4146 20.0555 78.0166 19.9409 77.5714 19.9409C77.1397 19.9409 76.7416 20.0555 76.3774 20.2849C76.0131 20.5008 75.723 20.8313 75.5072 21.2765C75.3048 21.7083 75.2036 22.2547 75.2036 22.9158C75.2036 23.5769 75.3048 24.13 75.5072 24.5753C75.723 25.0205 76.0064 25.351 76.3571 25.5669C76.7214 25.7828 77.1194 25.8907 77.5511 25.8907ZM85.0866 28.0156V13.4446H87.8187V28.0156H85.0866ZM95.2985 28.2585C94.3271 28.2585 93.4501 28.0359 92.6676 27.5906C91.8986 27.1319 91.2847 26.5046 90.826 25.7086C90.3808 24.8991 90.1582 23.9749 90.1582 22.936C90.1582 21.8702 90.3808 20.9393 90.826 20.1432C91.2847 19.3337 91.9053 18.7064 92.6878 18.2612C93.4704 17.8024 94.3473 17.5731 95.3187 17.5731C96.3036 17.5731 97.1806 17.8024 97.9496 18.2612C98.7321 18.7064 99.346 19.3337 99.7912 20.1432C100.25 20.9393 100.479 21.8634 100.479 22.9158C100.479 23.9681 100.25 24.8991 99.7912 25.7086C99.346 26.5046 98.7321 27.1319 97.9496 27.5906C97.1671 28.0359 96.2834 28.2585 95.2985 28.2585ZM95.2985 25.8907C95.7572 25.8907 96.1619 25.7828 96.5127 25.5669C96.877 25.351 97.1603 25.0205 97.3627 24.5753C97.5786 24.13 97.6865 23.5769 97.6865 22.9158C97.6865 22.2547 97.5786 21.7083 97.3627 21.2765C97.1603 20.8313 96.877 20.5008 96.5127 20.2849C96.1619 20.0555 95.7639 19.9409 95.3187 19.9409C94.887 19.9409 94.489 20.0555 94.1247 20.2849C93.7604 20.5008 93.4704 20.8313 93.2545 21.2765C93.0521 21.7083 92.9509 22.2547 92.9509 22.9158C92.9509 23.5769 93.0521 24.13 93.2545 24.5753C93.4704 25.0205 93.7537 25.351 94.1045 25.5669C94.4687 25.7828 94.8667 25.8907 95.2985 25.8907ZM106.573 32.7107C105.602 32.7107 104.752 32.5893 104.023 32.3464C103.295 32.1171 102.728 31.7596 102.323 31.2739C101.932 30.8017 101.737 30.2148 101.737 29.5132C101.737 29.041 101.858 28.5958 102.101 28.1775C102.344 27.7593 102.694 27.3815 103.153 27.0442C103.625 26.6934 104.212 26.3966 104.914 26.1538L105.946 27.4895C105.325 27.6918 104.873 27.9414 104.59 28.2382C104.32 28.5485 104.185 28.8791 104.185 29.2299C104.185 29.5402 104.286 29.8033 104.489 30.0191C104.705 30.235 104.988 30.3902 105.339 30.4846C105.703 30.5925 106.108 30.6465 106.553 30.6465C106.985 30.6465 107.356 30.5925 107.666 30.4846C107.99 30.3767 108.239 30.2148 108.415 29.9989C108.604 29.7965 108.698 29.5537 108.698 29.2703C108.698 28.9061 108.57 28.6093 108.314 28.3799C108.057 28.1505 107.545 28.0089 106.776 27.9549C106.088 27.9009 105.474 27.8267 104.934 27.7323C104.408 27.6244 103.942 27.5029 103.538 27.368C103.133 27.2196 102.789 27.0577 102.506 26.8823C102.236 26.7069 102.013 26.5315 101.838 26.3562V25.8907L104.003 23.5634L105.966 24.1907L103.416 26.7002L104.185 25.3645C104.334 25.4455 104.475 25.5264 104.61 25.6074C104.759 25.6748 104.941 25.7423 105.157 25.8097C105.373 25.8637 105.656 25.9177 106.007 25.9716C106.357 26.0256 106.803 26.0728 107.342 26.1133C108.233 26.1943 108.961 26.3629 109.528 26.6192C110.108 26.8756 110.533 27.2196 110.803 27.6514C111.073 28.0696 111.208 28.589 111.208 29.2096C111.208 29.8168 111.039 30.3834 110.702 30.9096C110.378 31.4493 109.872 31.881 109.184 32.2048C108.496 32.5421 107.626 32.7107 106.573 32.7107ZM106.573 25.0002C105.723 25.0002 104.988 24.8383 104.367 24.5145C103.76 24.1772 103.288 23.732 102.951 23.1789C102.627 22.6122 102.465 21.9849 102.465 21.2968C102.465 20.6087 102.627 19.9881 102.951 19.4349C103.288 18.8683 103.76 18.4163 104.367 18.079C104.988 17.7417 105.723 17.5731 106.573 17.5731C107.437 17.5731 108.172 17.7417 108.779 18.079C109.4 18.4163 109.872 18.8683 110.196 19.4349C110.52 19.9881 110.681 20.6087 110.681 21.2968C110.681 21.9849 110.52 22.6122 110.196 23.1789C109.872 23.732 109.4 24.1772 108.779 24.5145C108.172 24.8383 107.437 25.0002 106.573 25.0002ZM106.573 22.9158C107.099 22.9158 107.524 22.7809 107.848 22.511C108.172 22.2412 108.334 21.8432 108.334 21.317C108.334 20.7908 108.172 20.3928 107.848 20.123C107.524 19.8397 107.099 19.698 106.573 19.698C106.061 19.698 105.636 19.8397 105.298 20.123C104.975 20.3928 104.813 20.7908 104.813 21.317C104.813 21.8432 104.975 22.2412 105.298 22.511C105.636 22.7809 106.061 22.9158 106.573 22.9158ZM108.273 19.7587L107.828 17.8159H112.017V19.4349L108.273 19.7587ZM115.532 32.4679L118.001 26.8823H117.394L113.306 17.8159H116.281L119.195 24.3931L121.826 17.8159H124.72L118.426 32.4679H115.532Z" fill="#F4F1EC"/>
<path d="M67.9367 53.7009C68.5312 54.7413 70.0292 54.748 70.633 53.7128L77.4429 42.0374C78.0483 40.9996 77.2997 39.6963 76.0982 39.6963L62.6166 39.6963C61.4213 39.6963 60.672 40.9876 61.265 42.0254L67.9367 53.7009Z" fill="#111111"/>
</svg>
