<svg width="532" height="233" viewBox="0 0 532 233" fill="none" xmlns="http://www.w3.org/2000/svg">
<path d="M526.973 110.456C524.814 97.504 512.468 82.1703 505.557 71.6313C486.485 42.5459 457.382 19.4594 423.979 8.84885C391.586 -1.44056 361.434 3.26384 346.791 36.4269C332.71 68.3151 331.177 105.331 364.046 124.784C375.071 131.309 388.1 131.699 400.483 132.95C408.734 133.783 422.693 135.534 424.749 145.584C428.328 163.082 411.703 171.302 397.556 174.702C373.924 180.383 346.669 178.176 328.534 160.374C321.875 153.837 314.616 141.882 318.442 132.103C320.565 126.678 329.329 122.1 336.416 127.934C346.344 136.107 350.094 151.899 349.102 163.147C347.608 180.078 328.534 199.442 314.174 206.622C206.04 260.682 25.0699 201.101 6 190.204" stroke="#111111" stroke-width="7.78365" stroke-linecap="square"/>
</svg>
