<?xml version="1.0" encoding="UTF-8"?><svg id="_레이어_2" xmlns="http://www.w3.org/2000/svg" viewBox="0 0 164.96 289.2"><g id="_레이어_1-2"><path d="M34.25,12.35c2.61-.28,5.22-.41,7.84-.36,1.16.02,2.31.07,3.47.16.65.05,1.3.11,1.94.17.29.03.57.06.86.1.86.1.59-.03-.09-.02,1.23-.02,2.64.42,3.84.66,1.28.26,2.55.55,3.81.88,2.46.64,4.88,1.42,7.26,2.32.55.21,1.09.42,1.63.64.34.14,1.33.48-.02-.02.27.1.54.23.8.35,1.21.53,2.4,1.09,3.58,1.68,2.3,1.15,4.54,2.41,6.73,3.77s4.31,2.85,6.38,4.38c.89.66-.02-.06-.16-.13.23.11.49.38.7.55.52.41,1.04.83,1.55,1.26,1.08.9,2.14,1.82,3.18,2.76,1.85,1.69,3.64,3.45,5.34,5.29.85.91,1.68,1.85,2.49,2.79s1.61,2.27,2.56,3.13c-.11-.1-.81-1.07-.17-.22.17.22.34.45.5.67.33.45.67.9.99,1.35.74,1.02,1.45,2.06,2.15,3.12,1.4,2.11,2.71,4.28,3.94,6.5s2.32,4.37,3.35,6.62c.27.58.53,1.16.78,1.74.11.25.2.54.34.78-.08-.14-.51-1.25-.11-.26.48,1.18.95,2.37,1.39,3.57,1.71,4.65,3.07,9.44,4.05,14.3.24,1.18.45,2.36.65,3.55.1.61.13,1.28.29,1.88-.04-.15-.18-1.42-.05-.34.05.42.1.84.15,1.26.27,2.38.45,4.77.52,7.16.08,2.53.06,5.06-.08,7.58-.06,1.12-.15,2.24-.25,3.35-.06.63-.13,1.25-.2,1.88-.03.23-.12,1.16-.03.24.11-.98-.04.24-.07.45-.74,4.93-1.94,9.79-3.61,14.48-.39,1.09-1.05,2.24-1.3,3.36.03-.15.54-1.25.11-.26-.11.26-.23.52-.34.78-.29.65-.59,1.29-.9,1.93-1.07,2.2-2.25,4.34-3.53,6.43s-2.66,4.07-4.11,6.02c-.63.85.06-.11.18-.22-.19.18-.35.45-.52.65-.39.49-.79.97-1.19,1.45-.85,1.01-1.72,2-2.62,2.97-1.61,1.73-3.29,3.39-5.05,4.98-.93.84-1.88,1.65-2.85,2.45-.43.35-.87.7-1.3,1.05-.32.25-.84.42.22-.17-.34.19-.69.52-1,.75-3.92,2.89-8.1,5.42-12.47,7.55-1,.49-2.01.94-3.03,1.39-1.27.57.93-.37.09-.04-.26.1-.51.21-.77.31-.64.26-1.29.51-1.95.75-2.28.84-4.6,1.58-6.95,2.2s-4.84,1.15-7.3,1.53c-.37.06-.74.13-1.11.16.18-.02,1.37-.16.26-.04-.6.06-1.19.13-1.79.19-1.35.12-2.7.2-4.05.24-2.7.07-5.4-.03-8.08-.33-.27-.03-.64-.13-.89-.11.17-.01,1.38.22.27.03-.59-.1-1.17-.19-1.76-.3-1.31-.25-2.61-.55-3.89-.91s-2.54-.76-3.78-1.23c-.42-.16-2.05-.61-.61-.22-.68-.18-1.37-.62-1.99-.94-1.05-.53-2.08-1.11-3.08-1.73-.57-.35-1.12-.72-1.67-1.1-.24-.17-.48-.34-.72-.52-.19-.14-.38-.28-.57-.42.52.4.61.47.27.21-1.96-1.63-3.86-3.3-5.55-5.23-.18-.21-1.07-.98-1.02-1.22-.03.14.74,1,.23.29-.18-.26-.37-.51-.55-.77-.62-.9-1.2-1.83-1.72-2.79-.25-.46-.48-.93-.7-1.4-.09-.2-.17-.43-.28-.62.04.08.54,1.41.22.49s-.65-1.86-.88-2.82c-.1-.42-.19-.83-.27-1.26-.05-.26-.08-.53-.13-.78-.15-.74.14,1.41.09.65-.06-.94-.14-1.87-.13-2.81.01-.89.13-1.76.19-2.64-.13,1.96-.07.59.03.05s.21-1.03.34-1.53c.22-.87.48-1.73.78-2.58.16-.45.38-.89.52-1.35-.02.06-.63,1.41-.22.54.14-.29.27-.59.41-.89.82-1.7,1.79-3.33,2.85-4.89.29-.42.59-.84.89-1.25.79-1.09-.84,1.03.22-.29.66-.82,1.35-1.61,2.06-2.38,1.42-1.54,2.93-2.99,4.51-4.35.37-.32.74-.63,1.11-.94.41-.34,1.82-1.15.36-.31.94-.54,1.78-1.33,2.68-1.94,1.77-1.21,3.6-2.34,5.49-3.37.91-.5,1.83-.98,2.77-1.43.44-.21.88-.42,1.32-.62.22-.1.44-.2.66-.3.86-.38.62-.2-.1.03,1.98-.62,3.87-1.5,5.87-2.1s4.07-1.07,6.15-1.43c.29-.05.58-.1.87-.14.1-.02,1.52-.26.5-.08-.92.16.92-.11,1.13-.13,1.34-.14,2.68-.24,4.02-.3,2.34-.1,4.68-.06,7.02.12.61.05,1.21.1,1.82.17.27.03.54.06.8.09.9.09-1.55-.24-.2-.03,1.19.19,2.37.38,3.55.63,2.27.47,4.5,1.09,6.7,1.82,1.06.36,2.12.74,3.16,1.16.24.1.49.22.73.3-1.36-.44-.68-.29-.34-.14.6.27,1.21.54,1.8.82,2.1.99,4.15,2.09,6.14,3.3s3.96,2.53,5.85,3.94c.18.13.49.31.65.49-.78-.88-.59-.46-.25-.19.48.38.96.76,1.43,1.15.95.78,1.89,1.59,2.81,2.42,3.7,3.33,7.12,6.99,10.25,10.85.36.45.72.89,1.07,1.34.65.82,0,0-.11-.15.19.24.37.49.56.73.84,1.1,1.67,2.21,2.48,3.32,1.63,2.23,3.22,4.5,4.76,6.79,5.99,8.93,11.26,18.33,15.8,28.08.55,1.18,1.09,2.37,1.62,3.57.28.63.56,1.27.83,1.9.12.28.24.56.36.85.5,1.17-.41-1.02.11.27.99,2.42,1.96,4.84,2.87,7.29,1.88,5.04,3.57,10.15,5.07,15.31s2.84,10.53,3.95,15.87c.55,2.63,1.05,5.27,1.5,7.92.22,1.29.42,2.58.62,3.87.09.61.18,1.22.27,1.82.05.38.11.76.16,1.14-.09-.77-.1-.75,0,0,1.38,10.74,1.93,21.58,1.63,32.4-.15,5.22-.5,10.43-1.05,15.63-.33,3.13,2.99,6.13,6,6,3.53-.16,5.65-2.64,6-6,2.39-22.76.88-45.89-4.03-68.24-4.9-22.3-13.38-43.93-24.97-63.6-5.75-9.77-12.26-19.35-19.77-27.87-6.8-7.71-14.93-14.55-24.06-19.33s-19.69-7.7-30.26-7.85-20.37,2.19-29.64,6.67c-8.24,3.99-16.07,9.77-21.79,16.95S-.61,135.71.07,145c.82,11.16,7.63,19.84,16.3,26.39,9.28,7,21.36,9.73,32.83,9.42,21.76-.59,43-11.06,57.68-26.96s22.57-37.49,21.85-59.44c-.72-21.85-8.84-43.02-22.28-60.17S72.4,3.64,50.24.66c-5.32-.72-10.64-.89-15.99-.31-3.11.34-6.16,2.52-6,6,.13,2.96,2.66,6.36,6,6h0Z"/></g></svg>