<svg width="177" height="55" viewBox="0 0 177 55" fill="none" xmlns="http://www.w3.org/2000/svg">
<rect width="176.464" height="42.0317" rx="7.00528" fill="#111111"/>
<path d="M13.888 28.0156L19.0688 13.8494H22.1652L27.3257 28.0156H24.4318L20.6069 16.966L16.7618 28.0156H13.888ZM16.1749 24.7979L16.9034 22.6729H24.108L24.8163 24.7979H16.1749ZM28.6004 28.0156V13.8494H31.3324V28.0156H28.6004ZM48.3686 28.0156L40.6784 20.3659C40.0577 19.7452 39.6193 19.1853 39.3629 18.6861C39.1066 18.1735 38.9784 17.6338 38.9784 17.0671C38.9784 16.4195 39.1403 15.8327 39.4641 15.3065C39.7879 14.7803 40.2601 14.3688 40.8807 14.072C41.5148 13.7617 42.2704 13.6065 43.1473 13.6065C44.0243 13.6065 44.7596 13.7684 45.3532 14.0922C45.9603 14.416 46.4191 14.841 46.7294 15.3672C47.0532 15.8934 47.2083 16.487 47.1948 17.1481H44.5842C44.5842 16.6624 44.4425 16.2981 44.1592 16.0553C43.8759 15.8124 43.5251 15.691 43.1069 15.691C42.6481 15.691 42.2771 15.8192 41.9938 16.0755C41.724 16.3184 41.5891 16.6422 41.5891 17.0469C41.5891 17.3707 41.6902 17.708 41.8926 18.0588C42.095 18.4096 42.4053 18.8008 42.8235 19.2326L51.6268 28.0156H48.3686ZM42.2164 28.2382C41.1776 28.2382 40.2736 28.0628 39.5046 27.7121C38.7491 27.3478 38.1622 26.8419 37.7439 26.1943C37.3257 25.5467 37.1166 24.7844 37.1166 23.9074C37.1166 23.2328 37.2582 22.6055 37.5416 22.0253C37.8249 21.4317 38.2499 20.9123 38.8165 20.467C39.3832 20.0083 40.0847 19.6441 40.9212 19.3742L41.9533 19.0504L43.1473 20.7504L42.2164 21.0539C41.3934 21.3238 40.7796 21.688 40.3748 22.1468C39.9835 22.6055 39.7879 23.1384 39.7879 23.7455C39.7879 24.1638 39.8891 24.5483 40.0915 24.8991C40.2939 25.2363 40.5907 25.5062 40.9819 25.7086C41.3732 25.9109 41.8319 26.0121 42.3581 26.0121C43.0866 26.0121 43.741 25.8502 44.3211 25.5264C44.9013 25.2026 45.4612 24.6832 46.0008 23.9681C46.2437 23.6443 46.4865 23.2801 46.7294 22.8753C46.9722 22.4706 47.2151 22.0186 47.4579 21.5194L47.8829 20.6492H50.6554L49.9674 22.0456C49.6301 22.7471 49.286 23.388 48.9353 23.9681C48.5845 24.5483 48.2202 25.061 47.8424 25.5062C47.0734 26.4641 46.2302 27.1589 45.3127 27.5906C44.4088 28.0224 43.3767 28.2382 42.2164 28.2382ZM57.1031 28.0156V13.8494H60.3614L64.6922 22.6932L68.9825 13.8494H72.2408V28.0156H69.5087V18.504L65.7648 26.0324H63.5994L59.8352 18.504V28.0156H57.1031ZM79.1973 28.2585C78.2259 28.2585 77.3489 28.0359 76.5664 27.5906C75.7974 27.1319 75.1835 26.5046 74.7248 25.7086C74.2795 24.8991 74.0569 23.9749 74.0569 22.936C74.0569 21.8702 74.2795 20.9393 74.7248 20.1432C75.1835 19.3337 75.8041 18.7064 76.5866 18.2612C77.3691 17.8024 78.2461 17.5731 79.2175 17.5731C80.2024 17.5731 81.0793 17.8024 81.8484 18.2612C82.6309 18.7064 83.2447 19.3337 83.69 20.1432C84.1487 20.9393 84.378 21.8634 84.378 22.9158C84.378 23.9681 84.1487 24.8991 83.69 25.7086C83.2447 26.5046 82.6309 27.1319 81.8484 27.5906C81.0658 28.0359 80.1821 28.2585 79.1973 28.2585ZM79.1973 25.8907C79.656 25.8907 80.0607 25.7828 80.4115 25.5669C80.7758 25.351 81.0591 25.0205 81.2615 24.5753C81.4773 24.13 81.5853 23.5769 81.5853 22.9158C81.5853 22.2547 81.4773 21.7083 81.2615 21.2765C81.0591 20.8313 80.7758 20.5008 80.4115 20.2849C80.0607 20.0555 79.6627 19.9409 79.2175 19.9409C78.7858 19.9409 78.3878 20.0555 78.0235 20.2849C77.6592 20.5008 77.3691 20.8313 77.1533 21.2765C76.9509 21.7083 76.8497 22.2547 76.8497 22.9158C76.8497 23.5769 76.9509 24.13 77.1533 24.5753C77.3691 25.0205 77.6525 25.351 78.0032 25.5669C78.3675 25.7828 78.7655 25.8907 79.1973 25.8907ZM92.1766 28.2585C91.6504 28.2585 91.1782 28.191 90.76 28.0561C90.3552 27.9212 89.9909 27.739 89.6671 27.5097C89.3568 27.2668 89.0938 26.997 88.8779 26.7002L88.5743 28.0156H86.1458V13.4446H88.8779V19.2326C89.2017 18.7603 89.6267 18.3691 90.1528 18.0588C90.6925 17.735 91.3603 17.5731 92.1564 17.5731C93.1008 17.5731 93.9373 17.8092 94.6658 18.2814C95.4078 18.7401 95.988 19.3742 96.4062 20.1837C96.838 20.9797 97.0538 21.8972 97.0538 22.936C97.0538 23.9479 96.838 24.8586 96.4062 25.6681C95.988 26.4776 95.4146 27.1117 94.686 27.5704C93.9575 28.0291 93.121 28.2585 92.1766 28.2585ZM91.529 25.8705C92.0687 25.8705 92.5409 25.749 92.9456 25.5062C93.3639 25.2498 93.6877 24.9058 93.917 24.4741C94.1464 24.0288 94.2611 23.5162 94.2611 22.936C94.2611 22.3559 94.1464 21.8432 93.917 21.398C93.6877 20.9393 93.3639 20.5885 92.9456 20.3456C92.5409 20.0893 92.0687 19.9611 91.529 19.9611C91.0028 19.9611 90.5306 20.0893 90.1124 20.3456C89.7076 20.5885 89.3838 20.9325 89.141 21.3777C88.9116 21.823 88.7969 22.3356 88.7969 22.9158C88.7969 23.4959 88.9116 24.0153 89.141 24.4741C89.3838 24.9193 89.7076 25.2633 90.1124 25.5062C90.5306 25.749 91.0028 25.8705 91.529 25.8705ZM98.8807 28.0156V17.8159H101.613V28.0156H98.8807ZM100.257 16.4195C99.7712 16.4195 99.3664 16.2779 99.0426 15.9946C98.7323 15.6977 98.5772 15.3267 98.5772 14.8815C98.5772 14.4363 98.7323 14.072 99.0426 13.7887C99.3664 13.4919 99.7712 13.3435 100.257 13.3435C100.756 13.3435 101.161 13.4919 101.471 13.7887C101.795 14.072 101.957 14.4363 101.957 14.8815C101.957 15.3267 101.795 15.6977 101.471 15.9946C101.161 16.2779 100.756 16.4195 100.257 16.4195ZM103.787 28.0156V13.4446H106.519V28.0156H103.787ZM108.656 28.0156V17.8159H111.388V28.0156H108.656ZM110.032 16.4195C109.546 16.4195 109.141 16.2779 108.818 15.9946C108.507 15.6977 108.352 15.3267 108.352 14.8815C108.352 14.4363 108.507 14.072 108.818 13.7887C109.141 13.4919 109.546 13.3435 110.032 13.3435C110.531 13.3435 110.936 13.4919 111.246 13.7887C111.57 14.072 111.732 14.4363 111.732 14.8815C111.732 15.3267 111.57 15.6977 111.246 15.9946C110.936 16.2779 110.531 16.4195 110.032 16.4195ZM118.156 28.0156C117.44 28.0156 116.813 27.9077 116.273 27.6918C115.747 27.4625 115.336 27.0914 115.039 26.5788C114.742 26.0526 114.594 25.3375 114.594 24.4336V20.1028H112.853V17.8159H114.594L114.897 15.0434H117.326V17.8159H120.017V20.1028H117.326V24.4741C117.326 24.9328 117.427 25.2498 117.629 25.4252C117.832 25.6006 118.176 25.6883 118.661 25.6883H119.997V28.0156H118.156ZM123.025 32.4679L125.494 26.8823H124.887L120.799 17.8159H123.774L126.688 24.3931L129.319 17.8159H132.213L125.919 32.4679H123.025ZM143.078 28.2585C142.039 28.2585 141.094 28.0494 140.244 27.6311C139.394 27.2129 138.72 26.5855 138.221 25.749C137.721 24.9125 137.472 23.8467 137.472 22.5515V13.8494H140.204V22.5717C140.204 23.2733 140.319 23.8669 140.548 24.3526C140.777 24.8248 141.108 25.1756 141.54 25.405C141.985 25.6343 142.511 25.749 143.118 25.749C143.739 25.749 144.265 25.6343 144.697 25.405C145.142 25.1756 145.479 24.8248 145.709 24.3526C145.938 23.8669 146.053 23.2733 146.053 22.5717V13.8494H148.785V22.5515C148.785 23.8467 148.528 24.9125 148.016 25.749C147.503 26.5855 146.808 27.2129 145.931 27.6311C145.068 28.0494 144.117 28.2585 143.078 28.2585ZM150.132 28.0156L154.604 20.8313L150.071 13.8494H153.228L156.345 18.6861L159.198 13.8494H162.274L157.842 20.9527L162.396 28.0156H159.239L156.102 23.0979L153.228 28.0156H150.132Z" fill="#F4F1EC"/>
<path d="M153.916 51.2995C153.916 52.6332 152.349 53.3494 151.341 52.4763L138.199 41.0949C137.109 40.1513 137.776 38.3614 139.218 38.3614L152.36 38.3614C153.22 38.3614 153.917 39.0584 153.916 39.9181L153.916 51.2995Z" fill="#111111"/>
</svg>
