<svg width="163" height="43" viewBox="0 0 163 43" fill="none" xmlns="http://www.w3.org/2000/svg">
<rect x="13.5245" width="149.464" height="42.0317" rx="7.00528" fill="#111111"/>
<path d="M33.1004 28.2585C32.1695 28.2585 31.333 28.0291 30.591 27.5704C29.8624 27.1117 29.289 26.4776 28.8708 25.6681C28.4525 24.8586 28.2434 23.9479 28.2434 22.936C28.2434 21.8972 28.4525 20.9797 28.8708 20.1837C29.3025 19.3742 29.8894 18.7401 30.6314 18.2814C31.387 17.8092 32.2302 17.5731 33.1611 17.5731C33.8897 17.5731 34.5305 17.708 35.0837 17.9778C35.6368 18.2477 36.0821 18.6322 36.4194 19.1314V13.4446H39.1514V28.0156H36.7229L36.4194 26.6192C36.217 26.9026 35.9606 27.1724 35.6503 27.4287C35.3535 27.6851 34.996 27.8875 34.5777 28.0359C34.1595 28.1843 33.6671 28.2585 33.1004 28.2585ZM33.748 25.8705C34.2877 25.8705 34.7599 25.749 35.1646 25.5062C35.5829 25.2498 35.9067 24.8991 36.136 24.4538C36.3654 24.0086 36.4801 23.4959 36.4801 22.9158C36.4801 22.3356 36.3654 21.823 36.136 21.3777C35.9067 20.9325 35.5829 20.5885 35.1646 20.3456C34.7599 20.0893 34.2877 19.9611 33.748 19.9611C33.2353 19.9611 32.7699 20.0893 32.3516 20.3456C31.9334 20.5885 31.6028 20.9325 31.36 21.3777C31.1306 21.823 31.0159 22.3289 31.0159 22.8955C31.0159 23.4892 31.1306 24.0086 31.36 24.4538C31.6028 24.8991 31.9266 25.2498 32.3314 25.5062C32.7496 25.749 33.2218 25.8705 33.748 25.8705ZM41.3021 28.0156V17.8159H44.0342V28.0156H41.3021ZM42.6783 16.4195C42.1926 16.4195 41.7878 16.2779 41.464 15.9946C41.1537 15.6977 40.9986 15.3267 40.9986 14.8815C40.9986 14.4363 41.1537 14.072 41.464 13.7887C41.7878 13.4919 42.1926 13.3435 42.6783 13.3435C43.1775 13.3435 43.5822 13.4919 43.8925 13.7887C44.2163 14.072 44.3782 14.4363 44.3782 14.8815C44.3782 15.3267 44.2163 15.6977 43.8925 15.9946C43.5822 16.2779 43.1775 16.4195 42.6783 16.4195ZM50.5995 32.7107C49.6281 32.7107 48.7781 32.5893 48.0496 32.3464C47.321 32.1171 46.7544 31.7596 46.3496 31.2739C45.9584 30.8017 45.7627 30.2148 45.7627 29.5132C45.7627 29.041 45.8842 28.5958 46.127 28.1775C46.3699 27.7593 46.7207 27.3815 47.1794 27.0442C47.6516 26.6934 48.2385 26.3966 48.94 26.1538L49.9721 27.4895C49.3515 27.6918 48.8996 27.9414 48.6162 28.2382C48.3464 28.5485 48.2115 28.8791 48.2115 29.2299C48.2115 29.5402 48.3127 29.8033 48.515 30.0191C48.7309 30.235 49.0142 30.3902 49.365 30.4846C49.7293 30.5925 50.134 30.6465 50.5793 30.6465C51.011 30.6465 51.382 30.5925 51.6923 30.4846C52.0161 30.3767 52.2657 30.2148 52.4411 29.9989C52.63 29.7965 52.7244 29.5537 52.7244 29.2703C52.7244 28.9061 52.5963 28.6093 52.3399 28.3799C52.0836 28.1505 51.5709 28.0089 50.8019 27.9549C50.1138 27.9009 49.4999 27.8267 48.9603 27.7323C48.4341 27.6244 47.9686 27.5029 47.5639 27.368C47.1591 27.2196 46.8151 27.0577 46.5318 26.8823C46.2619 26.7069 46.0393 26.5315 45.8639 26.3562V25.8907L48.0293 23.5634L49.9924 24.1907L47.4425 26.7002L48.2115 25.3645C48.3599 25.4455 48.5016 25.5264 48.6365 25.6074C48.7849 25.6748 48.967 25.7423 49.1829 25.8097C49.3987 25.8637 49.6821 25.9177 50.0329 25.9716C50.3836 26.0256 50.8289 26.0728 51.3685 26.1133C52.259 26.1943 52.9875 26.3629 53.5542 26.6192C54.1343 26.8756 54.5593 27.2196 54.8291 27.6514C55.099 28.0696 55.2339 28.589 55.2339 29.2096C55.2339 29.8168 55.0652 30.3834 54.728 30.9096C54.4042 31.4493 53.8982 31.881 53.2101 32.2048C52.5221 32.5421 51.6519 32.7107 50.5995 32.7107ZM50.5995 25.0002C49.7495 25.0002 49.0142 24.8383 48.3936 24.5145C47.7865 24.1772 47.3143 23.732 46.977 23.1789C46.6532 22.6122 46.4913 21.9849 46.4913 21.2968C46.4913 20.6087 46.6532 19.9881 46.977 19.4349C47.3143 18.8683 47.7865 18.4163 48.3936 18.079C49.0142 17.7417 49.7495 17.5731 50.5995 17.5731C51.463 17.5731 52.1983 17.7417 52.8054 18.079C53.426 18.4163 53.8982 18.8683 54.222 19.4349C54.5458 19.9881 54.7077 20.6087 54.7077 21.2968C54.7077 21.9849 54.5458 22.6122 54.222 23.1789C53.8982 23.732 53.426 24.1772 52.8054 24.5145C52.1983 24.8383 51.463 25.0002 50.5995 25.0002ZM50.5995 22.9158C51.1257 22.9158 51.5507 22.7809 51.8745 22.511C52.1983 22.2412 52.3602 21.8432 52.3602 21.317C52.3602 20.7908 52.1983 20.3928 51.8745 20.123C51.5507 19.8397 51.1257 19.698 50.5995 19.698C50.0868 19.698 49.6618 19.8397 49.3245 20.123C49.0007 20.3928 48.8388 20.7908 48.8388 21.317C48.8388 21.8432 49.0007 22.2412 49.3245 22.511C49.6618 22.7809 50.0868 22.9158 50.5995 22.9158ZM52.2995 19.7587L51.8542 17.8159H56.0434V19.4349L52.2995 19.7587ZM57.7373 28.0156V17.8159H60.4694V28.0156H57.7373ZM59.1135 16.4195C58.6278 16.4195 58.223 16.2779 57.8992 15.9946C57.5889 15.6977 57.4338 15.3267 57.4338 14.8815C57.4338 14.4363 57.5889 14.072 57.8992 13.7887C58.223 13.4919 58.6278 13.3435 59.1135 13.3435C59.6127 13.3435 60.0174 13.4919 60.3277 13.7887C60.6515 14.072 60.8134 14.4363 60.8134 14.8815C60.8134 15.3267 60.6515 15.6977 60.3277 15.9946C60.0174 16.2779 59.6127 16.4195 59.1135 16.4195ZM67.2371 28.0156C66.522 28.0156 65.8947 27.9077 65.355 27.6918C64.8288 27.4625 64.4173 27.0914 64.1205 26.5788C63.8237 26.0526 63.6753 25.3375 63.6753 24.4336V20.1028H61.9349V17.8159H63.6753L63.9789 15.0434H66.4073V17.8159H69.0989V20.1028H66.4073V24.4741C66.4073 24.9328 66.5085 25.2498 66.7109 25.4252C66.9133 25.6006 67.2573 25.6883 67.743 25.6883H69.0787V28.0156H67.2371ZM74.2517 28.2585C73.4018 28.2585 72.7002 28.1236 72.147 27.8537C71.5939 27.5704 71.1824 27.1994 70.9126 26.7407C70.6562 26.2685 70.528 25.749 70.528 25.1824C70.528 24.5618 70.6832 24.0153 70.9935 23.5431C71.3173 23.0709 71.7963 22.6999 72.4304 22.4301C73.078 22.1602 73.8875 22.0253 74.8589 22.0253H77.3886C77.3886 21.5261 77.3211 21.1146 77.1862 20.7908C77.0513 20.4536 76.8421 20.204 76.5588 20.0421C76.2755 19.8802 75.8977 19.7992 75.4255 19.7992C74.9128 19.7992 74.4744 19.9139 74.1101 20.1432C73.7593 20.3591 73.5434 20.6964 73.4625 21.1551H70.8114C70.8788 20.4266 71.1149 19.7992 71.5197 19.273C71.9379 18.7334 72.4843 18.3151 73.1589 18.0183C73.847 17.7215 74.6093 17.5731 75.4458 17.5731C76.4037 17.5731 77.2334 17.735 77.935 18.0588C78.6365 18.3826 79.1762 18.848 79.554 19.4552C79.9317 20.0623 80.1206 20.8111 80.1206 21.7015V28.0156H77.8135L77.51 26.4573C77.3616 26.7272 77.1862 26.97 76.9838 27.1859C76.7814 27.4018 76.5453 27.5906 76.2755 27.7525C76.0057 27.9144 75.7021 28.0359 75.3648 28.1168C75.0275 28.2113 74.6565 28.2585 74.2517 28.2585ZM74.8993 26.1538C75.2501 26.1538 75.5604 26.0931 75.8303 25.9716C76.1136 25.8367 76.3564 25.6613 76.5588 25.4455C76.7612 25.2161 76.9163 24.9598 77.0243 24.6764C77.1457 24.3796 77.2267 24.0626 77.2671 23.7253V23.705H75.1827C74.7644 23.705 74.4204 23.759 74.1506 23.8669C73.8942 23.9614 73.7053 24.103 73.5839 24.2919C73.4625 24.4808 73.4018 24.6967 73.4018 24.9395C73.4018 25.2094 73.4625 25.432 73.5839 25.6074C73.7053 25.7828 73.8807 25.9177 74.1101 26.0121C74.3394 26.1066 74.6025 26.1538 74.8993 26.1538ZM82.0824 28.0156V13.4446H84.8144V28.0156H82.0824ZM91.0669 28.0156V17.8159H93.4751L93.6978 19.1718C94.0216 18.6861 94.4465 18.3016 94.9727 18.0183C95.5124 17.7215 96.1262 17.5731 96.8143 17.5731C97.327 17.5731 97.7857 17.6405 98.1905 17.7755C98.5952 17.9104 98.9528 18.106 99.2631 18.3623C99.5869 18.6187 99.8499 18.9425 100.052 19.3337C100.43 18.7806 100.923 18.3489 101.53 18.0385C102.137 17.7282 102.798 17.5731 103.513 17.5731C104.403 17.5731 105.145 17.7552 105.739 18.1195C106.333 18.4703 106.778 18.983 107.075 19.6575C107.385 20.3321 107.54 21.1619 107.54 22.1468V28.0156H104.828V22.3896C104.828 21.5801 104.666 20.9595 104.343 20.5278C104.032 20.096 103.547 19.8802 102.886 19.8802C102.454 19.8802 102.069 19.9881 101.732 20.204C101.395 20.4198 101.132 20.7301 100.943 21.1349C100.767 21.5396 100.68 22.0253 100.68 22.592V28.0156H97.9476V22.3896C97.9476 21.5801 97.7857 20.9595 97.4619 20.5278C97.1381 20.096 96.6389 19.8802 95.9644 19.8802C95.5461 19.8802 95.1683 19.9881 94.8311 20.204C94.5073 20.4198 94.2509 20.7301 94.062 21.1349C93.8866 21.5396 93.7989 22.0253 93.7989 22.592V28.0156H91.0669ZM114.429 28.2585C113.404 28.2585 112.493 28.0426 111.697 27.6109C110.915 27.1657 110.301 26.5518 109.855 25.7693C109.424 24.9733 109.208 24.0558 109.208 23.017C109.208 21.9511 109.424 21.0135 109.855 20.204C110.301 19.381 110.915 18.7401 111.697 18.2814C112.48 17.8092 113.39 17.5731 114.429 17.5731C115.441 17.5731 116.325 17.7957 117.08 18.2409C117.836 18.6861 118.423 19.2865 118.841 20.0421C119.259 20.7976 119.468 21.6543 119.468 22.6122C119.468 22.7471 119.468 22.9023 119.468 23.0777C119.468 23.2396 119.455 23.4082 119.428 23.5836H111.151V21.9241H116.716C116.676 21.2631 116.439 20.7436 116.008 20.3659C115.589 19.9881 115.063 19.7992 114.429 19.7992C113.97 19.7992 113.545 19.9071 113.154 20.123C112.763 20.3254 112.453 20.6424 112.223 21.0742C112.007 21.5059 111.899 22.0523 111.899 22.7134V23.3003C111.899 23.8534 112.001 24.3391 112.203 24.7574C112.419 25.1621 112.716 25.4792 113.093 25.7086C113.471 25.9244 113.91 26.0324 114.409 26.0324C114.908 26.0324 115.32 25.9244 115.643 25.7086C115.981 25.4927 116.23 25.2161 116.392 24.8788H119.185C118.996 25.5129 118.679 26.0863 118.234 26.599C117.789 27.1117 117.242 27.5164 116.595 27.8133C115.947 28.1101 115.225 28.2585 114.429 28.2585ZM125.652 28.2585C124.721 28.2585 123.885 28.0291 123.143 27.5704C122.414 27.1117 121.841 26.4776 121.422 25.6681C121.004 24.8586 120.795 23.9479 120.795 22.936C120.795 21.8972 121.004 20.9797 121.422 20.1837C121.854 19.3742 122.441 18.7401 123.183 18.2814C123.939 17.8092 124.782 17.5731 125.713 17.5731C126.441 17.5731 127.082 17.708 127.635 17.9778C128.189 18.2477 128.634 18.6322 128.971 19.1314V13.4446H131.703V28.0156H129.275L128.971 26.6192C128.769 26.9026 128.512 27.1724 128.202 27.4287C127.905 27.6851 127.548 27.8875 127.129 28.0359C126.711 28.1843 126.219 28.2585 125.652 28.2585ZM126.3 25.8705C126.839 25.8705 127.312 25.749 127.716 25.5062C128.135 25.2498 128.458 24.8991 128.688 24.4538C128.917 24.0086 129.032 23.4959 129.032 22.9158C129.032 22.3356 128.917 21.823 128.688 21.3777C128.458 20.9325 128.135 20.5885 127.716 20.3456C127.312 20.0893 126.839 19.9611 126.3 19.9611C125.787 19.9611 125.322 20.0893 124.903 20.3456C124.485 20.5885 124.155 20.9325 123.912 21.3777C123.682 21.823 123.568 22.3289 123.568 22.8955C123.568 23.4892 123.682 24.0086 123.912 24.4538C124.155 24.8991 124.478 25.2498 124.883 25.5062C125.301 25.749 125.774 25.8705 126.3 25.8705ZM133.854 28.0156V17.8159H136.586V28.0156H133.854ZM135.23 16.4195C134.744 16.4195 134.34 16.2779 134.016 15.9946C133.705 15.6977 133.55 15.3267 133.55 14.8815C133.55 14.4363 133.705 14.072 134.016 13.7887C134.34 13.4919 134.744 13.3435 135.23 13.3435C135.729 13.3435 136.134 13.4919 136.444 13.7887C136.768 14.072 136.93 14.4363 136.93 14.8815C136.93 15.3267 136.768 15.6977 136.444 15.9946C136.134 16.2779 135.729 16.4195 135.23 16.4195ZM142.2 28.2585C141.35 28.2585 140.649 28.1236 140.095 27.8537C139.542 27.5704 139.131 27.1994 138.861 26.7407C138.605 26.2685 138.476 25.749 138.476 25.1824C138.476 24.5618 138.631 24.0153 138.942 23.5431C139.266 23.0709 139.745 22.6999 140.379 22.4301C141.026 22.1602 141.836 22.0253 142.807 22.0253H145.337C145.337 21.5261 145.269 21.1146 145.134 20.7908C145 20.4536 144.79 20.204 144.507 20.0421C144.224 19.8802 143.846 19.7992 143.374 19.7992C142.861 19.7992 142.423 19.9139 142.058 20.1432C141.708 20.3591 141.492 20.6964 141.411 21.1551H138.76C138.827 20.4266 139.063 19.7992 139.468 19.273C139.886 18.7334 140.433 18.3151 141.107 18.0183C141.795 17.7215 142.558 17.5731 143.394 17.5731C144.352 17.5731 145.182 17.735 145.883 18.0588C146.585 18.3826 147.124 18.848 147.502 19.4552C147.88 20.0623 148.069 20.8111 148.069 21.7015V28.0156H145.762L145.458 26.4573C145.31 26.7272 145.134 26.97 144.932 27.1859C144.73 27.4018 144.494 27.5906 144.224 27.7525C143.954 27.9144 143.65 28.0359 143.313 28.1168C142.976 28.2113 142.605 28.2585 142.2 28.2585ZM142.848 26.1538C143.198 26.1538 143.509 26.0931 143.779 25.9716C144.062 25.8367 144.305 25.6613 144.507 25.4455C144.709 25.2161 144.865 24.9598 144.973 24.6764C145.094 24.3796 145.175 24.0626 145.215 23.7253V23.705H143.131C142.713 23.705 142.369 23.759 142.099 23.8669C141.843 23.9614 141.654 24.103 141.532 24.2919C141.411 24.4808 141.35 24.6967 141.35 24.9395C141.35 25.2094 141.411 25.432 141.532 25.6074C141.654 25.7828 141.829 25.9177 142.058 26.0121C142.288 26.1066 142.551 26.1538 142.848 26.1538Z" fill="#F4F1EC"/>
<path d="M3.40751 10.4112C2.07378 10.4112 1.35761 11.9789 2.23075 12.9871L13.6122 26.1291C14.5557 27.2187 16.3457 26.5513 16.3457 25.11L16.3457 11.9679C16.3457 11.1081 15.6487 10.4111 14.7889 10.4111L3.40751 10.4112Z" fill="#111111"/>
</svg>
