<svg width="298" height="58" viewBox="0 0 298 58" fill="none" xmlns="http://www.w3.org/2000/svg">
<rect y="0.585938" width="297.464" height="42.0317" rx="7.00528" fill="#111111"/>
<path d="M14.8339 28.6016V14.4353H24.1432V16.6412H17.566V20.3447H23.536V22.4696H17.566V26.3957H24.1432V28.6016H14.8339ZM25.9849 28.6016V18.4019H28.3932L28.6158 19.7578C28.9396 19.2721 29.3646 18.8876 29.8908 18.6042C30.4304 18.3074 31.0443 18.159 31.7324 18.159C32.2451 18.159 32.7038 18.2265 33.1085 18.3614C33.5133 18.4963 33.8708 18.6919 34.1811 18.9483C34.5049 19.2046 34.768 19.5284 34.9704 19.9197C35.3481 19.3665 35.8406 18.9348 36.4477 18.6245C37.0548 18.3142 37.7159 18.159 38.431 18.159C39.3214 18.159 40.0635 18.3412 40.6571 18.7054C41.2507 19.0562 41.696 19.5689 41.9928 20.2435C42.3031 20.9181 42.4582 21.7478 42.4582 22.7327V28.6016H39.7464V22.9755C39.7464 22.166 39.5845 21.5454 39.2607 21.1137C38.9504 20.682 38.4647 20.4661 37.8036 20.4661C37.3719 20.4661 36.9874 20.574 36.6501 20.7899C36.3128 21.0058 36.0497 21.3161 35.8608 21.7208C35.6854 22.1256 35.5977 22.6113 35.5977 23.1779V28.6016H32.8657V22.9755C32.8657 22.166 32.7038 21.5454 32.38 21.1137C32.0562 20.682 31.557 20.4661 30.8824 20.4661C30.4642 20.4661 30.0864 20.574 29.7491 20.7899C29.4253 21.0058 29.169 21.3161 28.9801 21.7208C28.8047 22.1256 28.717 22.6113 28.717 23.1779V28.6016H25.9849ZM44.4497 33.0538V18.4019H46.8782L47.1818 19.8185C47.3977 19.5217 47.654 19.2518 47.9508 19.009C48.2476 18.7527 48.5984 18.5503 49.0032 18.4019C49.4214 18.24 49.9071 18.159 50.4603 18.159C51.4182 18.159 52.2614 18.3951 52.99 18.8673C53.7185 19.3395 54.2919 19.9804 54.7101 20.7899C55.1419 21.5859 55.3577 22.4966 55.3577 23.522C55.3577 24.5473 55.1419 25.4648 54.7101 26.2743C54.2784 27.0703 53.6983 27.6976 52.9697 28.1563C52.2412 28.6151 51.4114 28.8444 50.4805 28.8444C49.725 28.8444 49.0706 28.7095 48.5175 28.4397C47.9778 28.1563 47.5326 27.7718 47.1818 27.2861V33.0538H44.4497ZM49.8329 26.4564C50.3726 26.4564 50.8448 26.335 51.2495 26.0921C51.6678 25.8493 51.9916 25.5052 52.2209 25.06C52.4503 24.6148 52.565 24.1021 52.565 23.522C52.565 22.9418 52.4503 22.4291 52.2209 21.9839C51.9916 21.5252 51.6678 21.1744 51.2495 20.9316C50.8448 20.6752 50.3726 20.547 49.8329 20.547C49.3067 20.547 48.8345 20.6752 48.4163 20.9316C48.0115 21.1744 47.6877 21.5184 47.4449 21.9637C47.2155 22.4089 47.1008 22.9216 47.1008 23.5017C47.1008 24.0819 47.2155 24.6013 47.4449 25.06C47.6877 25.5052 48.0115 25.8493 48.4163 26.0921C48.8345 26.335 49.3067 26.4564 49.8329 26.4564ZM57.1239 28.6016V14.0306H59.856V28.6016H57.1239ZM66.7489 28.8444C65.7775 28.8444 64.9006 28.6218 64.118 28.1766C63.349 27.7179 62.7351 27.0905 62.2764 26.2945C61.8312 25.485 61.6086 24.5608 61.6086 23.522C61.6086 22.4561 61.8312 21.5252 62.2764 20.7292C62.7351 19.9197 63.3558 19.2923 64.1383 18.8471C64.9208 18.3884 65.7977 18.159 66.7691 18.159C67.754 18.159 68.631 18.3884 69.4 18.8471C70.1825 19.2923 70.7964 19.9197 71.2416 20.7292C71.7003 21.5252 71.9297 22.4494 71.9297 23.5017C71.9297 24.5541 71.7003 25.485 71.2416 26.2945C70.7964 27.0905 70.1825 27.7179 69.4 28.1766C68.6175 28.6218 67.7338 28.8444 66.7489 28.8444ZM66.7489 26.4766C67.2076 26.4766 67.6124 26.3687 67.9632 26.1528C68.3274 25.937 68.6108 25.6064 68.8131 25.1612C69.029 24.716 69.1369 24.1628 69.1369 23.5017C69.1369 22.8406 69.029 22.2942 68.8131 21.8625C68.6108 21.4173 68.3274 21.0867 67.9632 20.8708C67.6124 20.6415 67.2144 20.5268 66.7691 20.5268C66.3374 20.5268 65.9394 20.6415 65.5751 20.8708C65.2109 21.0867 64.9208 21.4173 64.7049 21.8625C64.5025 22.2942 64.4014 22.8406 64.4014 23.5017C64.4014 24.1628 64.5025 24.716 64.7049 25.1612C64.9208 25.6064 65.2041 25.937 65.5549 26.1528C65.9192 26.3687 66.3172 26.4766 66.7489 26.4766ZM74.0638 33.0538L76.5328 27.4683H75.9257L71.8377 18.4019H74.8126L77.7268 24.9791L80.3577 18.4019H83.2516L76.9578 33.0538H74.0638ZM88.4233 28.8444C87.3979 28.8444 86.4872 28.6285 85.6912 28.1968C84.9087 27.7516 84.2948 27.1377 83.8496 26.3552C83.4178 25.5592 83.202 24.6418 83.202 23.6029C83.202 22.5371 83.4178 21.5994 83.8496 20.7899C84.2948 19.9669 84.9087 19.326 85.6912 18.8673C86.4737 18.3951 87.3844 18.159 88.4233 18.159C89.4351 18.159 90.3188 18.3816 91.0744 18.8269C91.8299 19.2721 92.4168 19.8725 92.835 20.628C93.2533 21.3835 93.4624 22.2402 93.4624 23.1982C93.4624 23.3331 93.4624 23.4882 93.4624 23.6636C93.4624 23.8255 93.4489 23.9942 93.4219 24.1696H85.1448V22.5101H90.7101C90.6696 21.849 90.4335 21.3296 90.0018 20.9518C89.5835 20.574 89.0574 20.3851 88.4233 20.3851C87.9645 20.3851 87.5396 20.4931 87.1483 20.7089C86.757 20.9113 86.4467 21.2284 86.2174 21.6601C86.0015 22.0918 85.8936 22.6383 85.8936 23.2993V23.8862C85.8936 24.4394 85.9948 24.9251 86.1971 25.3433C86.413 25.7481 86.7098 26.0651 87.0876 26.2945C87.4653 26.5104 87.9038 26.6183 88.403 26.6183C88.9022 26.6183 89.3137 26.5104 89.6375 26.2945C89.9748 26.0786 90.2244 25.802 90.3863 25.4648H93.1791C92.9902 26.0989 92.6731 26.6723 92.2279 27.1849C91.7827 27.6976 91.2363 28.1024 90.5887 28.3992C89.9411 28.696 89.2193 28.8444 88.4233 28.8444ZM100.01 28.8444C98.9851 28.8444 98.0744 28.6285 97.2784 28.1968C96.4959 27.7516 95.882 27.1377 95.4368 26.3552C95.0051 25.5592 94.7892 24.6418 94.7892 23.6029C94.7892 22.5371 95.0051 21.5994 95.4368 20.7899C95.882 19.9669 96.4959 19.326 97.2784 18.8673C98.0609 18.3951 98.9716 18.159 100.01 18.159C101.022 18.159 101.906 18.3816 102.662 18.8269C103.417 19.2721 104.004 19.8725 104.422 20.628C104.84 21.3835 105.05 22.2402 105.05 23.1982C105.05 23.3331 105.05 23.4882 105.05 23.6636C105.05 23.8255 105.036 23.9942 105.009 24.1696H96.732V22.5101H102.297C102.257 21.849 102.021 21.3296 101.589 20.9518C101.171 20.574 100.645 20.3851 100.01 20.3851C99.5518 20.3851 99.1268 20.4931 98.7355 20.7089C98.3443 20.9113 98.0339 21.2284 97.8046 21.6601C97.5887 22.0918 97.4808 22.6383 97.4808 23.2993V23.8862C97.4808 24.4394 97.582 24.9251 97.7844 25.3433C98.0002 25.7481 98.297 26.0651 98.6748 26.2945C99.0526 26.5104 99.491 26.6183 99.9902 26.6183C100.489 26.6183 100.901 26.5104 101.225 26.2945C101.562 26.0786 101.812 25.802 101.974 25.4648H104.766C104.577 26.0989 104.26 26.6723 103.815 27.1849C103.37 27.6976 102.823 28.1024 102.176 28.3992C101.528 28.696 100.806 28.8444 100.01 28.8444ZM110.937 28.6016V14.4353H120.246V16.6412H113.669V20.3447H119.639V22.4696H113.669V26.3957H120.246V28.6016H110.937ZM121.137 28.6016L124.8 23.5017L121.137 18.4019H124.091L126.54 21.903L128.989 18.4019H131.923L128.26 23.5017L131.923 28.6016H128.989L126.54 25.0802L124.091 28.6016H121.137ZM133.063 33.0538V18.4019H135.491L135.795 19.8185C136.01 19.5217 136.267 19.2518 136.564 19.009C136.86 18.7527 137.211 18.5503 137.616 18.4019C138.034 18.24 138.52 18.159 139.073 18.159C140.031 18.159 140.874 18.3951 141.603 18.8673C142.331 19.3395 142.905 19.9804 143.323 20.7899C143.755 21.5859 143.971 22.4966 143.971 23.522C143.971 24.5473 143.755 25.4648 143.323 26.2743C142.891 27.0703 142.311 27.6976 141.583 28.1563C140.854 28.6151 140.024 28.8444 139.093 28.8444C138.338 28.8444 137.683 28.7095 137.13 28.4397C136.591 28.1563 136.145 27.7718 135.795 27.2861V33.0538H133.063ZM138.446 26.4564C138.985 26.4564 139.458 26.335 139.862 26.0921C140.281 25.8493 140.604 25.5052 140.834 25.06C141.063 24.6148 141.178 24.1021 141.178 23.522C141.178 22.9418 141.063 22.4291 140.834 21.9839C140.604 21.5252 140.281 21.1744 139.862 20.9316C139.458 20.6752 138.985 20.547 138.446 20.547C137.92 20.547 137.447 20.6752 137.029 20.9316C136.624 21.1744 136.301 21.5184 136.058 21.9637C135.828 22.4089 135.714 22.9216 135.714 23.5017C135.714 24.0819 135.828 24.6013 136.058 25.06C136.301 25.5052 136.624 25.8493 137.029 26.0921C137.447 26.335 137.92 26.4564 138.446 26.4564ZM150.634 28.8444C149.609 28.8444 148.698 28.6285 147.902 28.1968C147.12 27.7516 146.506 27.1377 146.061 26.3552C145.629 25.5592 145.413 24.6418 145.413 23.6029C145.413 22.5371 145.629 21.5994 146.061 20.7899C146.506 19.9669 147.12 19.326 147.902 18.8673C148.685 18.3951 149.595 18.159 150.634 18.159C151.646 18.159 152.53 18.3816 153.285 18.8269C154.041 19.2721 154.628 19.8725 155.046 20.628C155.464 21.3835 155.673 22.2402 155.673 23.1982C155.673 23.3331 155.673 23.4882 155.673 23.6636C155.673 23.8255 155.66 23.9942 155.633 24.1696H147.356V22.5101H152.921C152.881 21.849 152.644 21.3296 152.213 20.9518C151.795 20.574 151.268 20.3851 150.634 20.3851C150.176 20.3851 149.751 20.4931 149.359 20.7089C148.968 20.9113 148.658 21.2284 148.428 21.6601C148.212 22.0918 148.105 22.6383 148.105 23.2993V23.8862C148.105 24.4394 148.206 24.9251 148.408 25.3433C148.624 25.7481 148.921 26.0651 149.299 26.2945C149.676 26.5104 150.115 26.6183 150.614 26.6183C151.113 26.6183 151.525 26.5104 151.848 26.2945C152.186 26.0786 152.435 25.802 152.597 25.4648H155.39C155.201 26.0989 154.884 26.6723 154.439 27.1849C153.994 27.6976 153.447 28.1024 152.8 28.3992C152.152 28.696 151.43 28.8444 150.634 28.8444ZM157.324 28.6016V18.4019H159.752L160.016 20.284C160.258 19.8387 160.562 19.461 160.926 19.1507C161.304 18.8404 161.729 18.5975 162.201 18.4221C162.687 18.2467 163.22 18.159 163.8 18.159V21.053H162.869C162.464 21.053 162.087 21.1002 161.736 21.1946C161.398 21.2891 161.102 21.4442 160.845 21.6601C160.589 21.8625 160.393 22.1458 160.258 22.5101C160.123 22.8744 160.056 23.3331 160.056 23.8862V28.6016H157.324ZM165.079 28.6016V18.4019H167.811V28.6016H165.079ZM166.455 17.0055C165.969 17.0055 165.564 16.8638 165.24 16.5805C164.93 16.2837 164.775 15.9127 164.775 15.4674C164.775 15.0222 164.93 14.6579 165.24 14.3746C165.564 14.0778 165.969 13.9294 166.455 13.9294C166.954 13.9294 167.359 14.0778 167.669 14.3746C167.993 14.6579 168.155 15.0222 168.155 15.4674C168.155 15.9127 167.993 16.2837 167.669 16.5805C167.359 16.8638 166.954 17.0055 166.455 17.0055ZM174.882 28.8444C173.857 28.8444 172.946 28.6285 172.15 28.1968C171.367 27.7516 170.753 27.1377 170.308 26.3552C169.876 25.5592 169.661 24.6418 169.661 23.6029C169.661 22.5371 169.876 21.5994 170.308 20.7899C170.753 19.9669 171.367 19.326 172.15 18.8673C172.932 18.3951 173.843 18.159 174.882 18.159C175.894 18.159 176.777 18.3816 177.533 18.8269C178.289 19.2721 178.875 19.8725 179.294 20.628C179.712 21.3835 179.921 22.2402 179.921 23.1982C179.921 23.3331 179.921 23.4882 179.921 23.6636C179.921 23.8255 179.908 23.9942 179.881 24.1696H171.603V22.5101H177.169C177.128 21.849 176.892 21.3296 176.46 20.9518C176.042 20.574 175.516 20.3851 174.882 20.3851C174.423 20.3851 173.998 20.4931 173.607 20.7089C173.216 20.9113 172.905 21.2284 172.676 21.6601C172.46 22.0918 172.352 22.6383 172.352 23.2993V23.8862C172.352 24.4394 172.453 24.9251 172.656 25.3433C172.872 25.7481 173.168 26.0651 173.546 26.2945C173.924 26.5104 174.362 26.6183 174.862 26.6183C175.361 26.6183 175.772 26.5104 176.096 26.2945C176.433 26.0786 176.683 25.802 176.845 25.4648H179.638C179.449 26.0989 179.132 26.6723 178.687 27.1849C178.241 27.6976 177.695 28.1024 177.047 28.3992C176.4 28.696 175.678 28.8444 174.882 28.8444ZM181.572 28.6016V18.4019H183.98L184.182 20.0613C184.493 19.4947 184.931 19.036 185.498 18.6852C186.078 18.3344 186.766 18.159 187.562 18.159C188.412 18.159 189.127 18.3344 189.707 18.6852C190.287 19.036 190.726 19.5487 191.023 20.2232C191.333 20.8978 191.488 21.7276 191.488 22.7125V28.6016H188.776V22.9755C188.776 22.166 188.601 21.5454 188.25 21.1137C187.913 20.682 187.387 20.4661 186.671 20.4661C186.213 20.4661 185.801 20.574 185.437 20.7899C185.086 21.0058 184.81 21.3161 184.607 21.7208C184.405 22.1121 184.304 22.591 184.304 23.1577V28.6016H181.572ZM198.413 28.8444C197.388 28.8444 196.477 28.6151 195.681 28.1563C194.885 27.6976 194.264 27.0703 193.819 26.2743C193.374 25.4782 193.151 24.5676 193.151 23.5422C193.151 22.4898 193.374 21.5657 193.819 20.7697C194.264 19.9602 194.885 19.326 195.681 18.8673C196.477 18.3951 197.388 18.159 198.413 18.159C199.722 18.159 200.821 18.5031 201.712 19.1911C202.602 19.8792 203.169 20.8236 203.412 22.0244H200.518C200.396 21.5522 200.14 21.1812 199.749 20.9113C199.371 20.6415 198.919 20.5066 198.393 20.5066C197.921 20.5066 197.496 20.628 197.118 20.8708C196.754 21.1002 196.463 21.4442 196.248 21.903C196.045 22.3482 195.944 22.8811 195.944 23.5017C195.944 23.9739 196.005 24.3989 196.126 24.7767C196.248 25.141 196.416 25.458 196.632 25.7278C196.848 25.9842 197.104 26.1798 197.401 26.3147C197.711 26.4496 198.042 26.5171 198.393 26.5171C198.744 26.5171 199.061 26.4564 199.344 26.335C199.641 26.2135 199.89 26.0449 200.093 25.829C200.295 25.5997 200.437 25.3231 200.518 24.9993H203.412C203.169 26.1731 202.595 27.1107 201.691 27.8123C200.801 28.5004 199.708 28.8444 198.413 28.8444ZM210.078 28.8444C209.053 28.8444 208.142 28.6285 207.346 28.1968C206.564 27.7516 205.95 27.1377 205.505 26.3552C205.073 25.5592 204.857 24.6418 204.857 23.6029C204.857 22.5371 205.073 21.5994 205.505 20.7899C205.95 19.9669 206.564 19.326 207.346 18.8673C208.129 18.3951 209.039 18.159 210.078 18.159C211.09 18.159 211.974 18.3816 212.729 18.8269C213.485 19.2721 214.072 19.8725 214.49 20.628C214.908 21.3835 215.117 22.2402 215.117 23.1982C215.117 23.3331 215.117 23.4882 215.117 23.6636C215.117 23.8255 215.104 23.9942 215.077 24.1696H206.8V22.5101H212.365C212.325 21.849 212.089 21.3296 211.657 20.9518C211.239 20.574 210.712 20.3851 210.078 20.3851C209.62 20.3851 209.195 20.4931 208.803 20.7089C208.412 20.9113 208.102 21.2284 207.872 21.6601C207.657 22.0918 207.549 22.6383 207.549 23.2993V23.8862C207.549 24.4394 207.65 24.9251 207.852 25.3433C208.068 25.7481 208.365 26.0651 208.743 26.2945C209.12 26.5104 209.559 26.6183 210.058 26.6183C210.557 26.6183 210.969 26.5104 211.293 26.2945C211.63 26.0786 211.879 25.802 212.041 25.4648H214.834C214.645 26.0989 214.328 26.6723 213.883 27.1849C213.438 27.6976 212.891 28.1024 212.244 28.3992C211.596 28.696 210.874 28.8444 210.078 28.8444ZM221.005 28.6016V14.4353H225.74C227.386 14.4353 228.742 14.7321 229.808 15.3258C230.887 15.9059 231.683 16.7289 232.196 17.7947C232.722 18.8471 232.985 20.0883 232.985 21.5184C232.985 22.9486 232.722 24.1965 232.196 25.2624C231.683 26.3147 230.894 27.1377 229.828 27.7314C228.763 28.3115 227.4 28.6016 225.74 28.6016H221.005ZM223.737 26.254H225.599C226.759 26.254 227.67 26.0651 228.331 25.6874C229.005 25.3096 229.484 24.7699 229.768 24.0684C230.051 23.3533 230.193 22.5033 230.193 21.5184C230.193 20.5201 230.051 19.6701 229.768 18.9685C229.484 18.2535 229.005 17.7071 228.331 17.3293C227.67 16.9515 226.759 16.7626 225.599 16.7626H223.737V26.254ZM239.563 28.8444C238.538 28.8444 237.627 28.6285 236.831 28.1968C236.049 27.7516 235.435 27.1377 234.99 26.3552C234.558 25.5592 234.342 24.6418 234.342 23.6029C234.342 22.5371 234.558 21.5994 234.99 20.7899C235.435 19.9669 236.049 19.326 236.831 18.8673C237.614 18.3951 238.524 18.159 239.563 18.159C240.575 18.159 241.459 18.3816 242.214 18.8269C242.97 19.2721 243.557 19.8725 243.975 20.628C244.393 21.3835 244.602 22.2402 244.602 23.1982C244.602 23.3331 244.602 23.4882 244.602 23.6636C244.602 23.8255 244.589 23.9942 244.562 24.1696H236.285V22.5101H241.85C241.81 21.849 241.574 21.3296 241.142 20.9518C240.724 20.574 240.197 20.3851 239.563 20.3851C239.105 20.3851 238.68 20.4931 238.288 20.7089C237.897 20.9113 237.587 21.2284 237.357 21.6601C237.142 22.0918 237.034 22.6383 237.034 23.2993V23.8862C237.034 24.4394 237.135 24.9251 237.337 25.3433C237.553 25.7481 237.85 26.0651 238.228 26.2945C238.605 26.5104 239.044 26.6183 239.543 26.6183C240.042 26.6183 240.454 26.5104 240.778 26.2945C241.115 26.0786 241.364 25.802 241.526 25.4648H244.319C244.13 26.0989 243.813 26.6723 243.368 27.1849C242.923 27.6976 242.376 28.1024 241.729 28.3992C241.081 28.696 240.359 28.8444 239.563 28.8444ZM250.422 28.8444C249.491 28.8444 248.681 28.696 247.993 28.3992C247.305 28.1024 246.766 27.6909 246.374 27.1647C245.983 26.6385 245.761 26.0449 245.707 25.3838H248.418C248.486 25.6401 248.601 25.8762 248.762 26.0921C248.924 26.2945 249.14 26.4564 249.41 26.5778C249.68 26.6992 250.004 26.76 250.381 26.76C250.746 26.76 251.043 26.7127 251.272 26.6183C251.501 26.5104 251.67 26.3687 251.778 26.1933C251.899 26.0179 251.96 25.8358 251.96 25.6469C251.96 25.3636 251.879 25.1477 251.717 24.9993C251.555 24.8374 251.319 24.7092 251.009 24.6148C250.699 24.5203 250.321 24.4259 249.876 24.3315C249.39 24.237 248.911 24.1223 248.439 23.9874C247.98 23.839 247.568 23.6569 247.204 23.441C246.84 23.2251 246.55 22.9486 246.334 22.6113C246.118 22.274 246.01 21.8557 246.01 21.3565C246.01 20.7494 246.172 20.2098 246.496 19.7375C246.82 19.2518 247.292 18.8673 247.912 18.584C248.533 18.3007 249.282 18.159 250.159 18.159C251.387 18.159 252.358 18.4356 253.073 18.9888C253.788 19.5419 254.213 20.3042 254.348 21.2756H251.778C251.697 20.9653 251.515 20.7224 251.231 20.547C250.962 20.3582 250.597 20.2637 250.139 20.2637C249.653 20.2637 249.282 20.3514 249.026 20.5268C248.769 20.7022 248.641 20.9316 248.641 21.2149C248.641 21.4038 248.722 21.5724 248.884 21.7208C249.059 21.8692 249.302 21.9974 249.612 22.1053C249.923 22.1998 250.3 22.2942 250.746 22.3887C251.528 22.5506 252.216 22.7394 252.81 22.9553C253.404 23.1577 253.869 23.4545 254.206 23.8458C254.544 24.2235 254.712 24.7767 254.712 25.5052C254.712 26.1528 254.537 26.733 254.186 27.2457C253.835 27.7448 253.336 28.1361 252.689 28.4194C252.054 28.7027 251.299 28.8444 250.422 28.8444ZM256.498 28.6016V18.4019H259.23V28.6016H256.498ZM257.874 17.0055C257.388 17.0055 256.983 16.8638 256.66 16.5805C256.349 16.2837 256.194 15.9127 256.194 15.4674C256.194 15.0222 256.349 14.6579 256.66 14.3746C256.983 14.0778 257.388 13.9294 257.874 13.9294C258.373 13.9294 258.778 14.0778 259.088 14.3746C259.412 14.6579 259.574 15.0222 259.574 15.4674C259.574 15.9127 259.412 16.2837 259.088 16.5805C258.778 16.8638 258.373 17.0055 257.874 17.0055ZM265.795 33.2967C264.824 33.2967 263.974 33.1752 263.245 32.9324C262.517 32.703 261.95 32.3455 261.545 31.8598C261.154 31.3876 260.958 30.8007 260.958 30.0991C260.958 29.6269 261.08 29.1817 261.323 28.7635C261.566 28.3452 261.916 27.9675 262.375 27.6302C262.847 27.2794 263.434 26.9826 264.136 26.7397L265.168 28.0754C264.547 28.2778 264.095 28.5274 263.812 28.8242C263.542 29.1345 263.407 29.465 263.407 29.8158C263.407 30.1261 263.508 30.3892 263.711 30.6051C263.927 30.8209 264.21 30.9761 264.561 31.0705C264.925 31.1785 265.33 31.2324 265.775 31.2324C266.207 31.2324 266.578 31.1785 266.888 31.0705C267.212 30.9626 267.461 30.8007 267.637 30.5848C267.826 30.3825 267.92 30.1396 267.92 29.8563C267.92 29.492 267.792 29.1952 267.536 28.9658C267.279 28.7365 266.767 28.5948 265.998 28.5409C265.309 28.4869 264.696 28.4127 264.156 28.3182C263.63 28.2103 263.164 28.0889 262.76 27.954C262.355 27.8056 262.011 27.6437 261.727 27.4683C261.458 27.2929 261.235 27.1175 261.06 26.9421V26.4766L263.225 24.1493L265.188 24.7767L262.638 27.2861L263.407 25.9505C263.556 26.0314 263.697 26.1124 263.832 26.1933C263.981 26.2608 264.163 26.3282 264.379 26.3957C264.594 26.4496 264.878 26.5036 265.228 26.5576C265.579 26.6115 266.024 26.6588 266.564 26.6992C267.455 26.7802 268.183 26.9488 268.75 27.2052C269.33 27.4615 269.755 27.8056 270.025 28.2373C270.295 28.6555 270.43 29.175 270.43 29.7956C270.43 30.4027 270.261 30.9693 269.924 31.4955C269.6 32.0352 269.094 32.4669 268.406 32.7907C267.718 33.128 266.847 33.2967 265.795 33.2967ZM265.795 25.5862C264.945 25.5862 264.21 25.4243 263.589 25.1005C262.982 24.7632 262.51 24.318 262.173 23.7648C261.849 23.1982 261.687 22.5708 261.687 21.8827C261.687 21.1946 261.849 20.574 262.173 20.0209C262.51 19.4542 262.982 19.0022 263.589 18.665C264.21 18.3277 264.945 18.159 265.795 18.159C266.659 18.159 267.394 18.3277 268.001 18.665C268.622 19.0022 269.094 19.4542 269.418 20.0209C269.741 20.574 269.903 21.1946 269.903 21.8827C269.903 22.5708 269.741 23.1982 269.418 23.7648C269.094 24.318 268.622 24.7632 268.001 25.1005C267.394 25.4243 266.659 25.5862 265.795 25.5862ZM265.795 23.5017C266.321 23.5017 266.746 23.3668 267.07 23.097C267.394 22.8271 267.556 22.4291 267.556 21.903C267.556 21.3768 267.394 20.9788 267.07 20.7089C266.746 20.4256 266.321 20.284 265.795 20.284C265.282 20.284 264.857 20.4256 264.52 20.7089C264.196 20.9788 264.034 21.3768 264.034 21.903C264.034 22.4291 264.196 22.8271 264.52 23.097C264.857 23.3668 265.282 23.5017 265.795 23.5017ZM267.495 20.3447L267.05 18.4019H271.239V20.0209L267.495 20.3447ZM272.872 28.6016V18.4019H275.28L275.483 20.0613C275.793 19.4947 276.232 19.036 276.798 18.6852C277.378 18.3344 278.067 18.159 278.863 18.159C279.713 18.159 280.428 18.3344 281.008 18.6852C281.588 19.036 282.026 19.5487 282.323 20.2232C282.633 20.8978 282.789 21.7276 282.789 22.7125V28.6016H280.077V22.9755C280.077 22.166 279.901 21.5454 279.551 21.1137C279.213 20.682 278.687 20.4661 277.972 20.4661C277.513 20.4661 277.102 20.574 276.738 20.7899C276.387 21.0058 276.11 21.3161 275.908 21.7208C275.705 22.1121 275.604 22.591 275.604 23.1577V28.6016H272.872Z" fill="#F4F1EC"/>
<path d="M233.883 39.0001C232.549 39.0001 231.833 40.5677 232.706 41.5759L244.088 54.718C245.031 55.8075 246.821 55.1402 246.821 53.6989L246.821 40.5567C246.821 39.697 246.124 39 245.264 39L233.883 39.0001Z" fill="#111111"/>
</svg>
