<?xml version="1.0" encoding="UTF-8"?><svg id="_레이어_2" xmlns="http://www.w3.org/2000/svg" viewBox="0 0 220.96 172.74"><g id="_레이어_1-2"><path d="M4.37,11.81c.3.12.61.25.91.37.75.3-1.08-.47-.35-.14.54.24,1.08.47,1.61.72,1.07.49,2.12,1.01,3.16,1.55,2.13,1.1,4.21,2.31,6.24,3.6s3.88,2.59,5.74,3.99l.16.12c.51.39.41.31-.29-.23.14.03.53.42.61.48.41.32.81.65,1.21.98.95.78,1.89,1.58,2.82,2.4,3.57,3.16,6.9,6.56,10.04,10.15,1.55,1.78,3.05,3.6,4.51,5.46.2.26.66.9-.21-.28.16.21.32.42.48.63.36.47.71.94,1.06,1.42.74,1,1.47,2.01,2.19,3.03,5.34,7.59,9.96,15.65,14.17,23.92,2.14,4.21,4.2,8.45,6.17,12.74,1.03,2.23,2.03,4.48,3,6.73.25.57.48,1.15.73,1.72-.67-1.49.04.11.2.49.54,1.29,1.06,2.59,1.58,3.89,3.71,9.34,6.94,18.9,9.19,28.7.54,2.35,1.02,4.71,1.43,7.09.2,1.16.34,2.33.54,3.49-.02-.12-.19-1.49-.06-.44.03.26.06.51.09.77.08.63.15,1.27.21,1.9.23,2.29.37,4.58.41,6.88.02,1.02-.06,2.01-.14,3.02.14-1.91,0-.18-.13.33-.13.58-.29,1.15-.48,1.71-.08.23-.31.6-.3.83,0-.11.64-1.34.19-.46-.21.42-.41.84-.65,1.24-.12.2-.24.4-.36.59-.12.18-.82.97-.13.24s-.07.07-.18.2c-.19.21-.39.42-.59.62s-.42.39-.63.58c-.36.34-.7.26.4-.3-.4.21-.77.52-1.17.74-.15.08-1.18.49-.27.16.85-.3.03-.03-.19.04-.3.1-.61.19-.92.26l-.37.08c-.65.11-.5.1.46-.04-.21-.14-1.24.07-1.53.07-.26,0-.51-.03-.77-.03-1.06-.01.34-.02.44.09-.21-.21-1.59-.32-1.91-.41-.26-.07-1.78-.4-1.87-.64,0-.01,1.38.66.35.12-.23-.12-.47-.24-.71-.36-.52-.28-1.03-.59-1.53-.92-.22-.15-.43-.3-.65-.45-.7-.47,1.05.88.18.14-.41-.35-.83-.69-1.23-1.05-1.45-1.27-2.82-2.64-4.11-4.07-.64-.72-1.26-1.45-1.86-2.2-.13-.17-.26-.34-.4-.5.04.05.92,1.22.35.45-.31-.43-.63-.86-.94-1.3-2.24-3.17-4.06-6.57-5.66-10.11-.48-1.07.46,1.14.16.39-.08-.2-.17-.4-.25-.6-.18-.45-.36-.91-.53-1.37-.35-.92-.67-1.84-.98-2.77-.63-1.93-1.18-3.89-1.64-5.86s-.83-3.89-1.12-5.86c-.04-.27-.07-.55-.12-.82.01.06.2,1.6.08.61-.05-.44-.11-.88-.16-1.32-.12-1.05-.21-2.1-.28-3.16-.28-4.05-.27-8.13.05-12.18.07-.94.16-1.88.27-2.82.06-.49.14-.99.18-1.48,0,.06-.23,1.6-.08.61.05-.33.09-.65.15-.98.3-1.95.67-3.89,1.11-5.81.87-3.77,2.01-7.47,3.44-11.06.08-.2.16-.39.24-.59.43-1.07-.51,1.14-.18.42.19-.43.38-.86.57-1.29.39-.85.79-1.69,1.21-2.52.91-1.79,1.91-3.53,2.98-5.22.56-.88,1.14-1.75,1.73-2.6.32-.45.64-.9.96-1.35.14-.2.29-.39.44-.59.12-.16.89-1.25.31-.41-.52.74-.05.07.1-.11.19-.24.38-.48.58-.71.31-.38.62-.75.94-1.13.75-.88,1.53-1.75,2.32-2.6,1.54-1.65,3.16-3.23,4.84-4.74.73-.65,1.47-1.29,2.22-1.92.47-.39.95-.78,1.42-1.16.19-.15.39-.3.58-.45l-.63.49c.19-.15.39-.3.59-.44,3.53-2.65,7.29-5,11.2-7.05,1.97-1.03,3.98-1.92,6-2.85-1.68.77.04-.01.44-.17.51-.21,1.03-.41,1.55-.6,1.04-.39,2.08-.76,3.13-1.11,4.21-1.4,8.52-2.48,12.89-3.21.61-.1,1.22-.19,1.82-.28.39-.06,1.1-.04-.5.06.24-.02.49-.06.73-.09,1.16-.14,2.32-.26,3.49-.35,2.21-.17,4.42-.26,6.64-.25s4.43.11,6.63.3c1.04.09,2.12.33,3.16.34-1.88-.02-.04,0,.44.07.68.1,1.35.22,2.03.34,4.41.79,8.76,1.94,12.99,3.4,1,.35,1.99.71,2.98,1.09.52.2,1.04.41,1.56.62.23.09.46.19.69.29-1.64-.65-.38-.16-.06-.02,2.06.9,4.08,1.88,6.06,2.92,3.98,2.1,7.8,4.48,11.44,7.12.46.33.91.66,1.36,1,.23.17.49.45.75.57-.1-.04-1.13-.88-.32-.25.88.7,1.76,1.41,2.62,2.13,1.77,1.49,3.49,3.05,5.15,4.67s3.18,3.2,4.68,4.88c.71.79,1.41,1.6,2.09,2.42.36.43.72.87,1.07,1.31.2.24.39.49.59.73.13.17.82,1.05.22.28-.63-.81.13.18.22.29.15.2.3.4.45.6.3.4.59.81.89,1.21.73,1.02,1.44,2.05,2.13,3.09,1.24,1.88,2.41,3.81,3.51,5.77,1.21,2.15,2.33,4.36,3.36,6.6.24.51.47,1.02.69,1.54.14.32.28.64.42.97.33.76-.42-1.04-.11-.27.5,1.24,1,2.47,1.46,3.72,1.75,4.74,3.14,9.61,4.18,14.55.26,1.24.5,2.48.72,3.72s.56,2.52.59,3.75c-.03-1.79.03.31.08.71.07.63.14,1.26.2,1.89.13,1.33.24,2.66.33,4,.32,5.06.3,10.15-.06,15.2-.08,1.2-.19,2.39-.31,3.58-.06.63-.13,1.26-.21,1.89-.04.35-.09.7-.13,1.05-.15,1.25.19-1.26-.01.08-.38,2.51-.8,5.01-1.33,7.5-1.02,4.83-2.36,9.58-3.99,14.24-1.04,2.97,1.18,6.69,4.19,7.38,3.35.76,6.27-1.02,7.38-4.19,7.29-20.81,8.66-43.7,3.86-65.22-4.5-20.18-14.91-38.89-30.02-53.04-14.21-13.31-32.38-22.93-51.74-25.76-19.75-2.9-39.98.84-57.4,10.65-16.49,9.29-29.77,23.88-36.35,41.7-6,16.23-6.73,34.92-2.14,51.6,2.38,8.64,6.34,16.69,11.87,23.74,2.79,3.56,6.03,6.77,9.69,9.45,4.91,3.59,11.34,5.16,17.3,3.86,5.52-1.2,10.1-5.49,12.33-10.58s2.41-10.35,1.97-15.84c-.82-10.43-3.18-20.7-6.31-30.67s-7.39-20.56-11.91-30.49c-4.01-8.81-8.32-17.54-13.22-25.89C52,34.43,38.81,18.08,21.51,7.23,17.08,4.46,12.41,2.19,7.56.24c-1.35-.54-3.43-.1-4.62.6S.51,3,.18,4.43c-.79,3.47,1.07,6.12,4.19,7.38h0Z"/></g></svg>