<?xml version="1.0" encoding="UTF-8"?><svg id="_레이어_2" xmlns="http://www.w3.org/2000/svg" viewBox="0 0 441.53 420.45"><g id="_레이어_1-2"><path d="M217.35,41.8C204.09,17.11,177.1,1.48,149.37.1c-29.17-1.45-58.36,13.58-72.23,39.61-6.74,12.65-10.08,27.41-8.35,41.71s8.11,28.7,16.91,40.78c14.82,20.33,35.12,34.97,53.01,52.34,4.09,3.97,8.04,8.08,11.71,12.44.89,1.05,1.75,2.12,2.61,3.2.71.89.14.18,0,0,.21.27.41.54.62.82.51.68,1.01,1.36,1.5,2.05,1.55,2.18,3.01,4.43,4.35,6.74s2.53,4.78,3.66,7.24c.37.81-.33-.92-.04-.08.11.31.24.6.36.91.23.6.46,1.21.67,1.83.45,1.3.86,2.61,1.22,3.94.34,1.25.63,2.52.88,3.79.12.64.22,1.28.33,1.93.05.28.13,1.17-.01-.14.04.41.1.82.14,1.23.27,2.76.32,5.53.15,8.3-.04.69-.1,1.38-.17,2.07-.04.35-.08.7-.12,1.04.03-.24.19-1.19,0-.02-.25,1.52-.53,3.03-.89,4.54-.74,3.09-1.76,6.07-2.92,9.02-.06.16-.44,1.06-.06.16-.15.35-.3.7-.46,1.05-.31.69-.63,1.38-.96,2.07-.65,1.35-1.34,2.68-2.06,3.99-1.51,2.72-3.18,5.36-5.01,7.88-.21.29-1.35,1.8-.69.95-.39.5-.78.99-1.18,1.47-.96,1.18-1.96,2.32-2.99,3.44-1.99,2.15-4.1,4.2-6.31,6.12-1.07.93-2.16,1.83-3.28,2.71-.73.57.7-.52-.05.03-.28.21-.57.42-.85.63-.64.47-1.29.94-1.95,1.39-2.41,1.67-4.9,3.22-7.46,4.65s-5.22,2.76-7.92,3.97c-.34.15-2.08.9-1.04.47-.67.28-1.33.55-2.01.81-1.43.56-2.88,1.1-4.33,1.6-5.62,1.95-11.38,3.45-17.22,4.56-1.45.28-2.9.53-4.36.76-.73.11-1.46.22-2.19.32,1.13-.16.16-.02-.05,0-.55.07-1.1.14-1.65.2-2.94.34-5.9.59-8.86.75-6.91.37-13.9.33-20.81-.11-7.73-.49-15.18-1.84-22.7-4.71-.21-.08-1.36-.57-.2-.07-.31-.13-.62-.27-.94-.41-.61-.28-1.22-.56-1.83-.85-1.25-.61-2.49-1.26-3.7-1.96-1.03-.59-2.05-1.21-3.05-1.87-.52-.34-1.03-.69-1.54-1.05-.34-.24-2.15-1.64-.98-.69-1.8-1.45-3.53-2.96-5.12-4.64-.75-.79-1.44-1.63-2.15-2.45-.68-.78.11.16.2.28-.16-.21-.32-.41-.47-.63-.37-.52-.74-1.04-1.09-1.58-.5-.78-.98-1.58-1.41-2.4-.23-.42-.44-.85-.64-1.29-.1-.21-.19-.44-.29-.65-.33-.66.45,1.3.14.3-.27-.87-.61-1.7-.84-2.58-.11-.43-.21-.86-.3-1.29-.04-.21-.07-.43-.12-.64-.21-1.01.02,1.19.06.48.05-.82-.13-1.69-.11-2.53.01-.39.12-.86.08-1.24-.08-.72-.31,1.37-.1.67.07-.24.08-.51.13-.76.16-.82.41-1.6.67-2.39.45-1.35-.39.65,0-.01.24-.41.43-.85.67-1.27.22-.38.47-.73.7-1.1.74-1.16-.85.94.07-.11.66-.75,1.33-1.47,2.07-2.13.34-.3,1.6-1.21.21-.24.42-.3.83-.61,1.26-.9.97-.65,1.98-1.23,3.02-1.76.52-.27,1.07-.49,1.59-.76.75-.39-.99.34-.17.07.22-.07.44-.17.65-.26,1.39-.53,2.81-.99,4.24-1.38s2.82-.71,4.24-.98c.76-.15,1.53-.28,2.29-.4.4-.06.79-.12,1.19-.18-.67.09-.1,0,.24-.02,8.17-.72,16.44-.56,24.61.11,32.12,2.64,63.6,14.63,96.05,17.99,29.07,3.01,57.95-3.51,83.18-18.15,23.06-13.38,42.48-32.77,56.79-55.18,7.32-11.46,13.4-23.9,17.62-36.84s7.47-30.51-2.38-42.24c-3.93-4.68-10.17-7.31-16.26-6.87-7.86.56-14.82,4.58-20.66,9.64s-10.43,11.23-14.7,17.55-8.5,13.17-12.37,19.99c-15.52,27.42-26.95,57.1-35.36,87.41-3.56,12.81-6.81,25.76-9.48,38.79-2.52,12.29-4.45,24.81-4.78,37.37s.9,24.25,4.55,35.72c3.91,12.27,10.5,23.43,19.2,32.9,17.65,19.21,42.13,30.89,68.05,32.99,24.81,2.01,49.7-4.71,71.88-15.48,22.39-10.88,42.84-26.46,59.45-44.99,7.65-8.53,14.59-17.78,20.36-27.7,1.63-2.8.65-6.57-2.15-8.21s-6.57-.66-8.21,2.15c-2.81,4.84-5.9,9.51-9.23,14-.42.57-.84,1.13-1.27,1.69-.1.13-.78,1.01-.34.45s-.25.32-.35.44c-.94,1.19-1.89,2.38-2.86,3.55-1.85,2.23-3.76,4.41-5.71,6.55-4.06,4.43-8.33,8.66-12.79,12.69-2.23,2.01-4.5,3.97-6.82,5.88-1.16.96-2.34,1.9-3.53,2.83-.22.17-.45.35-.67.52.76-.59,0,0-.13.1-.75.57-1.51,1.14-2.27,1.7-9.8,7.26-20.28,13.63-31.32,18.83-1.36.64-2.73,1.26-4.1,1.87-.6.26-1.2.53-1.81.78.94-.4.05-.02-.12.05-.52.21-1.04.43-1.56.64-2.76,1.11-5.56,2.14-8.38,3.09-5.66,1.91-11.43,3.48-17.28,4.67-1.34.27-2.68.52-4.02.75-.71.12-1.43.24-2.15.35-.36.05-.72.11-1.07.16-1.17.17.44-.05-.28.04-2.94.37-5.89.64-8.86.8-5.69.3-11.41.17-17.08-.44-.71-.08-1.41-.16-2.12-.25,1.35.16-.78-.12-1.04-.16-1.49-.23-2.98-.5-4.46-.8-2.8-.57-5.57-1.26-8.31-2.08s-5.65-1.86-8.42-2.96c-.19-.07-1.06-.44-.08-.02-.25-.11-.5-.22-.75-.33-.67-.29-1.34-.59-2-.9-1.42-.66-2.83-1.36-4.21-2.09-11.46-6.04-21.14-13.85-29.34-24.08-.24-.3-.48-.6-.71-.9.07.09.48.63.07.08-.45-.61-.9-1.21-1.34-1.83-.91-1.29-1.79-2.61-2.63-3.95-1.53-2.46-2.94-5.01-4.19-7.62-.31-.64-.61-1.29-.9-1.94-.15-.32-.29-.65-.43-.98.09.22.41,1.04-.01-.04-.55-1.4-1.09-2.8-1.58-4.22-.91-2.66-1.69-5.36-2.33-8.1s-1.19-5.68-1.59-8.55c.17,1.21-.04-.37-.09-.77-.08-.7-.16-1.41-.22-2.11-.14-1.5-.26-3.01-.34-4.52-.32-5.87-.19-11.76.25-17.62.22-2.95.53-5.9.89-8.84.05-.37.09-.74.14-1.11.13-.97-.13.9.01-.07.1-.74.21-1.49.32-2.23.24-1.58.49-3.17.76-4.74,1.02-6.02,2.26-12.01,3.61-17.96,6.38-28.09,14.52-56.57,25.77-82.66,6.06-14.06,13.01-27.74,20.97-40.82,2.04-3.35,4.14-6.66,6.31-9.92.99-1.49,1.99-2.96,3-4.43,1.24-1.79,1.68-2.42,2.87-3.89,2.21-2.73,4.56-5.35,7.16-7.71,1.35-1.23,2.22-1.95,3.34-2.73,1.48-1.03,3.04-1.96,4.67-2.74.1-.05,1.28-.56.73-.34-.48.2.48-.17.46-.16.77-.25,1.54-.52,2.33-.72.32-.08,2.41-.39,1.11-.27.77-.07,1.52-.08,2.29-.07.2,0,1.26.06.41,0s.16.03.37.08c.58.14,1.19.39,1.77.49.61.11-.29-.14-.39-.19.27.14.54.25.8.4.44.24,2.07,1.53,1,.55.44.41.9.78,1.31,1.22.17.18,1.16,1.4.71.78s.58.92.7,1.13c.37.62.68,1.26.99,1.91-.56-1.19.16.49.28.86.21.64.39,1.29.54,1.95.14.59.21,1.19.35,1.78.22.88-.02-.94,0-.03,0,.44.08.89.11,1.33.42,7.54-1.25,14.42-3.62,21.7-.6,1.86-1.26,3.7-1.94,5.52-.28.74-.56,1.49-.86,2.23-.14.36-.29.72-.44,1.08-.01.03-.72,1.74-.29.72-1.21,2.88-2.53,5.72-3.91,8.52-2.83,5.72-5.99,11.28-9.45,16.64-1.71,2.65-3.5,5.25-5.35,7.8-.78,1.06-2.1,2.83-2.55,3.42.39-.5-.36.46-.44.56-.18.23-.37.46-.55.7-.62.77-1.24,1.54-1.87,2.3-4.02,4.87-8.32,9.52-12.88,13.9-2.35,2.26-4.76,4.44-7.24,6.55-1.12.96-2.26,1.9-3.41,2.83-.61.49-1.23.98-1.85,1.47.7-.55-.08.06-.19.14-.39.3-.78.59-1.18.89-5.11,3.82-10.46,7.32-16.02,10.46-2.73,1.54-5.51,2.99-8.34,4.35-1.41.68-2.84,1.33-4.27,1.96-.36.16-.72.31-1.08.47.24-.1.92-.38-.19.08-.82.33-1.63.67-2.45.99-12.36,4.83-25.42,7.87-38.51,8.46-32.22,1.45-63.25-10.15-94.79-15.73-15.81-2.8-32.62-4.93-48.65-2.78-10.82,1.45-22.14,5.01-28.85,14.19-5.3,7.26-5.04,16.57-1.6,24.52,3.84,8.89,11.47,15.91,19.61,20.88,12.89,7.88,27.83,10.39,42.74,10.74,12.66.3,25.27-.48,37.68-3.09,23.81-5,46.22-16.9,61.04-36.54,7.41-9.81,12.98-21.71,14.7-33.94,1.68-11.98-.38-23.61-5.45-34.54-9.58-20.64-28.03-36.04-44.8-50.72-9.04-7.92-18.02-15.91-25.9-25.01-4.55-5.26-8.31-10.29-11.98-16.56s-6-11.46-7.84-18.41c-.44-1.66-.82-3.35-1.13-5.04-.16-.85-.3-1.71-.42-2.56.1.74-.13-1.26-.16-1.56-.31-3.42-.33-6.87-.06-10.29.06-.83.15-1.66.24-2.49.08-.71,0-.09-.02.05.05-.41.12-.82.19-1.24.3-1.85.67-3.69,1.12-5.51.8-3.24,1.84-6.43,3.12-9.51-.32.77.58-1.28.65-1.44.31-.66.63-1.32.96-1.97.8-1.59,1.66-3.14,2.58-4.66.87-1.43,1.78-2.83,2.75-4.19,1.04-1.47,1.23-1.73,2.51-3.24,4.62-5.48,9.28-9.46,15.05-13s11.07-5.83,17.85-7.65c1.65-.44,3.31-.83,4.98-1.16.84-.17,1.68-.32,2.52-.45.42-.07.84-.13,1.26-.2-.65.1.04,0,.31-.04,3.49-.41,7.01-.6,10.53-.53,12.43.24,24.67,3.93,35.43,10.4,1.37.82,2.71,1.69,4.02,2.59.66.45,1.3.91,1.95,1.39.32.24.64.47.96.72-.21-.16-.73-.59.2.16,2.39,1.95,4.69,3.99,6.84,6.2,4.43,4.56,7.31,8.49,10.47,14.37,1.53,2.85,5.48,3.75,8.21,2.15,2.89-1.69,3.69-5.34,2.15-8.21h0Z"/></g></svg>