<svg width="245" height="58" viewBox="0 0 245 58" fill="none" xmlns="http://www.w3.org/2000/svg">
<rect y="15.5859" width="244.464" height="42.0317" rx="7.00528" fill="#111111"/>
<path d="M20.3228 43.8444C19.2839 43.8444 18.3395 43.6353 17.4896 43.2171C16.6396 42.7988 15.965 42.1714 15.4658 41.335C14.9666 40.4985 14.717 39.4326 14.717 38.1374V29.4353H17.4491V38.1577C17.4491 38.8592 17.5638 39.4529 17.7931 39.9386C18.0225 40.4108 18.353 40.7616 18.7848 40.9909C19.23 41.2203 19.7562 41.335 20.3633 41.335C20.9839 41.335 21.5101 41.2203 21.9418 40.9909C22.387 40.7616 22.7243 40.4108 22.9537 39.9386C23.183 39.4529 23.2977 38.8592 23.2977 38.1577V29.4353H26.0298V38.1374C26.0298 39.4326 25.7734 40.4985 25.2608 41.335C24.7481 42.1714 24.0532 42.7988 23.1763 43.2171C22.3128 43.6353 21.3617 43.8444 20.3228 43.8444ZM27.377 43.6016L31.8495 36.4173L27.3163 29.4353H30.4733L33.5899 34.2721L36.4434 29.4353H39.5195L35.0875 36.5387L39.6409 43.6016H36.4839L33.347 38.6839L30.4733 43.6016H27.377ZM46.5605 43.8444C45.5217 43.8444 44.5773 43.6353 43.7273 43.2171C42.8773 42.7988 42.2027 42.1714 41.7035 41.335C41.2044 40.4985 40.9548 39.4326 40.9548 38.1374V29.4353H43.6868V38.1577C43.6868 38.8592 43.8015 39.4529 44.0309 39.9386C44.2602 40.4108 44.5908 40.7616 45.0225 40.9909C45.4677 41.2203 45.9939 41.335 46.601 41.335C47.2216 41.335 47.7478 41.2203 48.1795 40.9909C48.6248 40.7616 48.9621 40.4108 49.1914 39.9386C49.4208 39.4529 49.5355 38.8592 49.5355 38.1577V29.4353H52.2675V38.1374C52.2675 39.4326 52.0112 40.4985 51.4985 41.335C50.9858 42.1714 50.291 42.7988 49.414 43.2171C48.5506 43.6353 47.5994 43.8444 46.5605 43.8444ZM54.3433 43.6016V29.4353H57.0753V43.6016H54.3433ZM63.4464 43.6016V29.4353H68.1819C69.8279 29.4353 71.1838 29.7321 72.2497 30.3258C73.329 30.9059 74.125 31.7289 74.6377 32.7947C75.1639 33.8471 75.4269 35.0883 75.4269 36.5184C75.4269 37.9486 75.1639 39.1965 74.6377 40.2624C74.125 41.3147 73.3357 42.1377 72.2699 42.7314C71.2041 43.3115 69.8414 43.6016 68.1819 43.6016H63.4464ZM66.1784 41.254H68.0403C69.2005 41.254 70.1112 41.0651 70.7723 40.6874C71.4469 40.3096 71.9259 39.7699 72.2092 39.0684C72.4925 38.3533 72.6342 37.5033 72.6342 36.5184C72.6342 35.5201 72.4925 34.6701 72.2092 33.9685C71.9259 33.2535 71.4469 32.7071 70.7723 32.3293C70.1112 31.9515 69.2005 31.7626 68.0403 31.7626H66.1784V41.254ZM82.0048 43.8444C80.9794 43.8444 80.0687 43.6285 79.2727 43.1968C78.4902 42.7516 77.8763 42.1377 77.4311 41.3552C76.9994 40.5592 76.7835 39.6418 76.7835 38.6029C76.7835 37.5371 76.9994 36.5994 77.4311 35.7899C77.8763 34.9669 78.4902 34.326 79.2727 33.8673C80.0552 33.3951 80.9659 33.159 82.0048 33.159C83.0166 33.159 83.9003 33.3816 84.6559 33.8269C85.4114 34.2721 85.9983 34.8725 86.4165 35.628C86.8348 36.3835 87.0439 37.2402 87.0439 38.1982C87.0439 38.3331 87.0439 38.4882 87.0439 38.6636C87.0439 38.8255 87.0304 38.9942 87.0034 39.1696H78.7263V37.5101H84.2916C84.2511 36.849 84.015 36.3296 83.5833 35.9518C83.165 35.574 82.6389 35.3851 82.0048 35.3851C81.546 35.3851 81.1211 35.4931 80.7298 35.7089C80.3385 35.9113 80.0282 36.2284 79.7989 36.6601C79.583 37.0918 79.4751 37.6383 79.4751 38.2993V38.8862C79.4751 39.4394 79.5763 39.9251 79.7786 40.3433C79.9945 40.7481 80.2913 41.0651 80.6691 41.2945C81.0468 41.5104 81.4853 41.6183 81.9845 41.6183C82.4837 41.6183 82.8952 41.5104 83.219 41.2945C83.5563 41.0786 83.8059 40.802 83.9678 40.4648H86.7606C86.5717 41.0989 86.2546 41.6723 85.8094 42.1849C85.3642 42.6976 84.8178 43.1024 84.1702 43.3992C83.5226 43.696 82.8008 43.8444 82.0048 43.8444ZM92.8634 43.8444C91.9325 43.8444 91.123 43.696 90.4349 43.3992C89.7469 43.1024 89.2072 42.6909 88.8159 42.1647C88.4247 41.6385 88.2021 41.0449 88.1481 40.3838H90.8599C90.9274 40.6401 91.0421 40.8762 91.204 41.0921C91.3659 41.2945 91.5817 41.4564 91.8516 41.5778C92.1214 41.6992 92.4452 41.76 92.823 41.76C93.1872 41.76 93.484 41.7127 93.7134 41.6183C93.9428 41.5104 94.1114 41.3687 94.2193 41.1933C94.3408 41.0179 94.4015 40.8358 94.4015 40.6469C94.4015 40.3636 94.3205 40.1477 94.1586 39.9993C93.9967 39.8374 93.7606 39.7092 93.4503 39.6148C93.14 39.5203 92.7622 39.4259 92.317 39.3315C91.8313 39.237 91.3524 39.1223 90.8802 38.9874C90.4214 38.839 90.0099 38.6569 89.6457 38.441C89.2814 38.2251 88.9913 37.9486 88.7755 37.6113C88.5596 37.274 88.4517 36.8557 88.4517 36.3565C88.4517 35.7494 88.6136 35.2098 88.9374 34.7375C89.2612 34.2518 89.7334 33.8673 90.354 33.584C90.9746 33.3007 91.7234 33.159 92.6003 33.159C93.8281 33.159 94.7995 33.4356 95.5145 33.9888C96.2296 34.5419 96.6546 35.3042 96.7895 36.2756H94.2193C94.1384 35.9653 93.9563 35.7224 93.6729 35.547C93.4031 35.3582 93.0388 35.2637 92.5801 35.2637C92.0944 35.2637 91.7234 35.3514 91.467 35.5268C91.2107 35.7022 91.0825 35.9316 91.0825 36.2149C91.0825 36.4038 91.1635 36.5724 91.3254 36.7208C91.5008 36.8692 91.7436 36.9974 92.0539 37.1053C92.3642 37.1998 92.742 37.2942 93.1872 37.3887C93.9697 37.5506 94.6578 37.7394 95.2515 37.9553C95.8451 38.1577 96.3105 38.4545 96.6478 38.8458C96.9851 39.2235 97.1538 39.7767 97.1538 40.5052C97.1538 41.1528 96.9784 41.733 96.6276 42.2457C96.2768 42.7448 95.7776 43.1361 95.13 43.4194C94.4959 43.7027 93.7404 43.8444 92.8634 43.8444ZM98.9393 43.6016V33.4019H101.671V43.6016H98.9393ZM100.315 32.0055C99.8297 32.0055 99.425 31.8638 99.1012 31.5805C98.7908 31.2837 98.6357 30.9127 98.6357 30.4674C98.6357 30.0222 98.7908 29.6579 99.1012 29.3746C99.425 29.0778 99.8297 28.9294 100.315 28.9294C100.815 28.9294 101.219 29.0778 101.53 29.3746C101.853 29.6579 102.015 30.0222 102.015 30.4674C102.015 30.9127 101.853 31.2837 101.53 31.5805C101.219 31.8638 100.815 32.0055 100.315 32.0055ZM108.237 48.2967C107.265 48.2967 106.415 48.1752 105.687 47.9324C104.958 47.703 104.392 47.3455 103.987 46.8598C103.596 46.3876 103.4 45.8007 103.4 45.0991C103.4 44.6269 103.521 44.1817 103.764 43.7635C104.007 43.3452 104.358 42.9675 104.817 42.6302C105.289 42.2794 105.876 41.9826 106.577 41.7397L107.609 43.0754C106.989 43.2778 106.537 43.5274 106.253 43.8242C105.984 44.1345 105.849 44.465 105.849 44.8158C105.849 45.1261 105.95 45.3892 106.152 45.6051C106.368 45.8209 106.651 45.9761 107.002 46.0705C107.366 46.1785 107.771 46.2324 108.216 46.2324C108.648 46.2324 109.019 46.1785 109.329 46.0705C109.653 45.9626 109.903 45.8007 110.078 45.5848C110.267 45.3825 110.362 45.1396 110.362 44.8563C110.362 44.492 110.233 44.1952 109.977 43.9658C109.721 43.7365 109.208 43.5948 108.439 43.5409C107.751 43.4869 107.137 43.4127 106.597 43.3182C106.071 43.2103 105.606 43.0889 105.201 42.954C104.796 42.8056 104.452 42.6437 104.169 42.4683C103.899 42.2929 103.676 42.1175 103.501 41.9421V41.4766L105.666 39.1493L107.63 39.7767L105.08 42.2861L105.849 40.9505C105.997 41.0314 106.139 41.1124 106.274 41.1933C106.422 41.2608 106.604 41.3282 106.82 41.3957C107.036 41.4496 107.319 41.5036 107.67 41.5576C108.021 41.6115 108.466 41.6588 109.006 41.6992C109.896 41.7802 110.625 41.9488 111.191 42.2052C111.771 42.4615 112.196 42.8056 112.466 43.2373C112.736 43.6555 112.871 44.175 112.871 44.7956C112.871 45.4027 112.702 45.9693 112.365 46.4955C112.041 47.0352 111.535 47.4669 110.847 47.7907C110.159 48.128 109.289 48.2967 108.237 48.2967ZM108.237 40.5862C107.387 40.5862 106.651 40.4243 106.031 40.1005C105.424 39.7632 104.951 39.318 104.614 38.7648C104.29 38.1982 104.128 37.5708 104.128 36.8827C104.128 36.1946 104.29 35.574 104.614 35.0209C104.951 34.4542 105.424 34.0022 106.031 33.665C106.651 33.3277 107.387 33.159 108.237 33.159C109.1 33.159 109.835 33.3277 110.443 33.665C111.063 34.0022 111.535 34.4542 111.859 35.0209C112.183 35.574 112.345 36.1946 112.345 36.8827C112.345 37.5708 112.183 38.1982 111.859 38.7648C111.535 39.318 111.063 39.7632 110.443 40.1005C109.835 40.4243 109.1 40.5862 108.237 40.5862ZM108.237 38.5017C108.763 38.5017 109.188 38.3668 109.512 38.097C109.835 37.8271 109.997 37.4291 109.997 36.903C109.997 36.3768 109.835 35.9788 109.512 35.7089C109.188 35.4256 108.763 35.284 108.237 35.284C107.724 35.284 107.299 35.4256 106.962 35.7089C106.638 35.9788 106.476 36.3768 106.476 36.903C106.476 37.4291 106.638 37.8271 106.962 38.097C107.299 38.3668 107.724 38.5017 108.237 38.5017ZM109.937 35.3447L109.491 33.4019H113.681V35.0209L109.937 35.3447ZM115.314 43.6016V33.4019H117.722L117.924 35.0613C118.235 34.4947 118.673 34.036 119.24 33.6852C119.82 33.3344 120.508 33.159 121.304 33.159C122.154 33.159 122.869 33.3344 123.449 33.6852C124.029 34.036 124.468 34.5487 124.765 35.2232C125.075 35.8978 125.23 36.7276 125.23 37.7125V43.6016H122.518V37.9755C122.518 37.166 122.343 36.5454 121.992 36.1137C121.655 35.682 121.129 35.4661 120.414 35.4661C119.955 35.4661 119.543 35.574 119.179 35.7899C118.828 36.0058 118.552 36.3161 118.349 36.7208C118.147 37.1121 118.046 37.591 118.046 38.1577V43.6016H115.314ZM142.119 43.6016L134.429 35.9518C133.808 35.3312 133.37 34.7713 133.113 34.2721C132.857 33.7594 132.729 33.2197 132.729 32.6531C132.729 32.0055 132.891 31.4186 133.215 30.8924C133.538 30.3662 134.011 29.9548 134.631 29.6579C135.265 29.3476 136.021 29.1925 136.898 29.1925C137.775 29.1925 138.51 29.3544 139.104 29.6782C139.711 30.002 140.17 30.427 140.48 30.9531C140.804 31.4793 140.959 32.0729 140.945 32.734H138.335C138.335 32.2483 138.193 31.8841 137.91 31.6412C137.626 31.3984 137.276 31.2769 136.857 31.2769C136.399 31.2769 136.028 31.4051 135.744 31.6614C135.474 31.9043 135.34 32.2281 135.34 32.6328C135.34 32.9566 135.441 33.2939 135.643 33.6447C135.845 33.9955 136.156 34.3868 136.574 34.8185L145.377 43.6016H142.119ZM135.967 43.8242C134.928 43.8242 134.024 43.6488 133.255 43.298C132.5 42.9337 131.913 42.4278 131.494 41.7802C131.076 41.1326 130.867 40.3703 130.867 39.4934C130.867 38.8188 131.009 38.1914 131.292 37.6113C131.575 37.0176 132 36.4982 132.567 36.053C133.134 35.5943 133.835 35.23 134.672 34.9602L135.704 34.6364L136.898 36.3363L135.967 36.6399C135.144 36.9097 134.53 37.274 134.125 37.7327C133.734 38.1914 133.538 38.7243 133.538 39.3315C133.538 39.7497 133.64 40.1342 133.842 40.485C134.044 40.8223 134.341 41.0921 134.732 41.2945C135.124 41.4969 135.582 41.5981 136.109 41.5981C136.837 41.5981 137.491 41.4362 138.072 41.1124C138.652 40.7886 139.212 40.2691 139.751 39.5541C139.994 39.2303 140.237 38.866 140.48 38.4612C140.723 38.0565 140.966 37.6045 141.208 37.1053L141.633 36.2351H144.406L143.718 37.6315C143.381 38.3331 143.037 38.9739 142.686 39.5541C142.335 40.1342 141.971 40.6469 141.593 41.0921C140.824 42.05 139.981 42.7448 139.063 43.1766C138.159 43.6083 137.127 43.8242 135.967 43.8242ZM155.731 43.8444C154.705 43.8444 153.788 43.669 152.979 43.3182C152.183 42.9675 151.548 42.4548 151.076 41.7802C150.618 41.1056 150.381 40.2894 150.368 39.3315H153.262C153.275 39.7497 153.383 40.1275 153.586 40.4648C153.788 40.802 154.065 41.0719 154.415 41.2743C154.78 41.4631 155.211 41.5576 155.711 41.5576C156.142 41.5576 156.513 41.4901 156.824 41.3552C157.147 41.2068 157.397 41.0044 157.572 40.7481C157.748 40.4917 157.836 40.1882 157.836 39.8374C157.836 39.4326 157.734 39.0953 157.532 38.8255C157.343 38.5557 157.073 38.3263 156.722 38.1374C156.385 37.9486 155.987 37.7799 155.528 37.6315C155.083 37.4696 154.611 37.301 154.112 37.1256C152.992 36.7613 152.135 36.2756 151.542 35.6685C150.962 35.0613 150.671 34.2586 150.671 33.2602C150.671 32.4102 150.874 31.6817 151.279 31.0746C151.697 30.4674 152.27 30.002 152.999 29.6782C153.727 29.3544 154.557 29.1925 155.488 29.1925C156.446 29.1925 157.282 29.3611 157.997 29.6984C158.726 30.0222 159.299 30.4944 159.718 31.115C160.149 31.7357 160.372 32.4642 160.385 33.3007H157.471C157.458 32.9904 157.363 32.7003 157.188 32.4305C157.026 32.1471 156.797 31.9245 156.5 31.7626C156.203 31.5872 155.852 31.4995 155.448 31.4995C155.097 31.4861 154.773 31.54 154.476 31.6614C154.193 31.7829 153.963 31.965 153.788 32.2079C153.626 32.4372 153.545 32.7273 153.545 33.0781C153.545 33.4154 153.626 33.6987 153.788 33.928C153.963 34.1574 154.2 34.3598 154.496 34.5352C154.793 34.6971 155.144 34.8522 155.549 35.0006C155.953 35.1355 156.392 35.2772 156.864 35.4256C157.566 35.6685 158.213 35.9585 158.807 36.2958C159.401 36.6196 159.873 37.0446 160.224 37.5708C160.574 38.097 160.75 38.7918 160.75 39.6553C160.75 40.3973 160.554 41.0854 160.163 41.7195C159.772 42.3536 159.205 42.8663 158.463 43.2575C157.734 43.6488 156.824 43.8444 155.731 43.8444ZM167.014 43.6016C166.299 43.6016 165.671 43.4936 165.131 43.2778C164.605 43.0484 164.194 42.6774 163.897 42.1647C163.6 41.6385 163.452 40.9235 163.452 40.0195V35.6887H161.711V33.4019H163.452L163.755 30.6293H166.184V33.4019H168.875V35.6887H166.184V40.06C166.184 40.5187 166.285 40.8358 166.487 41.0112C166.69 41.1866 167.034 41.2743 167.52 41.2743H168.855V43.6016H167.014ZM170.588 43.6016V33.4019H173.016L173.279 35.284C173.522 34.8387 173.826 34.461 174.19 34.1507C174.568 33.8404 174.993 33.5975 175.465 33.4221C175.951 33.2467 176.484 33.159 177.064 33.159V36.053H176.133C175.728 36.053 175.35 36.1002 175 36.1946C174.662 36.2891 174.366 36.4442 174.109 36.6601C173.853 36.8625 173.657 37.1458 173.522 37.5101C173.387 37.8744 173.32 38.3331 173.32 38.8862V43.6016H170.588ZM181.722 43.8444C180.872 43.8444 180.171 43.7095 179.617 43.4397C179.064 43.1563 178.653 42.7853 178.383 42.3266C178.127 41.8544 177.998 41.335 177.998 40.7683C177.998 40.1477 178.154 39.6013 178.464 39.1291C178.788 38.6569 179.267 38.2859 179.901 38.016C180.548 37.7462 181.358 37.6113 182.329 37.6113H184.859C184.859 37.1121 184.791 36.7006 184.657 36.3768C184.522 36.0395 184.313 35.7899 184.029 35.628C183.746 35.4661 183.368 35.3851 182.896 35.3851C182.383 35.3851 181.945 35.4998 181.58 35.7292C181.23 35.945 181.014 36.2823 180.933 36.7411H178.282C178.349 36.0125 178.585 35.3851 178.99 34.859C179.408 34.3193 179.955 33.9011 180.629 33.6042C181.317 33.3074 182.08 33.159 182.916 33.159C183.874 33.159 184.704 33.3209 185.405 33.6447C186.107 33.9685 186.647 34.434 187.024 35.0411C187.402 35.6482 187.591 36.397 187.591 37.2875V43.6016H185.284L184.98 42.0433C184.832 42.3131 184.657 42.556 184.454 42.7718C184.252 42.9877 184.016 43.1766 183.746 43.3385C183.476 43.5004 183.172 43.6218 182.835 43.7027C182.498 43.7972 182.127 43.8444 181.722 43.8444ZM182.37 41.7397C182.72 41.7397 183.031 41.679 183.301 41.5576C183.584 41.4227 183.827 41.2473 184.029 41.0314C184.232 40.802 184.387 40.5457 184.495 40.2624C184.616 39.9656 184.697 39.6485 184.737 39.3112V39.291H182.653C182.235 39.291 181.891 39.3449 181.621 39.4529C181.365 39.5473 181.176 39.689 181.054 39.8779C180.933 40.0667 180.872 40.2826 180.872 40.5255C180.872 40.7953 180.933 41.0179 181.054 41.1933C181.176 41.3687 181.351 41.5036 181.58 41.5981C181.81 41.6925 182.073 41.7397 182.37 41.7397ZM194.028 43.6016C193.313 43.6016 192.686 43.4936 192.146 43.2778C191.62 43.0484 191.208 42.6774 190.912 42.1647C190.615 41.6385 190.466 40.9235 190.466 40.0195V35.6887H188.726V33.4019H190.466L190.77 30.6293H193.198V33.4019H195.89V35.6887H193.198V40.06C193.198 40.5187 193.3 40.8358 193.502 41.0112C193.704 41.1866 194.048 41.2743 194.534 41.2743H195.87V43.6016H194.028ZM202.243 43.8444C201.218 43.8444 200.307 43.6285 199.511 43.1968C198.728 42.7516 198.114 42.1377 197.669 41.3552C197.238 40.5592 197.022 39.6418 197.022 38.6029C197.022 37.5371 197.238 36.5994 197.669 35.7899C198.114 34.9669 198.728 34.326 199.511 33.8673C200.293 33.3951 201.204 33.159 202.243 33.159C203.255 33.159 204.138 33.3816 204.894 33.8269C205.65 34.2721 206.236 34.8725 206.655 35.628C207.073 36.3835 207.282 37.2402 207.282 38.1982C207.282 38.3331 207.282 38.4882 207.282 38.6636C207.282 38.8255 207.269 38.9942 207.242 39.1696H198.964V37.5101H204.53C204.489 36.849 204.253 36.3296 203.821 35.9518C203.403 35.574 202.877 35.3851 202.243 35.3851C201.784 35.3851 201.359 35.4931 200.968 35.7089C200.577 35.9113 200.266 36.2284 200.037 36.6601C199.821 37.0918 199.713 37.6383 199.713 38.2993V38.8862C199.713 39.4394 199.814 39.9251 200.017 40.3433C200.233 40.7481 200.529 41.0651 200.907 41.2945C201.285 41.5104 201.723 41.6183 202.223 41.6183C202.722 41.6183 203.133 41.5104 203.457 41.2945C203.794 41.0786 204.044 40.802 204.206 40.4648H206.999C206.81 41.0989 206.493 41.6723 206.048 42.1849C205.602 42.6976 205.056 43.1024 204.408 43.3992C203.761 43.696 203.039 43.8444 202.243 43.8444ZM213.067 48.2967C212.096 48.2967 211.246 48.1752 210.517 47.9324C209.789 47.703 209.222 47.3455 208.817 46.8598C208.426 46.3876 208.231 45.8007 208.231 45.0991C208.231 44.6269 208.352 44.1817 208.595 43.7635C208.838 43.3452 209.188 42.9675 209.647 42.6302C210.119 42.2794 210.706 41.9826 211.408 41.7397L212.44 43.0754C211.819 43.2778 211.367 43.5274 211.084 43.8242C210.814 44.1345 210.679 44.465 210.679 44.8158C210.679 45.1261 210.78 45.3892 210.983 45.6051C211.199 45.8209 211.482 45.9761 211.833 46.0705C212.197 46.1785 212.602 46.2324 213.047 46.2324C213.479 46.2324 213.85 46.1785 214.16 46.0705C214.484 45.9626 214.733 45.8007 214.909 45.5848C215.098 45.3825 215.192 45.1396 215.192 44.8563C215.192 44.492 215.064 44.1952 214.808 43.9658C214.551 43.7365 214.039 43.5948 213.27 43.5409C212.582 43.4869 211.968 43.4127 211.428 43.3182C210.902 43.2103 210.436 43.0889 210.032 42.954C209.627 42.8056 209.283 42.6437 209 42.4683C208.73 42.2929 208.507 42.1175 208.332 41.9421V41.4766L210.497 39.1493L212.46 39.7767L209.91 42.2861L210.679 40.9505C210.828 41.0314 210.969 41.1124 211.104 41.1933C211.253 41.2608 211.435 41.3282 211.651 41.3957C211.867 41.4496 212.15 41.5036 212.501 41.5576C212.851 41.6115 213.297 41.6588 213.836 41.6992C214.727 41.7802 215.455 41.9488 216.022 42.2052C216.602 42.4615 217.027 42.8056 217.297 43.2373C217.567 43.6555 217.702 44.175 217.702 44.7956C217.702 45.4027 217.533 45.9693 217.196 46.4955C216.872 47.0352 216.366 47.4669 215.678 47.7907C214.99 48.128 214.12 48.2967 213.067 48.2967ZM213.067 40.5862C212.217 40.5862 211.482 40.4243 210.861 40.1005C210.254 39.7632 209.782 39.318 209.445 38.7648C209.121 38.1982 208.959 37.5708 208.959 36.8827C208.959 36.1946 209.121 35.574 209.445 35.0209C209.782 34.4542 210.254 34.0022 210.861 33.665C211.482 33.3277 212.217 33.159 213.067 33.159C213.931 33.159 214.666 33.3277 215.273 33.665C215.894 34.0022 216.366 34.4542 216.69 35.0209C217.014 35.574 217.175 36.1946 217.175 36.8827C217.175 37.5708 217.014 38.1982 216.69 38.7648C216.366 39.318 215.894 39.7632 215.273 40.1005C214.666 40.4243 213.931 40.5862 213.067 40.5862ZM213.067 38.5017C213.593 38.5017 214.018 38.3668 214.342 38.097C214.666 37.8271 214.828 37.4291 214.828 36.903C214.828 36.3768 214.666 35.9788 214.342 35.7089C214.018 35.4256 213.593 35.284 213.067 35.284C212.555 35.284 212.13 35.4256 211.792 35.7089C211.469 35.9788 211.307 36.3768 211.307 36.903C211.307 37.4291 211.469 37.8271 211.792 38.097C212.13 38.3668 212.555 38.5017 213.067 38.5017ZM214.767 35.3447L214.322 33.4019H218.511V35.0209L214.767 35.3447ZM221.44 48.0538L223.909 42.4683H223.301L219.213 33.4019H222.188L225.103 39.9791L227.733 33.4019H230.627L224.334 48.0538H221.44Z" fill="#F4F1EC"/>
<path d="M133.883 18.8744C132.549 18.8744 131.833 17.3068 132.706 16.2986L144.088 3.15653C145.031 2.06697 146.821 2.7343 146.821 4.17565L146.821 17.3178C146.821 18.1775 146.124 18.8745 145.264 18.8745L133.883 18.8744Z" fill="#111111"/>
</svg>
